<svg width="400" height="461" viewBox="0 0 400 461" fill="none" xmlns="http://www.w3.org/2000/svg">
<g clip-path="url(#clip0)">
<path d="M342.544 460.526H57.4563C39.2545 460.526 24.5615 445.833 24.5615 427.632V32.8947C24.5615 14.693 39.2545 0 57.4563 0H265.79L375.439 109.649V427.632C375.439 445.833 360.746 460.526 342.544 460.526Z" fill="#E7EAF3"/>
<path d="M375.439 109.649H265.79V0L375.439 109.649Z" fill="#F8FAFD"/>
<path d="M265.79 109.649L375.439 219.298V109.649H265.79Z" fill="#BDC5D1"/>
<path d="M387.5 389.035H12.5C5.70175 389.035 0 383.553 0 376.535V272.807C0 266.009 5.48246 260.307 12.5 260.307H387.5C394.298 260.307 400 265.79 400 272.807V376.535C400 383.553 394.298 389.035 387.5 389.035Z" fill="#377DFF"/>
<path d="M91.7529 306.759C91.7529 305.748 92.0236 304.984 92.565 304.467C93.1064 303.95 93.8944 303.691 94.929 303.691C95.9275 303.691 96.6975 303.956 97.2388 304.485C97.7922 305.015 98.0689 305.772 98.0689 306.759C98.0689 307.709 97.7922 308.461 97.2388 309.015C96.6854 309.556 95.9155 309.827 94.929 309.827C93.9184 309.827 93.1365 309.562 92.5831 309.033C92.0296 308.491 91.7529 307.733 91.7529 306.759ZM114.707 287.233C112.602 287.233 110.972 288.028 109.817 289.616C108.662 291.192 108.084 293.393 108.084 296.22C108.084 302.103 110.292 305.045 114.707 305.045C116.56 305.045 118.803 304.581 121.438 303.655V308.347C119.273 309.249 116.855 309.7 114.184 309.7C110.346 309.7 107.411 308.539 105.377 306.218C103.344 303.884 102.328 300.539 102.328 296.184C102.328 293.441 102.827 291.041 103.826 288.984C104.824 286.915 106.256 285.333 108.12 284.238C109.997 283.131 112.193 282.578 114.707 282.578C117.27 282.578 119.844 283.197 122.431 284.436L120.626 288.984C119.64 288.515 118.647 288.106 117.649 287.757C116.65 287.408 115.67 287.233 114.707 287.233ZM142.642 302.013C142.642 304.395 141.782 306.272 140.061 307.643C138.353 309.015 135.971 309.7 132.915 309.7C130.1 309.7 127.61 309.171 125.444 308.112V302.915C127.225 303.709 128.729 304.269 129.956 304.593C131.195 304.918 132.326 305.081 133.348 305.081C134.575 305.081 135.514 304.846 136.163 304.377C136.825 303.908 137.156 303.21 137.156 302.284C137.156 301.766 137.012 301.309 136.723 300.912C136.434 300.503 136.007 300.112 135.442 299.739C134.888 299.366 133.751 298.771 132.031 297.953C130.419 297.195 129.21 296.467 128.404 295.769C127.598 295.071 126.954 294.259 126.473 293.333C125.992 292.407 125.751 291.324 125.751 290.085C125.751 287.751 126.539 285.916 128.115 284.581C129.703 283.245 131.893 282.578 134.684 282.578C136.055 282.578 137.36 282.74 138.6 283.065C139.851 283.39 141.156 283.847 142.516 284.436L140.711 288.785C139.303 288.208 138.136 287.805 137.21 287.576C136.296 287.348 135.393 287.233 134.503 287.233C133.445 287.233 132.632 287.48 132.067 287.973C131.502 288.467 131.219 289.11 131.219 289.904C131.219 290.398 131.333 290.831 131.562 291.204C131.79 291.564 132.151 291.919 132.645 292.268C133.15 292.605 134.335 293.219 136.2 294.109C138.666 295.288 140.356 296.473 141.27 297.664C142.185 298.843 142.642 300.293 142.642 302.013ZM162.474 282.957H168.122L159.154 309.339H153.054L144.104 282.957H149.752L154.714 298.656C154.991 299.583 155.274 300.666 155.563 301.905C155.863 303.132 156.05 303.986 156.122 304.467C156.254 303.36 156.705 301.423 157.475 298.656L162.474 282.957Z" fill="white"/>
</g>
<defs>
<clipPath id="clip0">
<rect width="400" height="460.526" fill="white"/>
</clipPath>
</defs>
</svg>
