<svg width="200" height="144" viewBox="0 0 200 144" fill="none" xmlns="http://www.w3.org/2000/svg">
<rect x="16.5" y="10.5" width="167" height="123" rx="3.5" fill="#1E2022" stroke="#4B5055"/>
<path d="M17 14C17 12.3431 18.3431 11 20 11H180C181.657 11 183 12.3431 183 14V20H17V14Z" fill="#25282A"/>
<circle cx="21.5" cy="15.5" r="1.5" fill="#ED6B5F"/>
<circle cx="27.5" cy="15.5" r="1.5" fill="#F7D289"/>
<circle cx="33.5" cy="15.5" r="1.5" fill="#61C454"/>
<path d="M17 21H61V133H20C18.3431 133 17 131.657 17 130V21Z" fill="#25282A"/>
<rect x="62" y="21" width="121" height="7" fill="#25282A"/>
<rect x="31" y="70" width="17" height="3" rx="1.5" fill="#4B5055"/>
<rect x="31" y="80" width="10" height="3" rx="1.5" fill="#4B5055"/>
<rect x="31" y="90" width="16" height="3" rx="1.5" fill="#4B5055"/>
<rect x="31" y="100" width="22" height="3" rx="1.5" fill="#4B5055"/>
<rect x="17" y="118" width="44" height="1" fill="#4B5055"/>
<rect x="27" y="124" width="4" height="4" rx="2" fill="#4B5055"/>
<rect x="37" y="124" width="4" height="4" rx="2" fill="#4B5055"/>
<rect x="47" y="124" width="4" height="4" rx="2" fill="#4B5055"/>
<rect x="172" y="23" width="3" height="3" rx="1.5" fill="#4B5055"/>
<rect x="166" y="23" width="3" height="3" rx="1.5" fill="#4B5055"/>
<rect x="160" y="23" width="3" height="3" rx="1.5" fill="#4B5055"/>
<rect x="154" y="23" width="3" height="3" rx="1.5" fill="#4B5055"/>
<rect x="70" y="23" width="17" height="3" rx="1.5" fill="#4B5055"/>
<rect x="17" y="20" width="166" height="1" fill="#4B5055"/>
<rect x="62" y="28" width="121" height="1" fill="#4B5055"/>
<rect x="25" y="31" width="13" height="5" rx="2.5" fill="white"/>
<rect x="61" y="21" width="1" height="112" fill="#4B5055"/>
<rect x="31.0923" y="50.7538" width="21.0462" height="4.70769" rx="1.10769" fill="#3D4145" fill-opacity="0.7"/>
<rect x="32.4769" y="52.1385" width="9.69231" height="1.93846" rx="0.969231" fill="#4B5055"/>
<rect x="31.0923" y="57.9538" width="21.0462" height="3.04615" rx="1.52308" fill="#4B5055"/>
<rect x="31.0923" y="43" width="21.0462" height="3.87692" rx="1.93846" fill="white"/>
<rect x="25" y="43" width="3.87692" height="3.87692" rx="1.93846" fill="white"/>
<rect x="25" y="70" width="3" height="3" rx="1.5" fill="#4B5055"/>
<rect x="25" y="80" width="3" height="3" rx="1.5" fill="#4B5055"/>
<rect x="25" y="90" width="3" height="3" rx="1.5" fill="#4B5055"/>
<rect x="25" y="100" width="3" height="3" rx="1.5" fill="#4B5055"/>
<rect x="26.6615" y="50.7538" width="0.830769" height="10.2462" fill="#4B5055"/>
</svg>
