<svg width="200" height="144" viewBox="0 0 200 144" fill="none" xmlns="http://www.w3.org/2000/svg">
<path d="M180 10.5H20C18.067 10.5 16.5 12.067 16.5 14V130C16.5 131.933 18.067 133.5 20 133.5H180C181.933 133.5 183.5 131.933 183.5 130V14C183.5 12.067 181.933 10.5 180 10.5Z" fill="#1E2022" stroke="#4B5055"/>
<path d="M17 14C17 12.3431 18.3431 11 20 11H180C181.657 11 183 12.3431 183 14V20H17V14Z" fill="#25282A"/>
<path d="M21.5 17C22.3284 17 23 16.3284 23 15.5C23 14.6716 22.3284 14 21.5 14C20.6716 14 20 14.6716 20 15.5C20 16.3284 20.6716 17 21.5 17Z" fill="#ED6B5F"/>
<path d="M27.5 17C28.3284 17 29 16.3284 29 15.5C29 14.6716 28.3284 14 27.5 14C26.6716 14 26 14.6716 26 15.5C26 16.3284 26.6716 17 27.5 17Z" fill="#F7D289"/>
<path d="M33.5 17C34.3284 17 35 16.3284 35 15.5C35 14.6716 34.3284 14 33.5 14C32.6716 14 32 14.6716 32 15.5C32 16.3284 32.6716 17 33.5 17Z" fill="#61C454"/>
<path d="M183 20H17V21H183V20Z" fill="#4B5055"/>
<path d="M183 118H17V119H183V118Z" fill="#4B5055"/>
<path d="M50.5 125H30.5C29.6716 125 29 125.672 29 126.5C29 127.328 29.6716 128 30.5 128H50.5C51.3284 128 52 127.328 52 126.5C52 125.672 51.3284 125 50.5 125Z" fill="#4B5055"/>
<path d="M151 126C151 124.895 150.105 124 149 124C147.895 124 147 124.895 147 126C147 127.105 147.895 128 149 128C150.105 128 151 127.105 151 126Z" fill="#4B5055"/>
<path d="M161 126C161 124.895 160.105 124 159 124C157.895 124 157 124.895 157 126C157 127.105 157.895 128 159 128C160.105 128 161 127.105 161 126Z" fill="#4B5055"/>
<path d="M171 126C171 124.895 170.105 124 169 124C167.895 124 167 124.895 167 126C167 127.105 167.895 128 169 128C170.105 128 171 127.105 171 126Z" fill="#4B5055"/>
</svg>
