<svg width="200" height="144" viewBox="0 0 200 144" fill="none" xmlns="http://www.w3.org/2000/svg">
<rect x="16.5" y="10.5" width="167" height="123" rx="3.5" fill="#1E2022" stroke="#4B5055"/>
<path d="M17 14C17 12.3431 18.3431 11 20 11H180C181.657 11 183 12.3431 183 14V20H17V14Z" fill="#25282A"/>
<circle cx="21.5" cy="15.5" r="1.5" fill="#ED6B5F"/>
<circle cx="27.5" cy="15.5" r="1.5" fill="#F7D289"/>
<circle cx="33.5" cy="15.5" r="1.5" fill="#61C454"/>
<rect x="17" y="28" width="166" height="7" fill="#25282A"/>
<rect x="25" y="30" width="10" height="3" rx="1.5" fill="#4B5055"/>
<rect x="39" y="30" width="10" height="3" rx="1.5" fill="#4B5055"/>
<rect x="53" y="30" width="10" height="3" rx="1.5" fill="#4B5055"/>
<rect x="67" y="30" width="10" height="3" rx="1.5" fill="#4B5055"/>
<rect x="81" y="30" width="10" height="3" rx="1.5" fill="#4B5055"/>
<rect x="95" y="30" width="10" height="3" rx="1.5" fill="#4B5055"/>
<rect x="17" y="20" width="166" height="1" fill="#4B5055"/>
<rect x="17" y="35" width="166" height="1" fill="#4B5055"/>
<rect x="17" y="21" width="166" height="7" fill="#17181A"/>
<rect x="173" y="23" width="3" height="3" rx="1.5" fill="#4B5055"/>
<rect x="167" y="23" width="3" height="3" rx="1.5" fill="#4B5055"/>
<rect x="161" y="23" width="3" height="3" rx="1.5" fill="#4B5055"/>
<rect x="155" y="23" width="3" height="3" rx="1.5" fill="#4B5055"/>
<rect x="45" y="23" width="17" height="3" rx="1.5" fill="#4B5055"/>
<rect x="25" y="23" width="13" height="3" rx="1.5" fill="#25282A"/>
</svg>
