<svg width="200" height="144" viewBox="0 0 200 144" fill="none" xmlns="http://www.w3.org/2000/svg">
<rect x="16.5" y="10.5" width="167" height="123" rx="3.5" fill="#1E2022" stroke="#4B5055"/>
<path d="M17 14C17 12.3431 18.3431 11 20 11H180C181.657 11 183 12.3431 183 14V20H17V14Z" fill="#25282A"/>
<circle cx="21.5" cy="15.5" r="1.5" fill="#ED6B5F"/>
<circle cx="27.5" cy="15.5" r="1.5" fill="#F7D289"/>
<circle cx="33.5" cy="15.5" r="1.5" fill="#61C454"/>
<path d="M17 21H31V133H20C18.3431 133 17 131.657 17 130V21Z" fill="#25282A"/>
<rect x="22" y="56" width="4" height="4" rx="2" fill="#4B5055"/>
<rect x="22" y="65" width="4" height="4" rx="2" fill="#4B5055"/>
<rect x="22" y="75" width="4" height="4" rx="2" fill="#4B5055"/>
<rect x="22" y="85" width="4" height="4" rx="2" fill="#4B5055"/>
<rect x="22" y="95" width="4" height="4" rx="2" fill="#4B5055"/>
<rect x="17" y="118" width="14" height="1" fill="#4B5055"/>
<rect x="22" y="124" width="4" height="4" rx="2" fill="#4B5055"/>
<rect x="22" y="47" width="4" height="4" rx="2" fill="#4B5055"/>
<rect x="22" y="38" width="4" height="4" rx="2" fill="#4B5055"/>
<rect x="20" y="24" width="8" height="5" rx="2.5" fill="white"/>
<rect x="17" y="20" width="166" height="1" fill="#4B5055"/>
<rect x="31" y="21" width="1" height="112" fill="#4B5055"/>
</svg>
