<svg width="200" height="144" viewBox="0 0 200 144" fill="none" xmlns="http://www.w3.org/2000/svg">
<rect x="16.5" y="10.5" width="167" height="123" rx="3.5" fill="#1E2022" stroke="#4B5055"/>
<rect x="31" y="21" width="44" height="112" fill="#25282A"/>
<path d="M17 14C17 12.3431 18.3431 11 20 11H180C181.657 11 183 12.3431 183 14V20H17V14Z" fill="#25282A"/>
<circle cx="21.5" cy="15.5" r="1.5" fill="#ED6B5F"/>
<circle cx="27.5" cy="15.5" r="1.5" fill="#F7D289"/>
<circle cx="33.5" cy="15.5" r="1.5" fill="#61C454"/>
<path d="M17 21H31V133H20C18.3431 133 17 131.657 17 130V21Z" fill="#17181A"/>
<rect x="22" y="56" width="4" height="4" rx="2" fill="#4B5055"/>
<rect x="22" y="65" width="4" height="4" rx="2" fill="#4B5055"/>
<rect x="22" y="75" width="4" height="4" rx="2" fill="#4B5055"/>
<rect x="22" y="85" width="4" height="4" rx="2" fill="#4B5055"/>
<rect x="17" y="118" width="14" height="1" fill="#D9DDEA" fill-opacity="0.4"/>
<rect x="22" y="124" width="4" height="4" rx="2" fill="#4B5055"/>
<rect x="22" y="47" width="4" height="4" rx="2" fill="#4B5055"/>
<rect x="22" y="38" width="4" height="4" rx="2" fill="#4B5055"/>
<rect x="20" y="24" width="8" height="5" rx="2.5" fill="#25282A"/>
<rect x="22" y="95" width="4" height="4" rx="2" fill="#4B5055"/>
<rect x="17" y="20" width="166" height="1" fill="#4B5055"/>
<path d="M58.5 65H40.5C39.6716 65 39 65.6716 39 66.5C39 67.3284 39.6716 68 40.5 68H58.5C59.3284 68 60 67.3284 60 66.5C60 65.6716 59.3284 65 58.5 65Z" fill="#4B5055"/>
<path d="M60.5 74H40.5C39.6716 74 39 74.6716 39 75.5C39 76.3284 39.6716 77 40.5 77H60.5C61.3284 77 62 76.3284 62 75.5C62 74.6716 61.3284 74 60.5 74Z" fill="#4B5055"/>
<path d="M47.5 84H40.5C39.6716 84 39 84.6716 39 85.5C39 86.3284 39.6716 87 40.5 87H47.5C48.3284 87 49 86.3284 49 85.5C49 84.6716 48.3284 84 47.5 84Z" fill="#4B5055"/>
<path d="M53.5 94H40.5C39.6716 94 39 94.6716 39 95.5C39 96.3284 39.6716 97 40.5 97H53.5C54.3284 97 55 96.3284 55 95.5C55 94.6716 54.3284 94 53.5 94Z" fill="#4B5055"/>
<path d="M65.5 104H40.5C39.6716 104 39 104.672 39 105.5C39 106.328 39.6716 107 40.5 107H65.5C66.3284 107 67 106.328 67 105.5C67 104.672 66.3284 104 65.5 104Z" fill="#4B5055"/>
<path d="M75 118H31V119H75V118Z" fill="#4B5055"/>
<path d="M45 126C45 124.895 44.1046 124 43 124C41.8954 124 41 124.895 41 126C41 127.105 41.8954 128 43 128C44.1046 128 45 127.105 45 126Z" fill="#4B5055"/>
<path d="M55 126C55 124.895 54.1046 124 53 124C51.8954 124 51 124.895 51 126C51 127.105 51.8954 128 53 128C54.1046 128 55 127.105 55 126Z" fill="#4B5055"/>
<path d="M65 126C65 124.895 64.1046 124 63 124C61.8954 124 61 124.895 61 126C61 127.105 61.8954 128 63 128C64.1046 128 65 127.105 65 126Z" fill="#4B5055"/>
<path d="M63.5 56H40.5C39.6716 56 39 56.6716 39 57.5C39 58.3284 39.6716 59 40.5 59H63.5C64.3284 59 65 58.3284 65 57.5C65 56.6716 64.3284 56 63.5 56Z" fill="#4B5055"/>
<path d="M58.5 47H40.5C39.6716 47 39 47.6716 39 48.5C39 49.3284 39.6716 50 40.5 50H58.5C59.3284 50 60 49.3284 60 48.5C60 47.6716 59.3284 47 58.5 47Z" fill="#4B5055"/>
<path d="M58.5 38H40.5C39.6716 38 39 38.6716 39 39.5C39 40.3284 39.6716 41 40.5 41H58.5C59.3284 41 60 40.3284 60 39.5C60 38.6716 59.3284 38 58.5 38Z" fill="#4B5055"/>
<path d="M58.5 29H40.5C39.6716 29 39 29.6716 39 30.5C39 31.3284 39.6716 32 40.5 32H58.5C59.3284 32 60 31.3284 60 30.5C60 29.6716 59.3284 29 58.5 29Z" fill="#4B5055"/>
<path d="M76 21H75V133H76V21Z" fill="#4B5055"/>
</svg>
