<svg width="400" height="196" viewBox="0 0 400 196" fill="none" xmlns="http://www.w3.org/2000/svg">
<g clip-path="url(#clip0)">
<path fill-rule="evenodd" clip-rule="evenodd" d="M149.75 48.25C161.25 52.75 172.75 57.5 184 63C148.25 77.25 113.5 94.5 80.5 114.5C69.25 108.75 57.75 103 46.25 98C79.5 78.5 114 62 149.75 48.25ZM107 33.25C70 45 34.25 60.25 0 79C10.75 83.25 21.75 87.25 32.25 91.75C65.25 72.25 100 56 136 43.25C126.5 39.5 117 36 107 33.25Z" fill="#2267AD"/>
<path fill-rule="evenodd" clip-rule="evenodd" d="M376.25 103.5C377 105.5 378.5 106 380 106C381 106 382 106 382.5 105.25C383 104.75 383.25 104.25 383.25 103.75C383.25 102.5 382.25 101.75 381 101.75L378.75 101C378 100.75 377.25 100.75 376.5 100C375.75 99.25 375.5 98.5 375.5 97.5C375.5 95 377.75 94 380 94C382 94 383.75 95 384.5 97.25L383 97.5C383 96.25 381.5 95.25 379.75 95.25C378.75 95.25 377.25 96 377.25 97.25C377.25 98.75 378.25 99.25 379.5 99.5L381.5 99.75C382.5 100 383.5 100.5 384 100.75C384.75 101.75 385 102.25 385 103.75C385 104.75 384.75 106 383.75 106.75C382.75 107.5 381.5 107.75 380.25 107.75C377.75 107.75 376 106.5 375.25 104L376.25 103.5ZM388.75 107.25H387.5V94.5H389.75L394 104.75L397.5 94.5H400V107.25H398.5V96L394.25 107.25H393L388.75 96V107.25ZM227.5 46.75C198.25 32.5 167.75 20.75 136.75 11.25C125.5 14.5 114.75 18 104.25 21.5C136.25 31 167.25 43 197.5 57.5C207.25 53.75 217.25 50.25 227.5 46.75ZM275 32.5C245.25 19.5 214.5 8.75 182.75 0C172.5 2 162.5 4.25 152.75 6.75C184 16 214.75 27.5 244 41.5C254.25 38.25 264.75 35.25 275 32.5ZM351.75 58.25C276.75 83.5 206.5 119.5 142.75 164.75C158.75 174.75 174 185 189 196C249.5 148 316.25 108.5 387.5 78.75C375.75 71.25 364 64.5 351.75 58.25ZM300 33.75C222 54.25 149 87.5 82.75 131.5C97.5 138.75 112.25 146.5 126.5 154.75C191.5 110.25 263.25 75 340 52C326.75 45.75 313.75 39.25 300 33.75Z" fill="#CD2E29"/>
</g>
<defs>
<clipPath id="clip0">
<rect width="400" height="195.75" fill="white"/>
</clipPath>
</defs>
</svg>
