<svg width="400" height="392" viewBox="0 0 400 392" fill="none" xmlns="http://www.w3.org/2000/svg">
<g clip-path="url(#clip0)">
<path fill-rule="evenodd" clip-rule="evenodd" d="M400 75C400 33.5 366.25 0 325 0H75C33.75 0 0 33.75 0 75V316C0 357.5 33.75 391 75 391H325C366.5 391 400 357.25 400 316V75Z" fill="#0C3B7C"/>
<path fill-rule="evenodd" clip-rule="evenodd" d="M0 243H199.75V391.25H0V243Z" fill="#0C3B7C"/>
<path d="M181.75 259H149.5V220.5C149.5 212.25 152.75 208 159.75 207H181.75C197.5 207 207.5 217 207.5 233C207.5 249.25 197.75 259 181.75 259ZM149.5 155V145C149.5 136.25 153.25 132 161.5 131.25H178C192.25 131.25 200.5 139.75 200.5 153.75C200.5 164.5 194.75 177.25 178.5 177.25H149.5V155ZM223 193.5L217.25 190.25L222.25 186C228.25 181 238 169.5 238 149.75C238 119.5 214.5 100 178.25 100H137H132.25C121.5 100.5 113 109.25 112.75 120V291.5H179.25C219.5 291.5 245.5 269.5 245.5 235.5C245.5 217 237 201.5 223 193.5Z" fill="white"/>
<path d="M262.75 267.75C262.75 254.75 273.25 244 286.25 244C299.25 244 310 254.5 310 267.75C310 280.75 299.5 291.5 286.25 291.5C273.25 291.25 262.75 280.75 262.75 267.75Z" fill="#00BAFC"/>
</g>
<defs>
<clipPath id="clip0">
<rect width="400" height="391.25" fill="white"/>
</clipPath>
</defs>
</svg>
