<svg width="400" height="319" viewBox="0 0 400 319" fill="none" xmlns="http://www.w3.org/2000/svg">
<g clip-path="url(#clip0)">
<path fill-rule="evenodd" clip-rule="evenodd" d="M83.0813 0.0380859C60.2578 0.0380859 43.3695 20.0146 44.1258 41.6787C44.8516 62.492 43.9086 89.4482 37.1227 111.431C30.3125 133.476 18.8031 147.445 0 149.238V169.482C18.8031 171.279 30.3125 185.241 37.1219 207.289C43.9086 229.272 44.8508 256.228 44.125 277.041C43.3687 298.702 60.257 318.682 83.0844 318.682H316.949C339.773 318.682 356.658 298.705 355.902 277.041C355.176 256.228 356.119 229.272 362.905 207.289C369.715 185.241 381.196 171.273 400 169.482V149.238C381.197 147.441 369.716 133.479 362.905 111.431C356.118 89.4514 355.176 62.492 355.902 41.6787C356.658 20.0178 339.773 0.0380859 316.949 0.0380859H83.0781H83.0813ZM271.187 196.184C271.187 226.015 248.936 244.106 212.01 244.106H149.152C147.354 244.106 145.63 243.392 144.358 242.12C143.087 240.849 142.373 239.124 142.373 237.326V81.3943C142.373 79.5963 143.087 77.8718 144.358 76.6004C145.63 75.3289 147.354 74.6146 149.152 74.6146H211.652C242.442 74.6146 262.649 91.2928 262.649 116.899C262.649 134.872 249.055 150.962 231.737 153.78V154.718C255.312 157.304 271.187 173.632 271.187 196.184V196.184ZM205.156 96.1061H169.316V146.731H199.502C222.838 146.731 235.705 137.334 235.705 120.538C235.703 104.797 224.641 96.1061 205.156 96.1061ZM169.316 166.818V222.608H206.475C230.772 222.608 243.641 212.858 243.641 194.537C243.641 176.215 230.411 166.815 204.912 166.815H169.316V166.818Z" fill="#7952B3"/>
</g>
<defs>
<clipPath id="clip0">
<rect width="400" height="318.72" fill="white"/>
</clipPath>
</defs>
</svg>
