<svg width="400" height="402" viewBox="0 0 400 402" fill="none" xmlns="http://www.w3.org/2000/svg">
<path d="M199.67 0.0546512C199.67 0.0546512 317.358 -5.2266 379.753 113.067H189.656C189.656 113.067 153.781 111.911 123.136 155.433C114.333 173.7 104.87 192.517 115.489 229.602C100.192 203.686 34.2781 88.914 34.2781 88.914C34.2781 88.914 80.7703 4.73121 199.669 0.0546512H199.67Z" fill="#EF3F36"/>
<path d="M373.645 300.358C373.645 300.358 319.339 404.951 185.75 399.78C202.256 371.223 280.825 235.158 280.825 235.158C280.825 235.158 299.808 204.677 277.414 156.369C266.023 139.587 254.414 122.036 217.002 112.681C247.098 112.408 379.423 112.681 379.423 112.681C379.423 112.681 428.995 195.048 373.645 300.358Z" fill="#FCD900"/>
<path d="M26.5203 301.183C26.5203 301.183 -36.9188 201.87 34.3875 88.7484C50.8391 117.305 129.408 253.37 129.408 253.37C129.408 253.37 146.355 285.062 199.339 289.792C219.533 288.308 240.55 287.042 267.402 259.367C252.598 285.558 186.188 400 186.188 400C186.188 400 90.0125 401.761 26.5187 301.183H26.5203Z" fill="#61BC5B"/>
<path d="M185.695 400.77L212.434 289.189C212.434 289.189 241.816 286.877 266.466 259.863C251.169 286.769 185.695 400.77 185.695 400.77V400.77Z" fill="#5AB055"/>
<path d="M110.097 201.65C110.097 152.463 149.987 112.572 199.175 112.572C248.362 112.572 288.253 152.463 288.253 201.65C288.253 250.839 248.362 290.728 199.175 290.728C149.987 290.673 110.097 250.839 110.097 201.65V201.65Z" fill="white"/>
<path d="M125.006 201.65C125.006 160.716 158.184 127.483 199.175 127.483C240.109 127.483 273.342 160.661 273.342 201.65C273.342 242.586 240.166 275.819 199.175 275.819C158.239 275.819 125.006 242.586 125.006 201.65V201.65Z" fill="url(#paint0_linear)"/>
<path d="M379.367 112.737L269.27 145.034C269.27 145.034 252.655 120.659 216.947 112.737C247.923 112.572 379.367 112.737 379.367 112.737V112.737Z" fill="#EACA05"/>
<path d="M113.344 225.53C97.8813 198.734 34.2781 88.9141 34.2781 88.9141L115.819 169.574C115.819 169.574 107.455 186.795 110.592 211.444L113.342 225.53H113.344Z" fill="#DF3A32"/>
<defs>
<linearGradient id="paint0_linear" x1="199.171" y1="128.53" x2="199.171" y2="271.354" gradientUnits="userSpaceOnUse">
<stop stop-color="#86BBE5"/>
<stop offset="1" stop-color="#1072BA"/>
</linearGradient>
</defs>
</svg>
