<svg width="400" height="401" viewBox="0 0 400 401" fill="none" xmlns="http://www.w3.org/2000/svg">
<g clip-path="url(#clip0)">
<path fill-rule="evenodd" clip-rule="evenodd" d="M200.125 400.25V322.702C282.176 322.702 345.966 241.401 314.447 154.847C302.689 122.827 277.423 97.3108 245.153 85.5535C158.849 54.2839 77.2983 117.824 77.2983 199.875H0C0 69.0432 126.579 -33.0206 263.665 10.0063C323.452 28.768 371.482 76.5479 389.994 136.335C433.021 273.671 331.207 400.25 200.125 400.25Z" fill="#0080FF"/>
<path fill-rule="evenodd" clip-rule="evenodd" d="M123.077 322.952H200.125V245.904H123.077V322.952ZM63.7898 382.239H123.327V322.702H63.7898V382.239ZM14.0087 322.952H63.7898V273.171H14.0087V322.952Z" fill="#0080FF"/>
</g>
<defs>
<clipPath id="clip0">
<rect width="400" height="400.25" fill="white"/>
</clipPath>
</defs>
</svg>
