<svg width="400" height="339" viewBox="0 0 400 339" fill="none" xmlns="http://www.w3.org/2000/svg">
<g clip-path="url(#clip0)">
<path d="M354.25 249.75H219C216.75 249.75 214.75 250.5 213 251.75L112.25 331.75C109.75 333.75 111 338 114.5 338H355.75C379.5 338 401 316.5 399.25 290.75C397.75 267.5 377.75 249.75 354.25 249.75Z" fill="#00C9DB"/>
<path d="M244.75 166.25V166C244 154 238.25 142.25 228 134.25L71.25 9.25C52 -5.75 24.5 -2.25 9.5 16.75C-5.5 35.75 -2.25 63.5 17 78.5L130.75 168.75L16.75 259.25C-2.5 274.25 -5.75 301.75 9.25 321C24.25 340.25 52 343.5 71 328.5L227.75 203.75C238 195.75 243.75 184 244.5 172V171.75C244.5 170.75 244.5 170 244.5 169C245 168 244.75 167 244.75 166.25Z" fill="#0D55FF"/>
<path d="M400 294C400 318.5 380.25 338.25 355.75 338.25C331.25 338.25 311.5 318.5 311.5 294C311.5 269.5 331.25 249.75 355.75 249.75C380.25 249.75 400 269.5 400 294Z" fill="#7000F2"/>
</g>
<defs>
<clipPath id="clip0">
<rect width="400" height="338.25" fill="white"/>
</clipPath>
</defs>
</svg>
