<svg width="400" height="525" viewBox="0 0 400 525" fill="none" xmlns="http://www.w3.org/2000/svg">
<path d="M362.5 525H37.5C16.75 525 0 508.25 0 487.5V37.5C0 16.75 16.75 0 37.5 0H275L400 125V487.5C400 508.25 383.25 525 362.5 525Z" fill="#FFC107"/>
<path d="M400 125H275V0L400 125Z" fill="#FFECB3"/>
<path d="M275 125L400 250V125H275Z" fill="#FFA000"/>
<path d="M275 237.5H125C111.25 237.5 100 248.75 100 262.5V412.5C100 426.25 111.25 437.5 125 437.5H275C288.75 437.5 300 426.25 300 412.5V262.5C300 248.75 288.75 237.5 275 237.5ZM275 287.5V387.5H125V287.5H275Z" fill="white"/>
</svg>
