<svg width="400" height="400" viewBox="0 0 400 400" fill="none" xmlns="http://www.w3.org/2000/svg">
<path fill-rule="evenodd" clip-rule="evenodd" d="M355 400H45C20.25 400 0 380 0 355V45C0 20 20 0 45 0H355C379.75 0 400 20 400 45V355C400 380 380 400 355 400Z" fill="#3546F5"/>
<path fill-rule="evenodd" clip-rule="evenodd" d="M214.75 221.25L202.75 212.25C202.25 211.75 201.5 211.75 200.75 212.25L188.75 221C188.5 221.25 188.25 221.5 188.25 222V318C188.25 318.5 188.5 318.75 189 318.75H214.25C214.75 318.75 215 318.5 215 318V222.25C215.25 221.75 215 221.5 214.75 221.25Z" fill="#8CECFD"/>
<path fill-rule="evenodd" clip-rule="evenodd" d="M195.25 82.4998L82.5 166.25C81 167.5 80 169 80 171V318.25C80 318.75 80.25 319 80.75 319H106C106.5 319 106.75 318.75 106.75 318.25V183.75C106.75 182.25 107.5 180.75 108.75 180L197 114.5C198.75 113.25 201.25 113.25 203 114.5L291.25 180C292.5 181 293.25 182.25 293.25 183.75V318.25C293.25 318.75 293.5 319 294 319H319.25C319.75 319 320 318.75 320 318.25V171C320 169 319 167.5 317.5 166.25L204.5 82.4998C201.75 80.4998 198 80.4998 195.25 82.4998Z" fill="#8CECFD"/>
<path fill-rule="evenodd" clip-rule="evenodd" d="M135.249 196V318.25C135.249 318.75 135.499 319 135.999 319H161.249C161.749 319 161.999 318.75 161.999 318.25V209.25C161.999 208.5 162.249 208 162.749 207.5L200.499 179.25C201.249 178.75 202.249 178.75 202.999 179.25L240.999 207.5C241.499 208 241.749 208.5 241.749 209.25V318.25C241.749 318.75 241.999 319 242.499 319H267.749C268.249 319 268.499 318.75 268.499 318.25V196C268.499 195.25 268.249 194.5 267.499 194L203.999 147C202.749 146 200.999 146 199.749 147L136.249 194.25C135.749 194.5 135.249 195.25 135.249 196Z" fill="#8CECFD"/>
</svg>
