<?xml version="1.0" standalone="no"?>
<!DOCTYPE svg PUBLIC "-//W3C//DTD SVG 20010904//EN"
 "http://www.w3.org/TR/2001/REC-SVG-20010904/DTD/svg10.dtd">
<svg version="1.0" xmlns="http://www.w3.org/2000/svg"
 width="128.000000pt" height="128.000000pt" viewBox="0 0 128.000000 128.000000"
 preserveAspectRatio="xMidYMid meet">

<g transform="translate(0.000000,128.000000) scale(0.100000,-0.100000)"
fill="#000000" stroke="none">
<path d="M0 640 l0 -640 113 0 c110 1 111 1 85 18 -58 35 -59 44 -56 477 l3
397 38 34 c23 21 37 43 37 58 0 24 23 56 40 56 17 0 40 -32 40 -56 0 -22 4
-24 45 -24 l45 0 0 49 c0 95 62 97 68 2 l3 -51 80 0 79 0 0 148 c0 102 4 152
12 160 9 9 -60 12 -310 12 l-322 0 0 -640z"/>
<path d="M688 1268 c8 -8 12 -58 12 -160 l0 -148 38 -34 37 -34 3 -397 c3
-434 1 -448 -57 -480 -23 -13 8 -14 267 -15 l292 0 0 640 0 640 -302 0 c-235
0 -299 -3 -290 -12z"/>
<path d="M316 784 c-23 -22 -23 -186 0 -208 23 -23 265 -23 288 0 23 22 23
186 0 208 -23 23 -265 23 -288 0z m224 -104 l0 -40 -80 0 -80 0 0 40 0 40 80
0 80 0 0 -40z"/>
<path d="M316 384 c-20 -19 -20 -29 0 -48 23 -23 265 -23 288 0 20 19 20 29 0
48 -23 23 -265 23 -288 0z"/>
<path d="M356 224 c-9 -8 -16 -19 -16 -24 0 -5 7 -16 16 -24 22 -23 186 -23
208 0 20 19 20 29 0 48 -12 12 -37 16 -104 16 -67 0 -92 -4 -104 -16z"/>
</g>
</svg>
