<svg width="200" height="144" viewBox="0 0 200 144" fill="none" xmlns="http://www.w3.org/2000/svg">
<path d="M196 0H4C1.79086 0 0 1.79086 0 4V140C0 142.209 1.79086 144 4 144H196C198.209 144 200 142.209 200 140V4C200 1.79086 198.209 0 196 0Z" fill="#1E2022"/>
<rect x="43.5" y="48.5" width="112" height="19" rx="3.5" stroke="#D9DDEA"/>
<rect x="43.5" y="75.5" width="112" height="19" rx="3.5" stroke="#D9DDEA"/>
<path d="M148.019 87.4285C149.295 86.29 150 85 150 85C150 85 147.75 80.875 144 80.875C143.28 80.8775 142.568 81.0276 141.908 81.316L142.485 81.8942C142.971 81.7174 143.483 81.6263 144 81.625C145.59 81.625 146.909 82.501 147.876 83.4677C148.341 83.9355 148.758 84.4488 149.121 85C149.078 85.0652 149.03 85.1372 148.975 85.216C148.724 85.576 148.352 86.056 147.876 86.5323C147.752 86.656 147.623 86.7783 147.488 86.8968L148.019 87.4285Z" fill="#D9DDEA"/>
<path d="M146.473 85.8818C146.64 85.4137 146.671 84.9076 146.562 84.4226C146.453 83.9375 146.209 83.4934 145.857 83.1419C145.506 82.7904 145.061 82.5459 144.576 82.4369C144.091 82.3279 143.585 82.3589 143.117 82.5263L143.734 83.1435C144.023 83.1023 144.317 83.1287 144.593 83.2207C144.869 83.3128 145.12 83.4679 145.326 83.6738C145.532 83.8797 145.687 84.1307 145.779 84.4069C145.871 84.6832 145.897 84.977 145.856 85.2653L146.473 85.8818ZM144.265 86.856L144.882 87.4725C144.414 87.6399 143.908 87.6709 143.423 87.5619C142.938 87.4529 142.494 87.2084 142.142 86.8569C141.791 86.5054 141.546 86.0613 141.437 85.5762C141.328 85.0912 141.359 84.5851 141.526 84.117L142.144 84.7343C142.102 85.0225 142.129 85.3164 142.221 85.5926C142.313 85.8689 142.468 86.1199 142.674 86.3258C142.88 86.5317 143.131 86.6868 143.407 86.7788C143.683 86.8708 143.977 86.8973 144.265 86.856Z" fill="#D9DDEA"/>
<path d="M140.512 83.1024C140.377 83.2224 140.248 83.3439 140.124 83.4676C139.659 83.9354 139.242 84.4487 138.879 84.9999L139.025 85.2159C139.276 85.5759 139.648 86.0559 140.124 86.5321C141.091 87.4989 142.411 88.3749 144 88.3749C144.537 88.3749 145.043 88.2751 145.515 88.1049L146.092 88.6839C145.432 88.9723 144.72 89.1224 144 89.1249C140.25 89.1249 138 84.9999 138 84.9999C138 84.9999 138.704 83.7091 139.981 82.5714L140.512 83.1031L140.512 83.1024ZM148.234 89.7654L139.235 80.7654L139.766 80.2344L148.766 89.2344L148.234 89.7654Z" fill="#D9DDEA"/>
<path d="M150 58C150 58 147.75 53.875 144 53.875C140.25 53.875 138 58 138 58C138 58 140.25 62.125 144 62.125C147.75 62.125 150 58 150 58ZM138.88 58C139.242 57.4488 139.659 56.9355 140.125 56.4677C141.09 55.501 142.41 54.625 144 54.625C145.59 54.625 146.909 55.501 147.876 56.4677C148.341 56.9355 148.758 57.4488 149.121 58C149.078 58.0652 149.03 58.1372 148.975 58.216C148.724 58.576 148.352 59.056 147.876 59.5323C146.909 60.499 145.589 61.375 144 61.375C142.41 61.375 141.091 60.499 140.124 59.5323C139.659 59.0645 139.242 58.5512 138.879 58H138.88Z" fill="#D9DDEA"/>
<path d="M144 56.125C143.503 56.125 143.026 56.3225 142.674 56.6742C142.323 57.0258 142.125 57.5027 142.125 58C142.125 58.4973 142.323 58.9742 142.674 59.3258C143.026 59.6775 143.503 59.875 144 59.875C144.497 59.875 144.974 59.6775 145.326 59.3258C145.677 58.9742 145.875 58.4973 145.875 58C145.875 57.5027 145.677 57.0258 145.326 56.6742C144.974 56.3225 144.497 56.125 144 56.125ZM141.375 58C141.375 57.3038 141.652 56.6361 142.144 56.1438C142.636 55.6516 143.304 55.375 144 55.375C144.696 55.375 145.364 55.6516 145.856 56.1438C146.348 56.6361 146.625 57.3038 146.625 58C146.625 58.6962 146.348 59.3639 145.856 59.8562C145.364 60.3484 144.696 60.625 144 60.625C143.304 60.625 142.636 60.3484 142.144 59.8562C141.652 59.3639 141.375 58.6962 141.375 58Z" fill="#D9DDEA"/>
<rect x="50" y="55" width="63" height="6" rx="3" fill="#D9DDEA"/>
<circle cx="53" cy="85" r="3" fill="#D9DDEA"/>
<circle cx="62" cy="85" r="3" fill="#D9DDEA"/>
<circle cx="71" cy="85" r="3" fill="#D9DDEA"/>
<circle cx="80" cy="85" r="3" fill="#D9DDEA"/>
<circle cx="89" cy="85" r="3" fill="#D9DDEA"/>
<circle cx="98" cy="85" r="3" fill="#D9DDEA"/>
<circle cx="107" cy="85" r="3" fill="#D9DDEA"/>
</svg>
