<svg width="200" height="144" viewBox="0 0 200 144" fill="none" xmlns="http://www.w3.org/2000/svg">
<path d="M196 0H4C1.79086 0 0 1.79086 0 4V140C0 142.209 1.79086 144 4 144H196C198.209 144 200 142.209 200 140V4C200 1.79086 198.209 0 196 0Z" fill="#1E2022"/>
<path d="M124 71.873L123.975 70.8455V51.4221L118.605 56.792C114.211 51.4123 107.525 47.9766 100.038 47.9766C92.2375 47.9766 85.3211 51.6966 80.9441 57.4565L89.746 66.3515C90.6079 64.7594 91.8286 63.3897 93.3115 62.351C94.849 61.151 97.0255 60.1715 100.038 60.1715C100.401 60.1715 100.683 60.2143 100.889 60.2938C104.621 60.5885 107.855 62.6488 109.76 65.6368L103.53 71.867L124 71.8715" fill="#546578"/>
<path d="M99.8965 47.9775L98.869 48.0023H79.4455L84.8155 53.3723C79.435 57.7673 76 64.452 76 71.9415C76 79.7415 79.72 86.658 85.48 91.035L94.375 82.233C92.7828 81.3711 91.4132 80.1504 90.3745 78.6675C89.1745 77.13 88.195 74.9535 88.195 71.9415C88.195 71.5778 88.2378 71.2965 88.3173 71.0903C88.612 67.3583 90.6723 64.1243 93.6603 62.2193L99.8905 68.4495L99.895 47.9783" fill="#71869D"/>
<path d="M76.0008 71.9404L76.0255 72.9679V92.3914L81.3955 87.0214C85.7905 92.4011 92.476 95.8369 99.9655 95.8369C107.765 95.8369 114.682 92.1169 119.059 86.3569L110.257 77.4619C109.395 79.0541 108.174 80.4237 106.691 81.4624C105.154 82.6624 102.977 83.6419 99.9655 83.6419C99.6017 83.6419 99.3205 83.5992 99.1142 83.5197C95.3822 83.2249 92.1482 81.1647 90.2432 78.1767L96.4735 71.9464C88.582 71.9764 79.6735 71.9959 76.0023 71.9427" fill="#3D4145"/>
</svg>
