<svg width="200" height="144" viewBox="0 0 200 144" fill="none" xmlns="http://www.w3.org/2000/svg">
<path d="M196 0H4C1.79086 0 0 1.79086 0 4V140C0 142.209 1.79086 144 4 144H196C198.209 144 200 142.209 200 140V4C200 1.79086 198.209 0 196 0Z" fill="#1E2022"/>
<rect x="32.5" y="73.5" width="112" height="19" rx="3.5" stroke="#D9DDEA"/>
<rect x="133" y="77" width="8" height="12" rx="2" fill="#D9DDEA"/>
<rect x="37" y="78" width="54" height="10" rx="2" fill="#D9DDEA"/>
<path d="M108.277 51H165.723C166.433 51 167 51.2458 167 51.5531V64.3358C167 64.6431 166.433 64.8889 165.723 64.8889H108.277C107.567 64.8889 107 64.6431 107 64.3358V51.5531C107 51.2458 107.567 51 108.277 51Z" fill="#71869D"/>
<path d="M119.023 56.5557H154.977C155.484 56.5557 155.889 57.1729 155.889 57.9446C155.889 58.7162 155.484 59.3334 154.977 59.3334H119.023C118.516 59.3334 118.111 58.7162 118.111 57.9446C118.111 57.1729 118.516 56.5557 119.023 56.5557Z" fill="#D9DDEA"/>
<path d="M136.73 68.6189L133.042 64.8457H141.03C141.158 64.8457 141.215 65.0023 141.129 65.0878L137.669 68.6189C137.413 68.8894 136.986 68.8894 136.73 68.6189Z" fill="#71869D"/>
</svg>
