<svg width="200" height="144" viewBox="0 0 200 144" fill="none" xmlns="http://www.w3.org/2000/svg">
<path d="M196 0H4C1.79086 0 0 1.79086 0 4V140C0 142.209 1.79086 144 4 144H196C198.209 144 200 142.209 200 140V4C200 1.79086 198.209 0 196 0Z" fill="#1E2022"/>
<path d="M154 16H45C42.7909 16 41 17.7909 41 20V74C41 76.2091 42.7909 78 45 78H154C156.209 78 158 76.2091 158 74V20C158 17.7909 156.209 16 154 16Z" fill="#3D4145"/>
<path d="M154 88H45C42.7909 88 41 89.7909 41 92V124C41 126.209 42.7909 128 45 128H154C156.209 128 158 126.209 158 124V92C158 89.7909 156.209 88 154 88Z" fill="#3D4145"/>
<path d="M184 122C184 118.686 181.314 116 178 116C174.686 116 172 118.686 172 122C172 125.314 174.686 128 178 128C181.314 128 184 125.314 184 122Z" fill="#71869D"/>
</svg>
