<svg width="200" height="144" viewBox="0 0 200 144" fill="none" xmlns="http://www.w3.org/2000/svg">
<path d="M196 0H4C1.79086 0 0 1.79086 0 4V140C0 142.209 1.79086 144 4 144H196C198.209 144 200 142.209 200 140V4C200 1.79086 198.209 0 196 0Z" fill="#1E2022"/>
<rect x="16.7295" y="36.7295" width="166.541" height="69.5411" rx="5.1062" stroke="#E7EAF3" stroke-width="1.45892"/>
<path d="M0 4C0 1.79086 1.79086 0 4 0H196C198.209 0 200 1.79086 200 4V18H0V4Z" fill="#71869D"/>
<rect x="25.0126" y="6.75977" width="14.5892" height="3.37975" rx="1.68987" fill="#D9DDEA"/>
<rect x="81.3417" y="6.75977" width="14.5892" height="3.37975" rx="1.68987" fill="#D9DDEA"/>
<rect x="107.253" y="6.75977" width="14.5892" height="3.37975" rx="1.68987" fill="#D9DDEA"/>
<rect x="133.165" y="6.75977" width="14.5892" height="3.37975" rx="1.68987" fill="#D9DDEA"/>
<rect x="24.519" y="42.7847" width="35.014" height="3.37975" rx="1.68987" fill="#D9DDEA"/>
<rect x="80.8481" y="42.7847" width="14.5892" height="3.37975" rx="1.68987" fill="#D9DDEA"/>
<rect x="106.76" y="42.7847" width="14.5892" height="3.37975" rx="1.68987" fill="#D9DDEA"/>
<rect x="132.671" y="42.7847" width="14.5892" height="3.37975" rx="1.68987" fill="#D9DDEA"/>
<rect x="158.582" y="42.7847" width="9.01266" height="3.37975" rx="1.68987" fill="#D9DDEA"/>
<rect x="24.519" y="60.8101" width="35.014" height="3.37975" rx="1.68987" fill="#D9DDEA"/>
<rect x="80.8481" y="60.8101" width="14.5892" height="3.37975" rx="1.68987" fill="#D9DDEA"/>
<rect x="106.76" y="60.8101" width="14.5892" height="3.37975" rx="1.68987" fill="#D9DDEA"/>
<rect x="132.671" y="60.8101" width="14.5892" height="3.37975" rx="1.68987" fill="#D9DDEA"/>
<rect x="158.582" y="60.8101" width="9.01266" height="3.37975" rx="1.68987" fill="#D9DDEA"/>
<rect x="24.519" y="78.8354" width="35.014" height="3.37975" rx="1.68987" fill="#D9DDEA"/>
<rect x="80.8481" y="78.8354" width="14.5892" height="3.37975" rx="1.68987" fill="#D9DDEA"/>
<rect x="106.76" y="78.8354" width="14.5892" height="3.37975" rx="1.68987" fill="#D9DDEA"/>
<rect x="132.671" y="78.8354" width="14.5892" height="3.37975" rx="1.68987" fill="#D9DDEA"/>
<rect x="158.582" y="78.8354" width="9.01266" height="3.37975" rx="1.68987" fill="#D9DDEA"/>
<rect x="24.519" y="96.8608" width="35.014" height="3.37975" rx="1.68987" fill="#D9DDEA"/>
<rect x="80.8481" y="96.8608" width="14.5892" height="3.37975" rx="1.68987" fill="#D9DDEA"/>
<rect x="106.76" y="96.8608" width="14.5892" height="3.37975" rx="1.68987" fill="#D9DDEA"/>
<rect x="132.671" y="96.8608" width="14.5892" height="3.37975" rx="1.68987" fill="#D9DDEA"/>
<rect x="158.582" y="96.8608" width="9.01266" height="3.37975" rx="1.68987" fill="#D9DDEA"/>
<rect x="16.6329" y="52.9238" width="166.734" height="1.12658" fill="#E7EAF3"/>
<rect x="16.6329" y="70.9492" width="166.734" height="1.12658" fill="#E7EAF3"/>
<rect x="16.6329" y="88.9746" width="166.734" height="1.12658" fill="#E7EAF3"/>
</svg>
