<svg width="200" height="144" viewBox="0 0 200 144" fill="none" xmlns="http://www.w3.org/2000/svg">
<path d="M196 0H4C1.79086 0 0 1.79086 0 4V140C0 142.209 1.79086 144 4 144H196C198.209 144 200 142.209 200 140V4C200 1.79086 198.209 0 196 0Z" fill="#1E2022"/>
<rect x="20.5" y="36.5" width="159" height="71" rx="3.5" fill="#1E2022" stroke="#D9DDEA"/>
<rect x="71" y="53" width="76.9111" height="5.80461" rx="2.90231" fill="#D9DDEA"/>
<rect x="71" y="66.0605" width="97.2272" height="5.80461" rx="2.90231" fill="#D9DDEA"/>
<rect x="33" y="91" width="135" height="6" rx="3" fill="#D9DDEA"/>
<path d="M33 61C33 68.732 39.268 75 47 75C54.732 75 61 68.732 61 61C61 53.268 54.732 47 47 47C39.268 47 33 53.268 33 61Z" fill="#D9DDEA"/>
<path d="M47 59.7748C49.0297 59.7748 50.675 58.1295 50.675 56.0998C50.675 54.0702 49.0297 52.4248 47 52.4248C44.9704 52.4248 43.325 54.0702 43.325 56.0998C43.325 58.1295 44.9704 59.7748 47 59.7748Z" fill="#71869D"/>
<path d="M53.895 66.1101C51.06 69.9251 45.6875 70.7126 41.8725 67.8951C41.19 67.3876 40.595 66.7926 40.0875 66.1101C39.8425 65.7426 39.8075 65.2701 40 64.8851L40.2625 64.3426C40.875 63.0476 42.17 62.2251 43.605 62.2251H50.4125C51.8125 62.2251 53.09 63.0301 53.72 64.2901L54 64.8676C54.175 65.2701 54.1575 65.7426 53.895 66.1101Z" fill="#71869D"/>
</svg>
