<svg width="200" height="144" viewBox="0 0 200 144" fill="none" xmlns="http://www.w3.org/2000/svg">
<g clip-path="url(#clip0_223:2)">
<path d="M196 0H4C1.79086 0 0 1.79086 0 4V140C0 142.209 1.79086 144 4 144H196C198.209 144 200 142.209 200 140V4C200 1.79086 198.209 0 196 0Z" fill="#1E2022"/>
<rect x="27" y="56" width="45" height="32" rx="4" fill="#3D4145"/>
<rect x="-23" y="56" width="45" height="32" rx="4" fill="#3D4145"/>
<rect x="77" y="56" width="45" height="32" rx="4" fill="#3D4145"/>
<rect x="127" y="56" width="45" height="32" rx="4" fill="#3D4145"/>
<rect x="177" y="56" width="45" height="32" rx="4" fill="#3D4145"/>
</g>
<defs>
<clipPath id="clip0_223:2">
<rect width="200" height="144" rx="4" fill="white"/>
</clipPath>
</defs>
</svg>
