<svg width="200" height="144" viewBox="0 0 200 144" fill="none" xmlns="http://www.w3.org/2000/svg">
<g clip-path="url(#clip0_328_2)">
<path d="M196 -2H4C1.79086 -2 0 -0.209139 0 2V138C0 140.209 1.79086 142 4 142H196C198.209 142 200 140.209 200 138V2C200 -0.209139 198.209 -2 196 -2Z" fill="#1E2022"/>
<rect x="43.5" y="38.5" width="104" height="19" rx="3.5" stroke="#D9DDEA" stroke-dasharray="3 3"/>
<rect x="52" y="30" width="105" height="20" rx="4" fill="#3D4145"/>
<rect x="43" y="66" width="105" height="20" rx="4" fill="#3D4145"/>
<rect x="43" y="94" width="105" height="20" rx="4" fill="#3D4145"/>
<path d="M67.9051 46.466V43.75C67.9051 43.2859 67.7208 42.8408 67.3926 42.5126C67.0644 42.1844 66.6193 42 66.1551 42C65.691 42 65.2459 42.1844 64.9177 42.5126C64.5895 42.8408 64.4051 43.2859 64.4051 43.75V49.09L63.2051 49.33C62.8373 49.4037 62.5105 49.6126 62.2891 49.9155C62.0677 50.2183 61.9678 50.5931 62.0091 50.966L62.3541 54.072C62.3985 54.469 62.5374 54.8497 62.7591 55.182L64.1921 57.332C64.3291 57.5375 64.5147 57.7059 64.7324 57.8225C64.9501 57.939 65.1932 58 65.4401 58H71.8251C72.0895 57.9999 72.3492 57.9299 72.5779 57.7972C72.8065 57.6644 72.996 57.4736 73.1271 57.244L74.5221 54.803C74.766 54.3763 74.9173 53.903 74.9661 53.414L75.2371 50.699C75.2649 50.421 75.2342 50.1402 75.1468 49.8748C75.0595 49.6094 74.9175 49.3652 74.73 49.158C74.5425 48.9508 74.3137 48.7852 74.0583 48.6719C73.8029 48.5586 73.5266 48.5 73.2471 48.5H72.6661C72.6037 48.4153 72.5387 48.3326 72.4711 48.252C72.2801 48.023 71.9611 47.684 71.5911 47.536C71.2271 47.39 70.7451 47.404 70.4331 47.428L70.3011 47.44C70.1947 47.1675 69.9967 46.9405 69.7411 46.798C69.5111 46.6653 69.2623 46.5682 69.0031 46.51C68.6931 46.448 68.2641 46.452 67.9531 46.464L67.9051 46.466Z" fill="#71869D"/>
</g>
<defs>
<clipPath id="clip0_328_2">
<rect width="200" height="144" fill="white"/>
</clipPath>
</defs>
</svg>
