<svg width="200" height="144" viewBox="0 0 200 144" fill="none" xmlns="http://www.w3.org/2000/svg">
<path d="M196 0H4C1.79086 0 0 1.79086 0 4V140C0 142.209 1.79086 144 4 144H196C198.209 144 200 142.209 200 140V4C200 1.79086 198.209 0 196 0Z" fill="#1E2022"/>
<rect x="73" y="60" width="95" height="24" rx="4" fill="#D9DDEA"/>
<path opacity="0.65" d="M44.5 81.2825C39.1196 81.2825 34.7174 76.9347 34.7174 71.4999C34.7174 66.1195 39.0652 61.7173 44.5 61.7173H50.6413C52.6522 61.7173 54.2826 63.3477 54.2826 65.3586V71.4999C54.2826 76.8803 49.8804 81.2825 44.5 81.2825Z" fill="#D9DDEA"/>
<path opacity="0.5" d="M47.2174 78.511C41.837 78.511 37.4348 74.1632 37.4348 68.7284C37.4348 63.348 41.7826 58.9458 47.2174 58.9458H53.3587C55.3696 59.0001 57 60.6306 57 62.5871V68.7827C57 74.1632 52.6522 78.511 47.2174 78.511Z" fill="#D9DDEA"/>
<path opacity="0.7" d="M41.7826 84.0003C36.3478 84.0003 32 79.6524 32 74.2177C32 68.8372 36.3478 64.4351 41.7826 64.4351H47.9239C49.9348 64.4351 51.5109 66.0655 51.5109 68.022V74.2177C51.5109 79.6524 47.163 84.0003 41.7826 84.0003Z" fill="#D9DDEA"/>
<path d="M41.4565 77.4784V68.9458H47V70.5219H43.5217V72.3697H46.1304V73.9458H43.5217V77.4784H41.4565Z" fill="#1E2022"/>
</svg>
