<svg width="200" height="144" viewBox="0 0 200 144" fill="none" xmlns="http://www.w3.org/2000/svg">
<path d="M196 0H4C1.79086 0 0 1.79086 0 4V140C0 142.209 1.79086 144 4 144H196C198.209 144 200 142.209 200 140V4C200 1.79086 198.209 0 196 0Z" fill="#1E2022"/>
<path d="M143 60H56C53.7909 60 52 61.7909 52 64V80C52 82.2091 53.7909 84 56 84H143C145.209 84 147 82.2091 147 80V64C147 61.7909 145.209 60 143 60Z" fill="#D9DDEA"/>
<path d="M125 68H74C71.7909 68 70 69.7909 70 72C70 74.2091 71.7909 76 74 76H125C127.209 76 129 74.2091 129 72C129 69.7909 127.209 68 125 68Z" fill="#71869D"/>
</svg>
