<svg width="200" height="144" viewBox="0 0 200 144" fill="none" xmlns="http://www.w3.org/2000/svg">
<path d="M196 0H4C1.79086 0 0 1.79086 0 4V140C0 142.209 1.79086 144 4 144H196C198.209 144 200 142.209 200 140V4C200 1.79086 198.209 0 196 0Z" fill="#1E2022"/>
<path d="M167.2 42H32.8C31.2536 42 30 43.0944 30 44.4444V127.556C30 128.906 31.2536 130 32.8 130H167.2C168.746 130 170 128.906 170 127.556V44.4444C170 43.0944 168.746 42 167.2 42Z" fill="#3D4145"/>
<rect x="36" y="48" width="128" height="24" rx="4" fill="#E5E9F2" fill-opacity="0.6"/>
<rect x="57" y="56" width="86" height="8" rx="4" fill="#D9DDEA"/>
<rect x="57" y="84" width="86" height="8" rx="4" fill="#D9DDEA"/>
<rect x="57" y="106" width="86" height="8" rx="4" fill="#D9DDEA"/>
<rect x="30.5" y="15.5" width="139" height="19" rx="3.5" fill="#3D4145" stroke="#D9DDEA"/>
</svg>
