<svg width="200" height="144" viewBox="0 0 200 144" fill="none" xmlns="http://www.w3.org/2000/svg">
<path d="M196 0H4C1.79086 0 0 1.79086 0 4V140C0 142.209 1.79086 144 4 144H196C198.209 144 200 142.209 200 140V4C200 1.79086 198.209 0 196 0Z" fill="#1E2022"/>
<path d="M196 0H4C1.79086 0 0 1.79086 0 4V140C0 142.209 1.79086 144 4 144H196C198.209 144 200 142.209 200 140V4C200 1.79086 198.209 0 196 0Z" fill="#3D4145" fill-opacity="0.5"/>
<rect x="20" y="20" width="160" height="104" rx="4" fill="#1E2022"/>
<rect x="33" y="33" width="71" height="10" rx="5" fill="#71869D" fill-opacity="0.7"/>
<rect x="146" y="109" width="21" height="8" rx="4" fill="#71869D"/>
<rect x="119" y="109" width="21" height="8" rx="4" fill="#D9DDEA"/>
<rect x="33" y="58" width="134" height="6" rx="3" fill="#D9DDEA"/>
<rect x="33" y="70" width="134" height="6" rx="3" fill="#D9DDEA"/>
<rect x="33" y="82" width="134" height="6" rx="3" fill="#D9DDEA"/>
</svg>
