<svg width="200" height="144" viewBox="0 0 200 144" fill="none" xmlns="http://www.w3.org/2000/svg">
<path d="M196 0H4C1.79086 0 0 1.79086 0 4V140C0 142.209 1.79086 144 4 144H196C198.209 144 200 142.209 200 140V4C200 1.79086 198.209 0 196 0Z" fill="#1E2022"/>
<rect x="16.2358" y="27.7295" width="167.528" height="87.5411" rx="5.1062" stroke="#E7EAF3" stroke-width="1.45892"/>
<path d="M16.2358 32.8357C16.2358 30.0156 18.5219 27.7295 21.342 27.7295H178.658C181.478 27.7295 183.764 30.0156 183.764 32.8357V44.2959H16.2358V32.8357Z" fill="#1E2022" stroke="#E7EAF3" stroke-width="1.45892"/>
<rect x="24.519" y="33.7593" width="14.5892" height="3.37975" rx="1.68987" fill="#D9DDEA"/>
<rect x="80.8481" y="33.7593" width="14.5892" height="3.37975" rx="1.68987" fill="#D9DDEA"/>
<rect x="106.759" y="33.7593" width="14.5892" height="3.37975" rx="1.68987" fill="#D9DDEA"/>
<rect x="132.671" y="33.7593" width="14.5892" height="3.37975" rx="1.68987" fill="#D9DDEA"/>
<rect x="24.519" y="51.7847" width="35.014" height="3.37975" rx="1.68987" fill="#71869D"/>
<rect x="80.8481" y="51.7847" width="14.5892" height="3.37975" rx="1.68987" fill="#D9DDEA"/>
<rect x="106.759" y="51.7847" width="14.5892" height="3.37975" rx="1.68987" fill="#D9DDEA"/>
<rect x="132.671" y="51.7847" width="14.5892" height="3.37975" rx="1.68987" fill="#D9DDEA"/>
<rect x="158.582" y="51.7847" width="9.01266" height="3.37975" rx="1.68987" fill="#71869D"/>
<rect x="24.519" y="69.8101" width="35.014" height="3.37975" rx="1.68987" fill="#71869D"/>
<rect x="80.8481" y="69.8101" width="14.5892" height="3.37975" rx="1.68987" fill="#D9DDEA"/>
<rect x="106.759" y="69.8101" width="14.5892" height="3.37975" rx="1.68987" fill="#D9DDEA"/>
<rect x="132.671" y="69.8101" width="14.5892" height="3.37975" rx="1.68987" fill="#D9DDEA"/>
<rect x="158.582" y="69.8101" width="9.01266" height="3.37975" rx="1.68987" fill="#71869D"/>
<rect x="24.519" y="87.8354" width="35.014" height="3.37975" rx="1.68987" fill="#71869D"/>
<rect x="80.8481" y="87.8354" width="14.5892" height="3.37975" rx="1.68987" fill="#D9DDEA"/>
<rect x="106.759" y="87.8354" width="14.5892" height="3.37975" rx="1.68987" fill="#D9DDEA"/>
<rect x="132.671" y="87.8354" width="14.5892" height="3.37975" rx="1.68987" fill="#D9DDEA"/>
<rect x="158.582" y="87.8354" width="9.01266" height="3.37975" rx="1.68987" fill="#71869D"/>
<rect x="24.519" y="105.861" width="35.014" height="3.37975" rx="1.68987" fill="#71869D"/>
<rect x="80.8481" y="105.861" width="14.5892" height="3.37975" rx="1.68987" fill="#D9DDEA"/>
<rect x="106.759" y="105.861" width="14.5892" height="3.37975" rx="1.68987" fill="#D9DDEA"/>
<rect x="132.671" y="105.861" width="14.5892" height="3.37975" rx="1.68987" fill="#D9DDEA"/>
<rect x="158.582" y="105.861" width="9.01266" height="3.37975" rx="1.68987" fill="#71869D"/>
<rect x="16.6329" y="43.8989" width="166.734" height="1.12658" fill="#E7EAF3"/>
<rect x="16.6329" y="61.9238" width="166.734" height="1.12658" fill="#E7EAF3"/>
<rect x="16.6329" y="79.9492" width="166.734" height="1.12658" fill="#E7EAF3"/>
<rect x="16.6329" y="97.9746" width="166.734" height="1.12658" fill="#E7EAF3"/>
</svg>
