<svg width="200" height="144" viewBox="0 0 200 144" fill="none" xmlns="http://www.w3.org/2000/svg">
<g filter="url(#filter0_d_132:33)">
<rect x="16" y="10" width="168" height="124" rx="4" fill="#F5F6F9"/>
<rect x="16.5" y="10.5" width="167" height="123" rx="3.5" stroke="#E7EAF3"/>
</g>
<path d="M17 14C17 12.3431 18.3431 11 20 11H180C181.657 11 183 12.3431 183 14V20H17V14Z" fill="white"/>
<circle cx="21.5" cy="15.5" r="1.5" fill="#ED6B5F"/>
<circle cx="27.5" cy="15.5" r="1.5" fill="#F7D289"/>
<circle cx="33.5" cy="15.5" r="1.5" fill="#61C454"/>
<rect x="17" y="21" width="166" height="7" fill="white"/>
<rect x="172" y="23" width="3" height="3" rx="1.5" fill="#D9DDEA"/>
<rect x="166" y="23" width="3" height="3" rx="1.5" fill="#D9DDEA"/>
<rect x="160" y="23" width="3" height="3" rx="1.5" fill="#D9DDEA"/>
<rect x="154" y="23" width="3" height="3" rx="1.5" fill="#D9DDEA"/>
<rect x="50" y="23" width="10" height="3" rx="1.5" fill="#D9DDEA"/>
<rect x="64" y="23" width="10" height="3" rx="1.5" fill="#D9DDEA"/>
<rect x="78" y="23" width="10" height="3" rx="1.5" fill="#D9DDEA"/>
<rect x="92" y="23" width="10" height="3" rx="1.5" fill="#D9DDEA"/>
<rect x="106" y="23" width="10" height="3" rx="1.5" fill="#D9DDEA"/>
<rect x="17" y="20" width="166" height="1" fill="#EBEDF5"/>
<rect x="17" y="28" width="166" height="1" fill="#EBEDF5"/>
<rect x="25" y="23" width="13" height="3" rx="1.5" fill="#377DFF"/>
<defs>
<filter id="filter0_d_132:33" x="11" y="8" width="178" height="134" filterUnits="userSpaceOnUse" color-interpolation-filters="sRGB">
<feFlood flood-opacity="0" result="BackgroundImageFix"/>
<feColorMatrix in="SourceAlpha" type="matrix" values="0 0 0 0 0 0 0 0 0 0 0 0 0 0 0 0 0 0 127 0" result="hardAlpha"/>
<feOffset dy="3"/>
<feGaussianBlur stdDeviation="2.5"/>
<feColorMatrix type="matrix" values="0 0 0 0 0.54902 0 0 0 0 0.596078 0 0 0 0 0.643137 0 0 0 0.125 0"/>
<feBlend mode="normal" in2="BackgroundImageFix" result="effect1_dropShadow_132:33"/>
<feBlend mode="normal" in="SourceGraphic" in2="effect1_dropShadow_132:33" result="shape"/>
</filter>
</defs>
</svg>
