<svg width="200" height="144" viewBox="0 0 200 144" fill="none" xmlns="http://www.w3.org/2000/svg">
<rect x="16.5" y="10.5" width="167" height="123" rx="3.5" fill="#F5F6F9" stroke="#E7EAF3"/>
<path d="M17 14C17 12.3431 18.3431 11 20 11H180C181.657 11 183 12.3431 183 14V20H17V14Z" fill="white"/>
<circle cx="21.5" cy="15.5" r="1.5" fill="#ED6B5F"/>
<circle cx="27.5" cy="15.5" r="1.5" fill="#F7D289"/>
<circle cx="33.5" cy="15.5" r="1.5" fill="#61C454"/>
<rect x="17" y="29" width="166" height="31" fill="#132144"/>
<rect x="25" y="35" width="35" height="93" rx="3" fill="white"/>
<rect x="17" y="28" width="166" height="1" fill="#EBEDF5"/>
<rect x="31" y="51" width="16" height="3" rx="1.5" fill="#D9DDEA"/>
<rect x="31" y="60" width="18" height="3" rx="1.5" fill="#D9DDEA"/>
<rect x="31" y="70" width="20" height="3" rx="1.5" fill="#D9DDEA"/>
<rect x="31" y="79" width="13" height="3" rx="1.5" fill="#D9DDEA"/>
<rect x="31" y="89" width="20" height="3" rx="1.5" fill="#D9DDEA"/>
<rect x="25" y="113" width="35" height="1" fill="#D9DDEA"/>
<rect x="17" y="21" width="166" height="7" fill="white"/>
<rect x="33" y="119" width="3" height="3" rx="1.5" fill="#D9DDEA"/>
<rect x="41" y="119" width="3" height="3" rx="1.5" fill="#D9DDEA"/>
<rect x="49" y="119" width="3" height="3" rx="1.5" fill="#D9DDEA"/>
<rect x="31" y="43" width="20" height="3" rx="1.5" fill="#D9DDEA"/>
<rect x="172" y="23" width="3" height="3" rx="1.5" fill="#D9DDEA"/>
<rect x="166" y="23" width="3" height="3" rx="1.5" fill="#D9DDEA"/>
<rect x="160" y="23" width="3" height="3" rx="1.5" fill="#D9DDEA"/>
<rect x="154" y="23" width="3" height="3" rx="1.5" fill="#D9DDEA"/>
<rect x="49" y="23" width="17" height="3" rx="1.5" fill="#D9DDEA"/>
<rect x="17" y="20" width="166" height="1" fill="#EBEDF5"/>
<rect x="25" y="23" width="13" height="3" rx="1.5" fill="#377DFF"/>
<rect x="65" y="35" width="110" height="93" rx="3" fill="white"/>
</svg>
