<svg width="200" height="144" viewBox="0 0 200 144" fill="none" xmlns="http://www.w3.org/2000/svg">
<path d="M180 10.5H20C18.067 10.5 16.5 12.067 16.5 14V130C16.5 131.933 18.067 133.5 20 133.5H180C181.933 133.5 183.5 131.933 183.5 130V14C183.5 12.067 181.933 10.5 180 10.5Z" fill="white" stroke="#E7EAF3"/>
<path d="M17 14C17 12.3431 18.3431 11 20 11H180C181.657 11 183 12.3431 183 14V20H17V14Z" fill="white"/>
<path d="M21.5 17C22.3284 17 23 16.3284 23 15.5C23 14.6716 22.3284 14 21.5 14C20.6716 14 20 14.6716 20 15.5C20 16.3284 20.6716 17 21.5 17Z" fill="#ED6B5F"/>
<path d="M27.5 17C28.3284 17 29 16.3284 29 15.5C29 14.6716 28.3284 14 27.5 14C26.6716 14 26 14.6716 26 15.5C26 16.3284 26.6716 17 27.5 17Z" fill="#F7D289"/>
<path d="M33.5 17C34.3284 17 35 16.3284 35 15.5C35 14.6716 34.3284 14 33.5 14C32.6716 14 32 14.6716 32 15.5C32 16.3284 32.6716 17 33.5 17Z" fill="#61C454"/>
<path d="M17 21H61V133H20C18.3431 133 17 131.657 17 130V21Z" fill="#132144"/>
<path d="M44.5 61H26.5C25.6716 61 25 61.6716 25 62.5C25 63.3284 25.6716 64 26.5 64H44.5C45.3284 64 46 63.3284 46 62.5C46 61.6716 45.3284 61 44.5 61Z" fill="#D9DDEA"/>
<path d="M46.5 70H26.5C25.6716 70 25 70.6716 25 71.5C25 72.3284 25.6716 73 26.5 73H46.5C47.3284 73 48 72.3284 48 71.5C48 70.6716 47.3284 70 46.5 70Z" fill="#D9DDEA"/>
<path d="M33.5 80H26.5C25.6716 80 25 80.6716 25 81.5C25 82.3284 25.6716 83 26.5 83H33.5C34.3284 83 35 82.3284 35 81.5C35 80.6716 34.3284 80 33.5 80Z" fill="#D9DDEA"/>
<path d="M39.5 90H26.5C25.6716 90 25 90.6716 25 91.5C25 92.3284 25.6716 93 26.5 93H39.5C40.3284 93 41 92.3284 41 91.5C41 90.6716 40.3284 90 39.5 90Z" fill="#D9DDEA"/>
<path d="M51.5 100H26.5C25.6716 100 25 100.672 25 101.5C25 102.328 25.6716 103 26.5 103H51.5C52.3284 103 53 102.328 53 101.5C53 100.672 52.3284 100 51.5 100Z" fill="#D9DDEA"/>
<path d="M61 118H17V119H61V118Z" fill="#D9DDEA" fill-opacity="0.4"/>
<path d="M31 126C31 124.895 30.1046 124 29 124C27.8954 124 27 124.895 27 126C27 127.105 27.8954 128 29 128C30.1046 128 31 127.105 31 126Z" fill="#D9DDEA"/>
<path d="M41 126C41 124.895 40.1046 124 39 124C37.8954 124 37 124.895 37 126C37 127.105 37.8954 128 39 128C40.1046 128 41 127.105 41 126Z" fill="#D9DDEA"/>
<path d="M51 126C51 124.895 50.1046 124 49 124C47.8954 124 47 124.895 47 126C47 127.105 47.8954 128 49 128C50.1046 128 51 127.105 51 126Z" fill="#D9DDEA"/>
<path d="M49.5 52H26.5C25.6716 52 25 52.6716 25 53.5C25 54.3284 25.6716 55 26.5 55H49.5C50.3284 55 51 54.3284 51 53.5C51 52.6716 50.3284 52 49.5 52Z" fill="#D9DDEA"/>
<path d="M44.5 43H26.5C25.6716 43 25 43.6716 25 44.5C25 45.3284 25.6716 46 26.5 46H44.5C45.3284 46 46 45.3284 46 44.5C46 43.6716 45.3284 43 44.5 43Z" fill="#D9DDEA"/>
<path d="M35.5 31H27.5C26.1193 31 25 32.1193 25 33.5C25 34.8807 26.1193 36 27.5 36H35.5C36.8807 36 38 34.8807 38 33.5C38 32.1193 36.8807 31 35.5 31Z" fill="white"/>
<path d="M62 21H61V133H62V21Z" fill="#E7EAF3"/>
<path d="M183 20H17V21H183V20Z" fill="#EBEDF5"/>
</svg>
