<svg width="200" height="144" viewBox="0 0 200 144" fill="none" xmlns="http://www.w3.org/2000/svg">
<path d="M196 0H4C1.79086 0 0 1.79086 0 4V140C0 142.209 1.79086 144 4 144H196C198.209 144 200 142.209 200 140V4C200 1.79086 198.209 0 196 0Z" fill="#F8FAFD"/>
<path d="M77.1385 48.4545H71.8736L64.282 53.3317V58.4027L71.4261 53.8388H71.6051V79H77.1385V48.4545ZM84.8942 79H105.835V74.3764H92.5305V74.1676L97.7955 68.8132C103.732 63.1158 105.372 60.3416 105.372 56.8963C105.372 51.7805 101.211 48.0369 95.0661 48.0369C89.0107 48.0369 84.7152 51.7955 84.7152 57.5973H89.9801C89.9801 54.4801 91.9489 52.5263 94.9915 52.5263C97.8999 52.5263 100.062 54.3011 100.062 57.1797C100.062 59.7301 98.5114 61.5497 95.4986 64.6072L84.8942 75.0028V79Z" fill="#71869D"/>
<path d="M122.677 95.4176C129.21 95.4176 133.967 91.674 133.952 86.5135C133.967 82.6953 131.581 79.951 127.3 79.3395V79.1009C130.612 78.3849 132.834 75.924 132.819 72.4936C132.834 67.8402 128.866 64.0369 122.766 64.0369C116.83 64.0369 112.237 67.5717 112.117 72.6875H117.442C117.531 70.1222 119.918 68.5263 122.737 68.5263C125.585 68.5263 127.479 70.2564 127.464 72.8217C127.479 75.4915 125.272 77.2663 122.11 77.2663H119.411V81.532H122.11C125.973 81.532 128.27 83.4709 128.255 86.2301C128.27 88.9297 125.928 90.7791 122.662 90.7791C119.589 90.7791 117.218 89.1832 117.084 86.6925H111.476C111.625 91.853 116.234 95.4176 122.677 95.4176Z" fill="#71869D"/>
</svg>
