<svg width="200" height="144" viewBox="0 0 200 144" fill="none" xmlns="http://www.w3.org/2000/svg">
<path d="M196 0H4C1.79086 0 0 1.79086 0 4V140C0 142.209 1.79086 144 4 144H196C198.209 144 200 142.209 200 140V4C200 1.79086 198.209 0 196 0Z" fill="#F8FAFD"/>
<path d="M124 71.8733L123.975 70.8458V51.4223L118.605 56.7923C114.211 51.4126 107.525 47.9768 100.038 47.9768C92.2376 47.9768 85.3211 51.6968 80.9441 57.4568L89.7461 66.3518C90.6079 64.7596 91.8287 63.39 93.3116 62.3513C94.8491 61.1513 97.0256 60.1718 100.038 60.1718C100.401 60.1718 100.683 60.2145 100.889 60.294C104.621 60.5888 107.855 62.649 109.76 65.637L103.53 71.8673L124 71.8718" fill="#546578"/>
<path d="M99.8965 47.9775L98.869 48.0023H79.4455L84.8155 53.3723C79.435 57.7673 76 64.452 76 71.9415C76 79.7415 79.72 86.658 85.48 91.035L94.375 82.233C92.7828 81.3711 91.4131 80.1504 90.3745 78.6675C89.1745 77.13 88.195 74.9535 88.195 71.9415C88.195 71.5778 88.2377 71.2965 88.3172 71.0903C88.612 67.3583 90.6722 64.1243 93.6602 62.2193L99.8905 68.4495L99.895 47.9783" fill="#71869D"/>
<path d="M76.0007 71.9408L76.0255 72.9683V92.3918L81.3955 87.0218C85.7905 92.4015 92.476 95.8373 99.9654 95.8373C107.765 95.8373 114.682 92.1173 119.059 86.3573L110.257 77.4623C109.395 79.0545 108.174 80.4241 106.691 81.4628C105.154 82.6628 102.977 83.6423 99.9654 83.6423C99.6017 83.6423 99.3204 83.5995 99.1142 83.52C95.3822 83.2253 92.1482 81.165 90.2432 78.177L96.4735 71.9468C88.582 71.9768 79.6735 71.9963 76.0022 71.943" fill="#D9DDEA"/>
</svg>
