<svg width="427" height="408" viewBox="0 0 427 408" fill="none" xmlns="http://www.w3.org/2000/svg">
<path d="M238 206.5C238 246.761 206.892 279 169 279C131.108 279 100 246.761 100 206.5C100 166.239 131.108 134 169 134C206.892 134 238 166.239 238 206.5Z" stroke="#21325B" stroke-width="10"/>
<path d="M261 161C238 188.5 208.199 267 290.999 305C394.499 352.5 453.065 211 403.5 125.5C390.302 102.734 365.155 70 331 47C247.173 -9.44914 102.068 -25.7116 32.4996 114.5C4.99964 175.333 -30.3006 307.499 92.4994 381.499C140 410.124 232.399 417.499 273.999 355.499" stroke="#21325B" stroke-width="10" stroke-linecap="round"/>
</svg>
