<svg width="269" height="222" viewBox="0 0 269 222" fill="none" xmlns="http://www.w3.org/2000/svg">
<rect width="260.5" height="217.417" transform="translate(4.49707 4)" fill="white"/>
<path d="M128.997 177.5H44.4971C33.4514 177.5 24.4971 168.546 24.4971 157.5V24C24.4971 12.9543 33.4514 4 44.4971 4H102.213C107.517 4 112.604 6.10714 116.355 9.85786L135.639 29.1421C139.39 32.8929 144.477 35 149.781 35H244.997C256.043 35 264.997 43.9543 264.997 55V157.5C264.997 168.546 256.043 177.5 244.997 177.5H243.997" stroke="#21325B" stroke-width="7" stroke-linecap="round"/>
<path d="M24.9971 18.5H24.4971C13.4514 18.5 4.49707 27.4543 4.49707 38.5V157.5C4.49707 168.546 13.4514 177.5 24.4971 177.5H44.4971" stroke="#21325B" stroke-width="7" stroke-linecap="round"/>
<path d="M128.997 6.50001H216.497C222.997 6.50001 235.897 6.4 235.497 24" stroke="#21325B" stroke-width="7" stroke-linecap="round"/>
<path d="M197 136C203 140 204.5 141.5 207 148.5" stroke="#21325B" stroke-width="7" stroke-linecap="round"/>
<path d="M202.497 186.607L231.504 215.613C234.433 218.542 239.181 218.542 242.11 215.613V215.613C245.039 212.684 245.039 207.936 242.11 205.007L213.104 176" stroke="#21325B" stroke-width="7" stroke-linecap="round"/>
<circle cx="185.497" cy="155" r="32.5" stroke="#21325B" stroke-width="7"/>
</svg>
