<svg width="356" height="421" viewBox="0 0 356 421" fill="none" xmlns="http://www.w3.org/2000/svg">
<circle cx="107.155" cy="110.154" r="14.5" transform="rotate(-45 107.155 110.154)" stroke="#21325B" stroke-width="5"/>
<path d="M272.5 298.362L348.278 222.585C352.183 218.679 352.183 212.348 348.278 208.442L204.946 65.1109C203.071 63.2355 200.527 62.1819 197.875 62.1819L83.9996 62.1818M59.1818 91.5001L59.1818 200.875C59.1818 203.528 60.2354 206.071 62.1107 207.946L115.5 261.336" stroke="#21325B" stroke-width="5" stroke-linecap="round"/>
<path d="M134.346 280.347L190.846 337.347" stroke="#21325B" stroke-width="5" stroke-linecap="round"/>
<circle r="13" transform="matrix(-1 0 0 1 230.5 389.5)" stroke="#21325B" stroke-width="5"/>
<path d="M218 363.88C221.774 362.035 226.016 361 230.5 361C246.24 361 259 373.76 259 389.5C259 405.24 246.24 418 230.5 418C214.76 418 202 405.24 202 389.5C202 384.92 203.08 380.592 205 376.758" stroke="#21325B" stroke-width="5" stroke-linecap="round"/>
<circle r="13" transform="matrix(-1 0 0 1 152.5 389.5)" stroke="#21325B" stroke-width="5"/>
<path d="M165 363.88C161.226 362.035 156.984 361 152.5 361C136.76 361 124 373.76 124 389.5C124 405.24 136.76 418 152.5 418C168.24 418 181 405.24 181 389.5C181 384.817 179.871 380.398 177.869 376.5" stroke="#21325B" stroke-width="5" stroke-linecap="round"/>
<path d="M178 376.5L227.5 328.5C232.5 322.5 243.1 305.2 245.5 284" stroke="#21325B" stroke-width="5" stroke-linecap="round"/>
<path d="M177.346 349.847L152.346 324.847C147.346 318.847 136.746 301.547 134.346 280.347" stroke="#21325B" stroke-width="5" stroke-linecap="round"/>
<path d="M165.5 363.5L245.5 284" stroke="#21325B" stroke-width="5" stroke-linecap="round"/>
<path d="M205 376.5L192 363.5" stroke="#21325B" stroke-width="5" stroke-linecap="round"/>
<path d="M217.5 363.5L205 351" stroke="#21325B" stroke-width="5" stroke-linecap="round"/>
<circle r="3" transform="matrix(-1 0 0 1 191.346 350.347)" stroke="#21325B" stroke-width="2"/>
<path d="M188 139L188 309" stroke="#21325B" stroke-opacity="0.6" stroke-width="5" stroke-linecap="round" stroke-dasharray="10 10"/>
<path d="M188.154 0.653442L199.864 11.8479L215.272 6.84289L220.965 22.0096L237.018 24.1853L235.567 40.3203L249.087 49.2459L240.779 63.1534L249.087 77.061L235.567 85.9866L237.018 102.122L220.965 104.297L215.272 119.464L199.864 114.459L188.154 125.653L176.444 114.459L161.036 119.464L155.343 104.297L139.289 102.122L140.74 85.9866L127.221 77.061L135.529 63.1534L127.221 49.2459L140.74 40.3203L139.289 24.1853L155.343 22.0096L161.036 6.84289L176.444 11.8479L188.154 0.653442Z" fill="#21325B"/>
<circle cx="174.154" cy="48.1533" r="7" stroke="white" stroke-width="5"/>
<circle cx="203.154" cy="78.1533" r="7" stroke="white" stroke-width="5"/>
<path d="M198.517 41.483L178.791 84.8239" stroke="white" stroke-width="5" stroke-linecap="round"/>
<path d="M95.9975 113C102.273 112.368 112.94 108.072 105.41 95.9432C95.9975 80.7815 44.3266 55.0085 32.0913 78.4125C23.6696 94.5217 42.4945 107.314 56.3656 113" stroke="#21325B" stroke-width="5" stroke-linecap="round"/>
</svg>
