<svg width="252" height="253" viewBox="0 0 252 253" fill="none" xmlns="http://www.w3.org/2000/svg">
<circle cx="125.5" cy="126.5" r="122" stroke="#21325B" stroke-width="7"/>
<path d="M125 4V249.5" stroke="#21325B" stroke-width="7" stroke-linecap="round"/>
<path d="M23 60H228.5M4 127H248M23 193H229" stroke="#21325B" stroke-width="7" stroke-linecap="round"/>
<path d="M189.5 128C189.5 161.777 182.095 192.182 170.297 214.017C158.423 235.993 142.603 248.5 126 248.5C109.397 248.5 93.5768 235.993 81.7031 214.017C69.9049 192.182 62.5 161.777 62.5 128C62.5 94.2235 69.9049 63.818 81.7031 41.9825C93.5768 20.0073 109.397 7.5 126 7.5C142.603 7.5 158.423 20.0073 170.297 41.9825C182.095 63.818 189.5 94.2235 189.5 128Z" stroke="#21325B" stroke-width="7"/>
</svg>
