<svg width="514" height="440" viewBox="0 0 514 440" fill="none" xmlns="http://www.w3.org/2000/svg">
<path d="M172.279 404V419.5C171.945 424.667 175.279 435.2 191.279 436C211.279 437 244.279 437.5 260.779 432C273.979 427.6 274.945 413.833 273.779 407.5" stroke="#21325B" stroke-width="5" stroke-linecap="round"/>
<path d="M169.257 405C141.257 383.5 133.257 363 124.257 342.5C114.198 340.776 108.989 338.699 105.257 336.5C102.496 334.873 98.7568 331.5 97.2568 328.5C86.7188 307.424 93.7568 296.5 100.257 291C108.646 283.902 118.357 282.7 158.757 273.5C199.157 264.3 230.59 218.333 241.257 196.5C247.257 224.9 303.09 262 330.257 277C349.057 240.2 331.423 194 320.257 175.5C268.657 95.8999 185.424 108.667 150.257 125C123.257 79.9999 70.0902 100.167 57.7568 109C32.0902 128.333 8.05684 175.7 37.2568 246.5C66.4568 317.3 25.0902 345.333 0.756836 350.5C29.9568 408.9 123.924 411.833 169.257 405Z" fill="#21325B"/>
<path d="M335.757 362.5C334.257 368.667 329.257 381.6 321.257 384" stroke="#21325B" stroke-width="5" stroke-linecap="round"/>
<path d="M115.257 301.5C113.257 306 111.157 316.2 118.757 321" stroke="#21325B" stroke-width="5" stroke-linecap="round"/>
<path d="M328.757 276.5C326.257 312 339.757 380.5 268.257 407C242.757 415.5 189.857 417.6 162.257 398C152.09 391.333 130.257 373 124.257 345" stroke="#21325B" stroke-width="5" stroke-linecap="round"/>
<path d="M264.257 289C264.257 298 268.189 308.267 275.257 317.5C280.998 325 274.923 332.667 268.257 337" stroke="#21325B" stroke-width="5" stroke-linecap="round"/>
<ellipse cx="297.498" cy="285" rx="7.5" ry="9" fill="#21325B"/>
<ellipse cx="228.498" cy="292" rx="7.5" ry="9" fill="#21325B"/>
<path d="M289.257 267C291.257 262.833 297.257 255.1 305.257 257.5" stroke="#21325B" stroke-width="5" stroke-linecap="round"/>
<path d="M212.257 266.5C216.59 263.833 227.857 259.9 238.257 265.5" stroke="#21325B" stroke-width="5" stroke-linecap="round"/>
<path d="M381.761 112.804C374.761 123.804 360.261 145.804 358.261 145.804L362.261 97.8042C352.761 87.8042 340.661 59.8042 368.261 27.8042C395.861 -4.19583 452.094 1.47084 476.761 8.30417C497.094 15.9708 529.661 42.2042 497.261 85.8042C464.861 129.404 406.761 121.971 381.761 112.804Z" stroke="#21325B" stroke-width="5" stroke-linecap="round"/>
<path d="M384.257 48L413.757 43" stroke="#21325B" stroke-width="5" stroke-linecap="round"/>
<path d="M388.757 68.5L466.257 56" stroke="#21325B" stroke-width="5" stroke-linecap="round"/>
<path d="M397.257 91L439.257 85.5" stroke="#21325B" stroke-width="5" stroke-linecap="round"/>
<path d="M232.498 353.5C235.998 363 242.498 372 262.498 369.5" stroke="#21325B" stroke-width="5" stroke-linecap="round"/>
</svg>
