<svg width="959" height="1221" viewBox="0 0 959 1221" fill="none" xmlns="http://www.w3.org/2000/svg">
<path d="M632 105.5C694.4 85.9 736.667 127 750 150C784 45.9999 711 2.5 649.5 18C585 31.5 555.333 16.3333 541.5 0C545.667 43.3333 569.6 125.1 632 105.5Z" fill="#21325B"/>
<path d="M598 105.5C584.833 147.167 575.8 236.1 645 258.5C674.5 265.5 717 249.5 733 208.5L746 183" stroke="#21325B" stroke-width="5" stroke-linecap="round"/>
<path d="M746 155.301C748.653 150.3 754.988 143.53 759.108 156.456C763.227 169.382 752.086 179.538 746 183" stroke="#21325B" stroke-width="5" stroke-linecap="round"/>
<path d="M751 160C752.5 161 754.7 163.9 751.5 167.5" stroke="#21325B" stroke-width="5" stroke-linecap="round"/>
<path d="M655 206C655 209.175 654.154 211.934 652.918 213.824C651.668 215.737 650.228 216.5 649 216.5C647.772 216.5 646.332 215.737 645.082 213.824C643.846 211.934 643 209.175 643 206C643 202.825 643.846 200.066 645.082 198.176C646.332 196.263 647.772 195.5 649 195.5C650.228 195.5 651.668 196.263 652.918 198.176C654.154 200.066 655 202.825 655 206Z" stroke="#21325B" stroke-width="5"/>
<path d="M642 231C644.833 234 652.1 237.8 658.5 229" stroke="#21325B" stroke-width="5" stroke-linecap="round"/>
<path d="M649.5 136C648.5 143 643.8 158.7 633 165.5" stroke="#21325B" stroke-width="5" stroke-linecap="round"/>
<path d="M648.5 174.5C647.167 171.5 640.2 166.3 633 165.5" stroke="#21325B" stroke-width="5" stroke-linecap="round"/>
<path d="M680.5 123C685.833 122.833 697.4 125.1 701 135.5" stroke="#21325B" stroke-width="5" stroke-linecap="round"/>
<path d="M604 133C605 128.5 609.6 119.6 620 120" stroke="#21325B" stroke-width="5" stroke-linecap="round"/>
<ellipse cx="621.5" cy="137.5" rx="5" ry="6.5" fill="#21325B"/>
<ellipse cx="685.5" cy="146.5" rx="5" ry="5.5" fill="#21325B"/>
<path d="M729.5 253C778.667 269.833 886.4 318.5 924 378.5C961.6 438.5 919.5 468 884.5 479L816.5 500" stroke="#21325B" stroke-width="5" stroke-linecap="round"/>
<path d="M636.5 256L633 288.5M735.5 205.5L724 276.5M616.5 286.5C637 292.167 690.9 296.3 742.5 267.5" stroke="#21325B" stroke-width="5" stroke-linecap="round"/>
<path d="M53 100L137 169M79.5 178L117 196M3 228.5C44.0051 228.5 66.9949 228.5 108 228.5M76 282.5L117 270M31.5 357L137 299" stroke="#21325B" stroke-width="5" stroke-linecap="round"/>
<path d="M269 232C269 255.131 263.81 275.948 255.546 290.894C247.234 305.927 236.152 314.5 224.5 314.5C212.848 314.5 201.766 305.927 193.454 290.894C185.19 275.948 180 255.131 180 232C180 208.869 185.19 188.052 193.454 173.106C201.766 158.073 212.848 149.5 224.5 149.5C236.152 149.5 247.234 158.073 255.546 173.106C263.81 188.052 269 208.869 269 232Z" stroke="#21325B" stroke-width="5"/>
<ellipse cx="220.5" cy="232" rx="8" ry="15" fill="#21325B"/>
<path d="M407.5 247C410.7 237.4 408.833 223.333 407.5 217.5L423 223C429.4 230.6 425.667 238.167 423 241L407.5 247Z" fill="#21325B"/>
<path d="M423 223L231.5 150.5M238 310.5L423 241" stroke="#21325B" stroke-width="5" stroke-linecap="round"/>
<path d="M220 220L266 205.5M220 244L266 260.5" stroke="#21325B" stroke-width="5" stroke-linecap="round"/>
<path d="M325 310C322.167 311.167 319.7 315.4 326.5 319C333.3 322.6 331.667 327.5 330 329.5C327.333 331.833 318.7 333.6 305.5 322C292.3 310.4 314 303.167 326.5 301M307.5 327C304.667 327.667 299.8 330.3 303 335.5C306.2 340.7 322.333 344 330 345C330.331 345.033 330.666 345.05 331 345.049M328 331.5C329.667 331.833 337 333.773 337 339.5C337 343.553 334.026 345.037 331 345.049M305.5 339.5C302.708 341.206 298.877 345.539 304.16 350M331 345.049C335.4 351.087 330.833 354.199 328 355C327.305 355.103 326.459 355.193 325.5 355.255M304.16 350C304.555 350.333 305 350.667 305.5 351C311.588 355.058 320.249 355.59 325.5 355.255M304.16 350C302.714 353.414 302.175 360.959 310.5 365.535C311.117 365.874 311.782 366.196 312.5 366.5C322.9 370.9 325.5 363.667 325.5 359.5V355.255M353.5 322C347.833 317.5 336.8 311.2 338 322C339.2 332.8 346.833 337.5 350.5 338.5" stroke="#21325B" stroke-width="5" stroke-linecap="round"/>
<path d="M353.5 365C350.5 362.167 345.4 352.9 349 338.5" stroke="#21325B" stroke-width="5" stroke-linecap="round"/>
<path d="M356.5 310.5C382 330 413.2 370.5 426 408.5C433.833 429.333 449.1 473.2 447.5 482M523 521.5L485.5 551C453.5 573 425.667 570.5 411.5 560C367.1 530 385.631 443.094 379.937 404.969C378 392 373.684 382.064 360 380.5C354.833 379.833 343.9 377.6 341.5 374" stroke="#21325B" stroke-width="5" stroke-linecap="round"/>
<path d="M329 277L325 314M351.5 319L361.5 264.5M319.5 368C319.5 377.5 315 390 325 393C337.21 396.663 338.5 385.5 341 374L347.5 339.5" stroke="#21325B" stroke-width="5" stroke-linecap="round"/>
<path d="M500.5 426C490.167 434.333 465.1 457.3 447.5 482.5" stroke="#21325B" stroke-width="5" stroke-linecap="round"/>
<path d="M483.5 437.5C483.167 428.5 484.3 408.3 491.5 399.5C500.5 388.5 531 525 523.5 535.5M523.5 535.5C521.833 536.333 517.4 536.5 513 530.5M523.5 535.5C539 523.167 572.2 490.6 581 459" stroke="#21325B" stroke-width="5" stroke-linecap="round"/>
<path d="M613.121 994.313C551.563 827.851 556.644 683.499 576.127 638.522C643 688 771 647.5 814.37 630C872.376 691.358 822.262 1019.64 789.953 1176.11C777.523 1196.57 750.74 1186.06 738.901 1178.25L724.104 1069.59L707.086 1164.75C697.616 1180.66 669.599 1177.54 656.774 1173.98L613.121 994.313Z" fill="#21325B"/>
<path d="M598.569 418C578.386 450.248 547.776 535.903 577 636C605 658.5 665.5 680 811.5 630C819 624 818.549 627.481 817.748 595.147C816.748 554.73 817.248 464.437 806.739 418" stroke="#21325B" stroke-width="5" stroke-linecap="round"/>
<path d="M491 400C510.167 368.5 568 297.5 634 269.5" stroke="#21325B" stroke-width="5" stroke-linecap="round"/>
<path d="M935 441.5C951.667 461.833 968.2 525.8 935 563C901.8 600.2 842.833 636.5 817.5 650M817.5 553L861 505.5C863.833 502.167 868.5 493.4 864.5 485" stroke="#21325B" stroke-width="5" stroke-linecap="round"/>
<path d="M423 223C425.5 225.833 429 233.4 423 241" stroke="#21325B" stroke-width="5" stroke-linecap="round"/>
<path d="M406.5 217C408.333 222.833 410 236 406.5 247" stroke="#21325B" stroke-width="5" stroke-linecap="round"/>
<path d="M629.715 1187.39C641.639 1187.39 654.059 1178.41 658.033 1173.92C680.091 1180.08 696.535 1175.21 702 1172V1191.88C688.288 1206.25 645.364 1209.2 626.735 1202.78C615.556 1197.65 619.511 1187.39 629.715 1187.39Z" stroke="#21325B" stroke-width="5"/>
<path d="M722.969 1188.72C730.773 1187.72 739.728 1182.49 743.229 1180C759.438 1188.97 776.497 1186.23 783 1183.74V1194.94C783 1202.41 776.997 1204.28 773.245 1205.53L737.977 1216.11C728.972 1218.39 713.964 1220.47 707.211 1210.51C699.626 1199.32 713.214 1189.96 722.969 1188.72Z" stroke="#21325B" stroke-width="5"/>
<path d="M355.364 908.145C359.864 913.592 383.364 895.645 395.364 872.145C402.364 880.311 419.804 905.107 432.864 897.645C436.364 895.645 429.864 870.145 419.864 860.145C428.864 853.145 450.864 837.645 447.364 826.645C443.901 815.759 414.364 826.145 406.364 833.145C408.198 823.645 404.864 801.378 396.864 797.645C384.864 792.045 378.864 824.311 377.364 841.145C370.864 842.645 358.364 845.145 343.364 851.645C326.682 858.874 353.031 867.478 366.364 868.145C362.864 874.645 347.364 898.46 355.364 908.145Z" fill="#21325B"/>
<path d="M866.364 215.145C870.864 220.592 894.364 202.645 906.364 179.145C913.364 187.311 930.804 212.107 943.864 204.645C947.364 202.645 940.864 177.145 930.864 167.145C939.864 160.145 961.864 144.645 958.364 133.645C954.901 122.759 925.364 133.145 917.364 140.145C919.198 130.645 915.864 108.378 907.864 104.645C895.864 99.0445 889.864 131.311 888.364 148.145C881.864 149.645 869.364 152.145 854.364 158.645C837.682 165.874 864.031 174.478 877.364 175.145C873.864 181.645 858.364 205.46 866.364 215.145Z" fill="#21325B"/>
<path d="M105.364 111.145C109.864 116.592 133.364 98.6447 145.364 75.1447C152.364 83.3113 169.804 108.107 182.864 100.645C186.364 98.6447 179.864 73.1445 169.864 63.1445C178.864 56.1445 200.864 40.6447 197.364 29.6445C193.901 18.7586 164.364 29.1445 156.364 36.1445C158.198 26.6446 154.864 4.37799 146.864 0.644568C134.864 -4.95549 128.864 27.3113 127.364 44.1446C120.864 45.6445 108.364 48.1445 93.3642 54.6446C76.6819 61.8737 103.031 70.4779 116.364 71.1446C112.864 77.6447 97.3643 101.46 105.364 111.145Z" fill="#21325B"/>
</svg>
