<svg width="728" height="398" viewBox="0 0 728 398" fill="none" xmlns="http://www.w3.org/2000/svg">
<path d="M65.4113 139.994C63.8882 135.396 69.1386 131.535 73.0734 134.36L101.888 155.043C103.647 156.307 106.02 156.293 107.765 155.01L136.341 133.997C140.243 131.128 145.538 134.928 144.067 139.543L133.3 173.339C132.642 175.403 133.388 177.656 135.148 178.919L163.963 199.603C167.897 202.427 165.919 208.637 161.075 208.664L125.606 208.867C123.44 208.88 121.529 210.286 120.871 212.35L110.104 246.145C108.633 250.76 102.116 250.798 100.593 246.2L89.4396 212.529C88.7585 210.473 86.8307 209.089 84.6646 209.102L49.1956 209.305C44.3521 209.333 42.3028 203.146 46.205 200.277L74.7806 179.264C76.5257 177.981 77.2461 175.72 76.5649 173.664L65.4113 139.994Z" fill="#21325B"/>
<path d="M208.372 57.4387C208.309 52.5955 214.481 50.5016 217.378 54.3831L238.596 82.8067C239.892 84.5425 242.158 85.2465 244.209 84.5506L277.798 73.1547C282.385 71.5986 286.284 76.821 283.487 80.7761L263.012 109.739C261.761 111.507 261.792 113.88 263.088 115.616L284.305 144.04C287.203 147.921 283.441 153.242 278.815 151.805L244.943 141.282C242.874 140.639 240.627 141.401 239.376 143.17L218.901 172.133C216.104 176.088 209.881 174.154 209.818 169.311L209.36 133.844C209.332 131.678 207.912 129.777 205.844 129.134L171.971 118.61C167.346 117.173 167.262 110.657 171.848 109.101L205.437 97.7048C207.489 97.0089 208.859 95.0712 208.831 92.9053L208.372 57.4387Z" fill="#21325B"/>
<path d="M368.974 17.1326C370.784 12.6397 377.286 13.0871 378.463 17.7856L387.081 52.1921C387.608 54.2933 389.427 55.8166 391.588 55.9653L426.974 58.4005C431.806 58.7331 433.39 65.0548 429.285 67.6261L399.226 86.4552C397.39 87.6051 396.504 89.8063 397.03 91.9075L405.649 126.314C406.826 131.012 401.303 134.472 397.589 131.363L370.393 108.593C368.732 107.203 366.364 107.04 364.529 108.19L334.469 127.019C330.365 129.59 325.368 125.406 327.177 120.914L340.428 88.0122C341.237 86.0029 340.661 83.701 339 82.3105L311.803 59.541C308.09 56.4317 310.524 50.3865 315.356 50.7191L350.742 53.1543C352.903 53.303 354.914 52.0433 355.724 50.034L368.974 17.1326Z" fill="#21325B"/>
<path d="M671.036 131.221L659.902 164.898C658.882 167.983 659.964 171.374 662.583 173.297L691.171 194.293C693.123 195.727 692.1 198.82 689.678 198.808L654.209 198.625C650.96 198.609 648.069 200.686 647.049 203.771L635.915 237.448C635.155 239.747 631.897 239.73 631.16 237.423L620.373 203.634C619.385 200.539 616.516 198.432 613.267 198.415L577.798 198.232C575.376 198.22 574.385 195.116 576.352 193.702L605.154 173.002C607.792 171.105 608.91 167.726 607.922 164.631L597.135 130.841C596.398 128.534 599.044 126.632 600.996 128.066L629.584 149.062C632.203 150.985 635.762 151.003 638.401 149.107L667.203 128.406C669.17 126.993 671.796 128.922 671.036 131.221Z" fill="#21325B"/>
<path d="M530.478 51.8783L527.379 87.2122C527.096 90.449 528.928 93.5004 531.919 94.7706L564.566 108.636C566.795 109.583 566.51 112.829 564.151 113.373L529.588 121.345C526.422 122.076 524.087 124.761 523.803 127.998L520.704 163.332C520.493 165.745 517.318 166.477 516.071 164.401L497.809 133.994C496.136 131.208 492.859 129.817 489.693 130.547L455.131 138.519C452.771 139.063 451.094 136.27 452.683 134.443L475.959 107.678C478.091 105.226 478.402 101.68 476.729 98.895L458.467 68.488C457.22 66.4118 459.358 63.953 461.587 64.8998L494.234 78.7654C497.225 80.0356 500.693 79.2356 502.826 76.7838L526.101 50.0193C527.69 48.1919 530.69 49.4657 530.478 51.8783Z" fill="#21325B"/>
<path d="M352.089 394.479L369.162 349.69" stroke="#21325B" stroke-width="7" stroke-linecap="round"/>
<path d="M369.161 349.692C355.075 340.09 313.524 320.14 259.036 315.506" stroke="#21325B" stroke-width="7" stroke-linecap="round"/>
<path d="M258.927 316.314C255.341 333.101 244.966 370.853 232.149 387.568" stroke="#21325B" stroke-width="7" stroke-linecap="round"/>
<path d="M284.43 265.881C284.43 275.25 282.302 297.448 275.802 315.948M355.802 338.448C368.802 322.448 392.302 297.448 401.802 279.948L417.302 253.448C427.802 236.579 432.296 222.826 436.308 215.37C438.092 212.055 439.202 209.538 441.672 204.613C443.913 200.141 445.886 195.626 444.321 191.923C443.123 189.087 438.124 184.123 427.715 186.956C417.306 189.79 410.207 198.581 407.959 202.622C405.707 205.97 395.931 218.103 393.254 220.766C387.032 226.953 356.38 252.611 337.264 237.579L355.802 338.448ZM333.544 212.733C349.412 204.344 380.237 189.219 390.975 178.835C402.003 176.7 429.236 180.268 426.488 165.645C425.916 162.598 416.327 155.042 402.073 152.477C391.815 150.632 384.378 149.911 375.857 154.49C371.026 157.086 369.109 158.008 362.872 162.151L333.544 212.733ZM332.954 184.462C341.183 176.698 347.066 172.26 351.127 169.468C355.081 166.751 358.03 164.284 362.872 162.151L332.954 184.462ZM362.872 162.151C360.284 160.743 349.1 160.834 335.915 167.365C321.512 174.498 319.052 177.199 313.475 180.879C307.898 184.558 296.743 191.918 292.377 195.469C284.651 201.751 277.61 208.831 274.83 212.403C269.936 219.961 272.664 225.679 280.02 239.752L362.872 162.151Z" stroke="#21325B" stroke-width="7" stroke-linecap="round"/>
<path d="M430.821 185.701L454.02 173.158L443.034 155.591L427.329 163.524M413.372 195.473L287.926 264.014C272.77 269.943 262.227 249.168 278.13 242.154L333.458 212.656L413.372 195.473Z" stroke="#21325B" stroke-width="7" stroke-linecap="round"/>
<path d="M457.149 171.455L470.229 152.098" stroke="#21325B" stroke-width="7" stroke-linecap="round"/>
<path d="M446.149 153.955L470.229 152.098" stroke="#21325B" stroke-width="7" stroke-linecap="round"/>
</svg>
