<svg width="1292" height="1221" viewBox="0 0 1292 1221" fill="none" xmlns="http://www.w3.org/2000/svg">
<path d="M966.712 105.5C1029.11 85.9 1071.38 127 1084.71 150C1118.71 45.9999 1045.71 2.5 984.212 18C919.712 31.5 890.045 16.3333 876.212 0C880.379 43.3333 904.312 125.1 966.712 105.5Z" fill="#21325B"/>
<path d="M932.712 105.5C919.545 147.167 910.512 236.1 979.712 258.5C1009.21 265.5 1051.71 249.5 1067.71 208.5L1080.71 183" stroke="#21325B" stroke-width="5" stroke-linecap="round"/>
<path d="M1080.71 155.301C1083.36 150.3 1089.7 143.53 1093.82 156.456C1097.94 169.382 1086.8 179.538 1080.71 183" stroke="#21325B" stroke-width="5" stroke-linecap="round"/>
<path d="M1085.71 160C1087.21 161 1089.41 163.9 1086.21 167.5" stroke="#21325B" stroke-width="5" stroke-linecap="round"/>
<path d="M989.712 206C989.712 209.175 988.866 211.934 987.63 213.824C986.379 215.737 984.94 216.5 983.712 216.5C982.484 216.5 981.044 215.737 979.794 213.824C978.558 211.934 977.712 209.175 977.712 206C977.712 202.825 978.558 200.066 979.794 198.176C981.044 196.263 982.484 195.5 983.712 195.5C984.94 195.5 986.379 196.263 987.63 198.176C988.866 200.066 989.712 202.825 989.712 206Z" stroke="#21325B" stroke-width="5"/>
<path d="M976.712 231C979.545 234 986.812 237.8 993.212 229" stroke="#21325B" stroke-width="5" stroke-linecap="round"/>
<path d="M984.212 136C983.212 143 978.512 158.7 967.712 165.5" stroke="#21325B" stroke-width="5" stroke-linecap="round"/>
<path d="M983.212 174.5C981.879 171.5 974.912 166.3 967.712 165.5" stroke="#21325B" stroke-width="5" stroke-linecap="round"/>
<path d="M1015.21 123C1020.55 122.833 1032.11 125.1 1035.71 135.5" stroke="#21325B" stroke-width="5" stroke-linecap="round"/>
<path d="M938.712 133C939.712 128.5 944.312 119.6 954.712 120" stroke="#21325B" stroke-width="5" stroke-linecap="round"/>
<ellipse cx="956.212" cy="137.5" rx="5" ry="6.5" fill="#21325B"/>
<ellipse cx="1020.21" cy="146.5" rx="5" ry="5.5" fill="#21325B"/>
<path d="M1064.21 253C1113.38 269.833 1221.11 318.5 1258.71 378.5C1296.31 438.5 1254.21 468 1219.21 479L1151.21 500" stroke="#21325B" stroke-width="5" stroke-linecap="round"/>
<path d="M971.212 256L967.712 288.5M1070.21 205.5L1058.71 276.5M951.212 286.5C971.712 292.167 1025.61 296.3 1077.21 267.5" stroke="#21325B" stroke-width="5" stroke-linecap="round"/>
<path d="M387.712 100L471.712 169M414.212 178L451.712 196M337.712 228.5C378.717 228.5 401.707 228.5 442.712 228.5M410.712 282.5L451.712 270M366.212 357L471.712 299" stroke="#21325B" stroke-width="5" stroke-linecap="round"/>
<path d="M603.712 232C603.712 255.131 598.522 275.948 590.258 290.894C581.946 305.927 570.864 314.5 559.212 314.5C547.559 314.5 536.478 305.927 528.166 290.894C519.901 275.948 514.712 255.131 514.712 232C514.712 208.869 519.901 188.052 528.166 173.106C536.478 158.073 547.559 149.5 559.212 149.5C570.864 149.5 581.946 158.073 590.258 173.106C598.522 188.052 603.712 208.869 603.712 232Z" stroke="#21325B" stroke-width="5"/>
<ellipse cx="555.212" cy="232" rx="8" ry="15" fill="#21325B"/>
<path d="M742.212 247C745.412 237.4 743.545 223.333 742.212 217.5L757.712 223C764.112 230.6 760.379 238.167 757.712 241L742.212 247Z" fill="#21325B"/>
<path d="M757.712 223L566.212 150.5M572.712 310.5L757.712 241" stroke="#21325B" stroke-width="5" stroke-linecap="round"/>
<path d="M554.712 220L600.712 205.5M554.712 244L600.712 260.5" stroke="#21325B" stroke-width="5" stroke-linecap="round"/>
<path d="M659.712 310C656.878 311.167 654.412 315.4 661.212 319C668.012 322.6 666.378 327.5 664.712 329.5C662.045 331.833 653.412 333.6 640.212 322C627.012 310.4 648.712 303.167 661.212 301M642.212 327C639.378 327.667 634.512 330.3 637.712 335.5C640.912 340.7 657.045 344 664.712 345C665.043 345.033 665.378 345.05 665.712 345.049M662.712 331.5C664.378 331.833 671.712 333.773 671.712 339.5C671.712 343.553 668.738 345.037 665.712 345.049M640.212 339.5C637.42 341.206 633.589 345.539 638.872 350M665.712 345.049C670.112 351.087 665.545 354.199 662.712 355C662.017 355.103 661.171 355.193 660.212 355.255M638.872 350C639.267 350.333 639.712 350.667 640.212 351C646.3 355.058 654.961 355.59 660.212 355.255M638.872 350C637.426 353.414 636.887 360.959 645.212 365.535C645.829 365.874 646.494 366.196 647.212 366.5C657.612 370.9 660.212 363.667 660.212 359.5V355.255M688.212 322C682.545 317.5 671.512 311.2 672.712 322C673.912 332.8 681.545 337.5 685.212 338.5" stroke="#21325B" stroke-width="5" stroke-linecap="round"/>
<path d="M688.212 365C685.212 362.167 680.112 352.9 683.712 338.5" stroke="#21325B" stroke-width="5" stroke-linecap="round"/>
<path d="M691.212 310.5C716.712 330 747.912 370.5 760.712 408.5C768.545 429.333 783.812 473.2 782.212 482M857.712 521.5L820.212 551C788.212 573 760.379 570.5 746.212 560C701.812 530 720.343 443.094 714.649 404.969C712.712 392 708.396 382.064 694.712 380.5C689.545 379.833 678.612 377.6 676.212 374" stroke="#21325B" stroke-width="5" stroke-linecap="round"/>
<path d="M663.712 277L659.712 314M686.212 319L696.212 264.5M654.212 368C654.212 377.5 649.712 390 659.712 393C671.922 396.663 673.212 385.5 675.712 374L682.212 339.5" stroke="#21325B" stroke-width="5" stroke-linecap="round"/>
<path d="M835.212 426C824.879 434.333 799.812 457.3 782.212 482.5" stroke="#21325B" stroke-width="5" stroke-linecap="round"/>
<path d="M818.212 437.5C817.879 428.5 819.012 408.3 826.212 399.5C835.212 388.5 865.712 525 858.212 535.5M858.212 535.5C856.545 536.333 852.112 536.5 847.712 530.5M858.212 535.5C873.712 523.167 906.912 490.6 915.712 459" stroke="#21325B" stroke-width="5" stroke-linecap="round"/>
<path d="M947.833 994.313C886.275 827.851 891.356 683.499 910.839 638.522C977.712 688 1105.71 647.5 1149.08 630C1207.09 691.358 1156.97 1019.64 1124.67 1176.11C1112.24 1196.57 1085.45 1186.06 1073.61 1178.25L1058.82 1069.59L1041.8 1164.75C1032.33 1180.66 1004.31 1177.54 991.486 1173.98L947.833 994.313Z" fill="#21325B"/>
<path d="M933.282 418C913.098 450.248 882.488 535.903 911.712 636C939.712 658.5 1000.21 680 1146.21 630C1153.71 624 1153.26 627.481 1152.46 595.147C1151.46 554.73 1151.96 464.437 1141.45 418" stroke="#21325B" stroke-width="5" stroke-linecap="round"/>
<path d="M825.712 400C844.879 368.5 902.712 297.5 968.712 269.5" stroke="#21325B" stroke-width="5" stroke-linecap="round"/>
<path d="M1269.71 441.5C1286.38 461.833 1302.91 525.8 1269.71 563C1236.51 600.2 1177.55 636.5 1152.21 650M1152.21 553L1195.71 505.5C1198.55 502.167 1203.21 493.4 1199.21 485" stroke="#21325B" stroke-width="5" stroke-linecap="round"/>
<path d="M757.712 223C760.212 225.833 763.712 233.4 757.712 241" stroke="#21325B" stroke-width="5" stroke-linecap="round"/>
<path d="M741.212 217C743.045 222.833 744.712 236 741.212 247" stroke="#21325B" stroke-width="5" stroke-linecap="round"/>
<path d="M964.427 1187.39C976.351 1187.39 988.771 1178.41 992.745 1173.92C1014.8 1180.08 1031.25 1175.21 1036.71 1172V1191.88C1023 1206.25 980.076 1209.2 961.446 1202.78C950.268 1197.65 954.223 1187.39 964.427 1187.39Z" stroke="#21325B" stroke-width="5"/>
<path d="M1057.68 1188.72C1065.48 1187.72 1074.44 1182.49 1077.94 1180C1094.15 1188.97 1111.21 1186.23 1117.71 1183.74V1194.94C1117.71 1202.41 1111.71 1204.28 1107.96 1205.53L1072.69 1216.11C1063.68 1218.39 1048.68 1220.47 1041.92 1210.51C1034.34 1199.32 1047.93 1189.96 1057.68 1188.72Z" stroke="#21325B" stroke-width="5"/>
<path d="M2.71191 581.5L14.7119 598.5M23.2119 598.5V578M31.7119 598.5L43.7119 578" stroke="#21325B" stroke-width="5" stroke-linecap="round"/>
<path d="M348.558 1051L292.025 1030.33C291.236 1030.04 290.712 1029.29 290.712 1028.45V974.255C290.712 972.952 291.937 971.997 293.199 972.315L293.341 972.351M348.558 1051V993.5M348.558 1051L384.201 1011.25C384.53 1010.89 384.712 1010.41 384.712 1009.92V958.471M348.558 993.5L293.341 972.351M348.558 993.5L384.712 958.471M293.341 972.351L328.556 936.944C329.125 936.372 329.981 936.198 330.728 936.502L384.712 958.471" stroke="#21325B" stroke-width="5" stroke-linecap="round"/>
<path d="M563.712 1060.16V1106.51C563.712 1106.99 563.886 1107.46 564.202 1107.82L590.435 1138M563.712 1060.16L590.435 1086.32M563.712 1060.16L609.222 1052.89C609.845 1052.79 610.478 1052.99 610.931 1053.43L636.712 1078.47M590.435 1138V1086.32M590.435 1138L635.087 1129.47C636.03 1129.29 636.712 1128.46 636.712 1127.5V1078.47M590.435 1086.32L636.712 1078.47" stroke="#21325B" stroke-width="5" stroke-linecap="round"/>
<path d="M444.712 789.5L462.712 803.5M474.212 803.5V772M486.212 803.5L499.712 783" stroke="#21325B" stroke-width="5" stroke-linecap="round"/>
<path d="M663.712 745L569.712 749" stroke="#21325B" stroke-width="5" stroke-linecap="round"/>
<path d="M664.712 745L788.712 756" stroke="#21325B" stroke-width="5" stroke-linecap="round"/>
<path d="M789.712 756L764.712 872" stroke="#21325B" stroke-width="5" stroke-linecap="round"/>
<path d="M764.712 872L661.712 890" stroke="#21325B" stroke-width="5" stroke-linecap="round"/>
<path d="M661.712 889V766" stroke="#21325B" stroke-width="5" stroke-linecap="round"/>
<path d="M661.712 767L788.712 757" stroke="#21325B" stroke-width="5" stroke-linecap="round"/>
<path d="M661.712 767L569.712 749" stroke="#21325B" stroke-width="5" stroke-linecap="round"/>
<path d="M567.712 749L573.712 841" stroke="#21325B" stroke-width="5" stroke-linecap="round"/>
<path d="M573.712 841L661.712 890" stroke="#21325B" stroke-width="5" stroke-linecap="round"/>
<path d="M662.712 745V765" stroke="#21325B" stroke-width="5" stroke-linecap="round"/>
<rect x="707.924" y="794.881" width="37.2431" height="19.996" rx="8.5" transform="rotate(-3.53924 707.924 794.881)" stroke="#21325B" stroke-width="3"/>
<path d="M532.712 612C550.341 640.048 598.526 693.175 650.238 681.296L722.712 627.839" stroke="#21325B" stroke-width="5" stroke-linecap="round"/>
<path d="M532.712 612L614.712 585" stroke="#21325B" stroke-width="5" stroke-linecap="round"/>
<path d="M614.712 585C630.094 599 673.228 627 722.712 627" stroke="#21325B" stroke-width="5" stroke-linecap="round"/>
<path d="M578.712 626C585.823 624.333 602.179 619 610.712 611" stroke="#21325B" stroke-width="5" stroke-linecap="round"/>
<path d="M599.712 644C604.156 643 614.379 639.2 619.712 632" stroke="#21325B" stroke-width="5" stroke-linecap="round"/>
<path d="M623.712 657C629.379 656 644.312 651.4 650.712 637" stroke="#21325B" stroke-width="5" stroke-linecap="round"/>
<path d="M660.992 916L571.212 842.5L661.212 892.5L767.212 874L777.212 875.5L660.992 916Z" fill="#21325B" fill-opacity="0.3"/>
</svg>
