<svg width="400" height="400" viewBox="0 0 400 400" fill="none" xmlns="http://www.w3.org/2000/svg">
<path d="M355.5 89V44.5C355.5 20 335.5 0 311 0H89C64.5 0 44.5 20 44.5 44.5V89C20 89 0 108.75 0 133.25V255.5C0 261.75 5 266.5 11 266.5H44.25V355.5C44.25 380 64.25 400 88.75 400H311C335.5 400 355.5 380 355.5 355.5V266.5H388.75C395 266.5 399.75 261.5 399.75 255.5V133.25C400 108.75 380 89 355.5 89ZM89 44.5H311.25V89H89V44.5ZM311 355.5H89V222.25H311.25V355.5H311ZM355.5 166.75C355.5 173 350.5 177.75 344.5 177.75H322.25C316 177.75 311.25 172.75 311.25 166.75V144.5C311.25 138.25 316.25 133.5 322.25 133.5H344.5C350.75 133.5 355.5 138.5 355.5 144.5V166.75Z" fill="#97A4AF"/>
</svg>
