<svg width="468" height="1163" viewBox="0 0 468 1163" fill="none" xmlns="http://www.w3.org/2000/svg">
<path d="M215.97 113.366C277.225 105.483 309.645 150.814 318.198 174.465C367.143 83.2091 306.565 30.5289 246.83 34.741C184.641 36.5903 159.603 17.5216 149.474 0C146.116 41.0734 154.715 121.249 215.97 113.366Z" fill="#21325B"/>
<path d="M184.641 107.886C173.615 128.941 161.25 164.806 164.297 197.607M308.931 204.495L292.636 226.044C270.981 261.504 228.922 269.325 202.742 257.922C183.839 247.813 173.477 233.92 168.256 217.107" stroke="#21325B" stroke-width="5" stroke-linecap="round"/>
<path d="M313.559 178.644C316.814 174.445 323.727 169.209 325.349 181.858C326.97 194.507 315.102 202.093 308.965 204.305" stroke="#21325B" stroke-width="5" stroke-linecap="round"/>
<path d="M317.764 183.53C318.977 184.696 320.52 187.722 316.989 190.503" stroke="#21325B" stroke-width="5" stroke-linecap="round"/>
<path d="M221.014 210.401C220.477 213.4 219.229 215.86 217.776 217.431C216.3 219.027 214.886 219.463 213.838 219.275C212.79 219.087 211.615 218.188 210.784 216.18C209.966 214.202 209.649 211.462 210.186 208.462C210.723 205.463 211.972 203.003 213.425 201.432C214.9 199.836 216.314 199.4 217.362 199.588C218.411 199.776 219.585 200.675 220.416 202.683C221.234 204.661 221.551 207.401 221.014 210.401Z" stroke="#21325B" stroke-width="5"/>
<path d="M204.533 231.528C206.655 235.264 212.854 240.623 220.67 232.181" stroke="#21325B" stroke-width="5" stroke-linecap="round"/>
<path d="M227.143 144.957C225.06 151.092 218.041 164.434 206.635 168.714" stroke="#21325B" stroke-width="5" stroke-linecap="round"/>
<path d="M219.815 180.217C219.073 177.037 213.353 170.73 206.636 168.714" stroke="#21325B" stroke-width="5" stroke-linecap="round"/>
<path d="M257.979 137.279C263.129 138.038 273.854 142.167 275.553 152.608" stroke="#21325B" stroke-width="5" stroke-linecap="round"/>
<path d="M185.345 134.425C187.06 130.166 192.872 122.174 202.399 124.285" stroke="#21325B" stroke-width="5" stroke-linecap="round"/>
<ellipse cx="200.882" cy="141.271" rx="4.5" ry="6" transform="rotate(10.1503 200.882 141.271)" fill="#21325B"/>
<ellipse cx="258.937" cy="160.3" rx="5" ry="5.5" transform="rotate(10.1503 258.937 160.3)" fill="#21325B"/>
<path d="M284.256 258.607C330.546 274.486 400.475 309.394 435.874 365.994C471.274 422.593 431.638 450.421 398.686 460.797L334.665 480.607" stroke="#21325B" stroke-width="5" stroke-linecap="round"/>
<path d="M195.293 254.135L186.586 284.012M295.803 223.283L273.199 287.911M171.582 279.391C189.689 288.114 239.105 300.959 291.908 282.555" stroke="#21325B" stroke-width="5" stroke-linecap="round"/>
<path d="M142.173 948.333C83.9363 790.821 88.7429 654.23 107.175 611.671C170.44 658.489 291.533 620.166 332.563 603.607C387.44 661.666 340.029 972.301 309.464 1120.36C297.705 1139.71 272.366 1129.77 261.167 1122.38L247.167 1019.56L231.068 1109.61C222.109 1124.66 195.604 1121.7 183.471 1118.34L142.173 948.333Z" fill="#21325B"/>
<path d="M83.2565 409.107C83.2566 458.107 80.5422 514.952 108.125 609.481C134.553 630.729 191.656 651.033 329.458 603.815C336.537 598.148 336.112 601.435 335.356 570.9C334.412 532.731 334.884 447.461 324.965 403.607" stroke="#21325B" stroke-width="5" stroke-linecap="round"/>
<path d="M446.647 425.607C462.376 444.819 477.98 505.257 446.647 540.405C415.315 575.554 359.665 609.852 335.756 622.607M335.756 530.957L376.809 486.077C379.483 482.927 383.888 474.644 380.113 466.708" stroke="#21325B" stroke-width="5" stroke-linecap="round"/>
<path d="M157.998 1131.09C169.339 1131.09 181.154 1122.64 184.934 1118.42C205.916 1124.21 221.558 1119.62 226.756 1116.61V1135.32C213.714 1148.84 172.883 1151.62 155.162 1145.58C144.529 1140.75 148.291 1131.09 157.998 1131.09Z" stroke="#21325B" stroke-width="5"/>
<path d="M246.573 1131.86C253.877 1130.92 262.258 1125.97 265.535 1123.61C280.705 1132.1 296.67 1129.51 302.756 1127.15V1137.76C302.756 1144.84 297.138 1146.61 293.627 1147.79L260.619 1157.82C252.192 1159.98 238.146 1161.94 231.825 1152.51C224.727 1141.91 237.444 1133.04 246.573 1131.86Z" stroke="#21325B" stroke-width="5"/>
<path d="M162.756 219.607C185.756 207.607 200.756 215.107 201.256 206.107C201.656 198.907 191.756 198.107 186.756 198.607C135.556 197.807 92.7563 226.107 71.2563 243.107C25.2563 279.479 3.92315 350.274 3.25656 383.607C1.92322 406.94 5.95656 454.107 32.7566 456.107C59.5566 458.107 89.534 407.607 94.7566 364.607C99.9791 321.607 110.805 267.507 128.117 265.107M132.756 216.107C145.59 215.607 171.256 219.207 171.256 237.607C171.423 239.607 170.156 243.307 163.756 242.107M145.756 231.107C154.256 235.44 169.756 246.107 163.756 254.107C162.59 255.774 159.256 259.107 155.256 259.107M141.756 244.607C148.59 248.274 160.456 257.907 153.256 267.107C146.056 276.307 137.923 275.607 134.756 274.107C131.495 272.748 126.572 269.351 128.117 265.107M138.756 265.107C138.423 261.774 136.256 256.507 130.256 262.107C129.148 263.141 128.467 264.146 128.117 265.107" stroke="#21325B" stroke-width="5" stroke-linecap="round"/>
<path d="M12.2563 440.607C17.423 456.44 48.1563 503.007 87.7563 516.607" stroke="#21325B" stroke-width="5" stroke-linecap="round"/>
<path d="M107.756 298.107C121.756 287.107 143.656 269.207 195.256 255.607" stroke="#21325B" stroke-width="5" stroke-linecap="round"/>
</svg>
