<?xml version="1.0" encoding="UTF-8"?>
<!DOCTYPE svg PUBLIC "-//W3C//DTD SVG 1.1//EN" "http://www.w3.org/Graphics/SVG/1.1/DTD/svg11.dtd">
<!-- Creator: CorelDRAW 2021.5 -->
<svg xmlns="http://www.w3.org/2000/svg" xml:space="preserve" width="32px" height="32px" version="1.1" style="shape-rendering:geometricPrecision; text-rendering:geometricPrecision; image-rendering:optimizeQuality; fill-rule:evenodd; clip-rule:evenodd"
viewBox="0 0 33.918 33.918"
 xmlns:xlink="http://www.w3.org/1999/xlink"
 xmlns:xodm="http://www.corel.com/coreldraw/odm/2003">
 <defs>
  <style type="text/css">
   <![CDATA[
    .str1 {stroke:#002942;stroke-width:0.027;stroke-miterlimit:2.61313}
    .str0 {stroke:white;stroke-width:0.027;stroke-miterlimit:2.61313}
    .str3 {stroke:#002942;stroke-width:0.666;stroke-linecap:round;stroke-linejoin:round;stroke-miterlimit:2.61313}
    .str2 {stroke:#0587C7;stroke-width:1.066;stroke-linecap:round;stroke-linejoin:round;stroke-miterlimit:2.61313}
    .fil4 {fill:none}
    .fil1 {fill:#002942}
    .fil3 {fill:#DF1F27}
    .fil2 {fill:#F58020}
    .fil0 {fill:white}
   ]]>
  </style>
 </defs>
 <g id="Layer_x0020_1">
  <metadata id="CorelCorpID_0Corel-Layer"/>
  <rect class="fil0 str0" x="0.013" y="0.013" width="33.892" height="33.892"/>
  <path class="fil1 str1" d="M21.755 27.139c-0.675,-0.575 -4.188,-13.102 -4.296,-14.271 1.247,0.03 1.291,-2.194 -0.133,-2.251 -1.018,-0.04 -1.897,1.584 -0.279,2.215 -0.234,1.402 -2.896,13.455 -3.605,14.307l8.313 0zm-1.219 -0.767c-0.195,-0.511 -0.359,-1.027 -0.45,-1.298 -0.512,-1.53 -0.977,-3.084 -1.429,-4.633 -0.458,-1.573 -0.901,-3.152 -1.318,-4.736 -0.019,-0.072 -0.038,-0.144 -0.057,-0.216 -0.016,0.071 -0.032,0.143 -0.048,0.214 -0.341,1.559 -0.696,3.114 -1.065,4.666 -0.363,1.53 -0.738,3.063 -1.158,4.578 -0.086,0.31 -0.237,0.879 -0.416,1.425l5.941 0z"/>
  <path class="fil2" d="M20.609 8.429c-0.37,0.146 -0.356,0.648 -0.048,0.85 0.188,0.124 0.207,0.123 0.362,0.275 1.162,1.136 1.208,2.971 0.123,4.263 -0.287,0.342 -0.624,0.417 -0.665,0.648 -0.028,0.158 -0.088,0.471 0.038,0.565 0.154,0.114 0.449,0.06 0.603,0.002 0.336,-0.125 0.828,-0.642 0.996,-0.952 0.098,-0.181 0.175,-0.231 0.264,-0.409 0.503,-1.004 0.565,-1.66 0.394,-2.747 -0.038,-0.24 -0.092,-0.32 -0.157,-0.521 -0.139,-0.43 -0.226,-0.519 -0.427,-0.881 -0.165,-0.297 -0.964,-1.299 -1.483,-1.093z"/>
  <path class="fil2" d="M13.595 8.409c-0.296,0 -0.293,0.077 -0.43,0.227 -0.102,0.111 -0.227,0.212 -0.356,0.319l-0.56 0.756c-0.757,1.276 -0.683,2.888 0.041,4.143 0.062,0.107 0.162,0.237 0.257,0.382l0.647 0.701c0.755,0.472 1.171,-0.231 0.77,-0.626 -0.107,-0.105 -0.246,-0.176 -0.353,-0.287 -1.182,-1.232 -1.352,-2.883 -0.268,-4.252 0.108,-0.136 0.182,-0.225 0.306,-0.332 0.13,-0.111 0.292,-0.179 0.376,-0.299 0.255,-0.365 0.04,-0.732 -0.43,-0.732z"/>
  <path class="fil3" d="M19.241 9.421c-0.177,0.108 -0.292,0.455 -0.13,0.666 0.396,0.515 0.47,0.202 0.85,1.069 0.223,0.508 0.091,1.117 -0.193,1.559 -0.316,0.493 -0.931,0.586 -0.693,1.141 0.091,0.213 0.365,0.349 0.669,0.187 0.421,-0.225 0.7,-0.577 0.923,-0.996 0.546,-1.023 0.447,-2.019 -0.215,-2.953 -0.235,-0.332 -0.752,-0.951 -1.211,-0.673z"/>
  <path class="fil3" d="M15.395 9.812c0,-0.622 -0.694,-0.55 -1.117,-0.063 -0.202,0.232 -0.443,0.556 -0.586,0.834 -0.049,0.096 -0.086,0.265 -0.122,0.373 -0.19,0.575 -0.164,1.092 0.011,1.672 0.114,0.376 0.583,1.031 0.765,1.194 0.626,0.566 1.103,0.195 1.046,-0.275 -0.034,-0.289 -0.54,-0.409 -0.842,-1.065 -0.258,-0.558 -0.23,-0.982 0.031,-1.54 0.217,-0.463 0.177,-0.299 0.432,-0.531 0.205,-0.186 0.382,-0.296 0.382,-0.599z"/>
  <path class="fil4 str2" d="M7.141 17.609l-3.327 1.921c-1.301,-2.25 -2.046,-4.862 -2.046,-7.648 0,-2.786 0.745,-5.398 2.046,-7.647l3.327 1.92c1.049,0.606 1.524,1.824 1.162,2.98 -0.272,0.868 -0.418,1.79 -0.418,2.747 0,0.957 0.146,1.88 0.418,2.747 0.362,1.156 -0.113,2.374 -1.162,2.98zm0.744 -5.727l-6.117 0m28.538 -7.647l-5.298 3.059c0.781,1.349 1.228,2.917 1.228,4.588 0,1.672 -0.447,3.239 -1.228,4.589l5.298 3.059m-4.07 -7.648l6.117 0"/>
  <polyline class="fil4 str3" points="16.309,17.672 18.558,19.465 15.49,21.448 19.925,23.636 14.082,26.499 "/>
 </g>
</svg>
