<svg xmlns="http://www.w3.org/2000/svg" viewBox="0 0 500 500"><g id="freepik--background-complete--inject-34"><path d="M142.6,221.15a21.48,21.48,0,0,1-.56-31.08c4-4-2.19-10.15-6.16-6.17a30.31,30.31,0,0,0,.55,43.42c4.08,3.85,10.26-2.3,6.17-6.17Z" style="fill:#e0e0e0"></path><path d="M106.63,247.66c-10.25-11.75-16.73-25.79-16.84-41.55s5.36-31.05,16-42.54c3.82-4.11-2.33-10.29-6.16-6.17a70.78,70.78,0,0,0-18.61,48.71c.13,18.13,7.62,34.22,19.39,47.71,3.7,4.24,9.85-1.95,6.17-6.16Z" style="fill:#e0e0e0"></path><path d="M126.58,237.17a42.66,42.66,0,0,1-1.18-62.68c4-3.94-2.16-10.11-6.17-6.17a51.35,51.35,0,0,0,1.19,75c4.13,3.78,10.31-2.37,6.16-6.17Z" style="fill:#e0e0e0"></path><rect x="76.52" y="77.23" width="62.02" height="16.41" style="fill:#ebebeb"></rect><path d="M112.31,110.92a1.85,1.85,0,0,1,0-.3c0-.22,0-.49,0-.84,0-.77,0-1.85,0-3.23,0-2.83-.06-6.9-.1-12l.19.2-62,.12.32-.32h0v4.17c0,1.39,0,2.77,0,4.14v8.07l-.31-.31,44.2.14,13,.09,3.53,0,.92,0,.33,0a.83.83,0,0,1-.29,0l-.88,0-3.46,0-13,.09-44.41.14H50v-8.38c0-1.37,0-2.75,0-4.14V94.54h0c.64-.63.18-.17.32-.31l62,.12h.19v.19c0,5.19-.08,9.3-.1,12.16,0,1.36,0,2.42-.05,3.18,0,.33,0,.6,0,.81A1.1,1.1,0,0,1,112.31,110.92Z" style="fill:#e0e0e0"></path><path d="M282.19,57.61a1.66,1.66,0,0,1,0-.34c0-.24,0-.56,0-.94,0-.87,0-2.08-.05-3.64,0-3.18-.07-7.77-.12-13.54l.22.21-69.79.14c.16-.16-.35.36.36-.35h0v4.71c0,1.56,0,3.12,0,4.66v9.08l-.35-.35,49.73.16,14.68.1,4,0,1,0a1.69,1.69,0,0,1,.37,0l-.33,0-1,0-3.9.05-14.6.1-50,.16h-.35V43.87c0-.78,0-1.57,0-2.36V39.16h0l.36-.36,69.79.14h.21v.22c0,5.83-.09,10.45-.12,13.67,0,1.53,0,2.73,0,3.59,0,.37,0,.67,0,.91S282.19,57.62,282.19,57.61Z" style="fill:#e0e0e0"></path><path d="M291.65,39.15a1.84,1.84,0,0,1,0-.35c0-.27,0-.59,0-1,0-.91,0-2.15-.06-3.7,0-3.24-.08-7.81-.14-13.44l.26.26-41.93.1.35-.35h0v9.5c0,3.08,0,6.08,0,9l-.34-.34,30,.16,8.74.09,2.36,0a5.34,5.34,0,0,1,.84,0s-.25,0-.76,0l-2.29,0-8.66.09-30.22.17h-.34v-.34c0-2.87,0-5.87,0-8.95,0-1.55,0-3.12,0-4.7V20.7h0c-.08.07.68-.68.36-.36l41.93.1h.26v.25c0,5.69-.1,10.32-.13,13.59,0,1.54,0,2.75-.07,3.65A11.17,11.17,0,0,1,291.65,39.15Z" style="fill:#e0e0e0"></path><path d="M450.4,372.26a1.66,1.66,0,0,1,0-.34c0-.24,0-.56,0-.94,0-.87,0-2.08-.05-3.64,0-3.19-.07-7.77-.12-13.54l.22.21-69.79.14c.16-.16-.35.36.36-.35h0v4.71c0,1.56,0,3.12,0,4.66v9.08l-.35-.35,49.73.16,14.68.1,4,0,1,0a1.69,1.69,0,0,1,.37,0l-.33,0-1,0-3.9.05-14.6.1-50,.16h-.35v-9.43c0-1.54,0-3.1,0-4.66v-4.71h0l.36-.36,69.79.14h.21v.22c-.05,5.83-.09,10.45-.12,13.67,0,1.53,0,2.73-.05,3.59,0,.37,0,.67,0,.9S450.4,372.26,450.4,372.26Z" style="fill:#e0e0e0"></path><path d="M459.86,353.8a1.89,1.89,0,0,1,0-.36c0-.26,0-.58,0-1,0-.91,0-2.15-.06-3.71,0-3.23-.08-7.8-.14-13.43l.26.26-41.93.1.35-.35h0v9.49c0,3.09,0,6.09,0,9l-.34-.34,30,.16,8.74.09,2.36,0a6,6,0,0,1,.84.05s-.25,0-.76,0l-2.29,0-8.66.09-30.22.16h-.34v-.34c0-2.87,0-5.87,0-9,0-1.54,0-3.11,0-4.69v-4.8h0l.36-.36,41.93.1h.26v.25c-.05,5.69-.1,10.32-.13,13.59,0,1.53-.05,2.75-.07,3.64A11.28,11.28,0,0,1,459.86,353.8Z" style="fill:#e0e0e0"></path><rect x="386.35" y="65.23" width="62.02" height="16.41" style="fill:#ebebeb"></rect><path d="M422.14,98.92s0-.11,0-.3,0-.5,0-.84c0-.77,0-1.85,0-3.23,0-2.83-.06-6.91-.11-12l.19.19-62,.13c.14-.14-.32.31.31-.32h0v8.33c0,2.74,0,5.43,0,8.07l-.31-.31,44.2.14,13.05.09,3.52,0,.93,0a1.14,1.14,0,0,1,.32,0l-.28,0L421,99l-3.46,0-13,.09-44.42.14h-.31V82.52h0l.32-.32,62,.13h.2v.19c0,5.18-.09,9.29-.11,12.15,0,1.36,0,2.43-.05,3.19,0,.33,0,.6,0,.81A.71.71,0,0,1,422.14,98.92Z" style="fill:#e0e0e0"></path><rect x="281.99" y="211.21" width="62.02" height="16.41" style="fill:#ebebeb"></rect><path d="M317.79,244.9a2,2,0,0,1,0-.3c0-.22,0-.5,0-.84,0-.77,0-1.85-.05-3.23,0-2.83-.06-6.91-.1-12l.19.19-62,.13c.14-.14-.32.31.32-.32h0v2.09c0,.7,0,1.4,0,2.1V244.9l-.31-.31,44.2.14,13,.09,3.53,0,.92,0a1.32,1.32,0,0,1,.33,0l-.29,0-.88,0-3.46,0-13,.09-44.41.14h-.31v-.31q0-4,0-8.07V228.5h0l.32-.32,62,.13H318v.19c0,5.18-.08,9.29-.1,12.15,0,1.37,0,2.43-.05,3.19,0,.33,0,.6,0,.81A1.21,1.21,0,0,1,317.79,244.9Z" style="fill:#e0e0e0"></path><rect x="63.24" y="412.48" width="62.02" height="16.41" style="fill:#ebebeb"></rect><path d="M99,446.17a2,2,0,0,1,0-.3c0-.22,0-.5,0-.84,0-.77,0-1.85,0-3.23,0-2.83-.06-6.9-.1-12L99,430l-62,.13.32-.32h0v2.09c0,.7,0,1.4,0,2.1v12.21l-.31-.31,44.2.14,13,.09,3.53,0,.92,0,.33,0a1.38,1.38,0,0,1-.29,0l-.88,0-3.46,0-13,.09L37,446.48h-.31v-.31q0-4,0-8.07v-8.33h0l.32-.32,62,.13h.19v.19c0,5.18-.08,9.29-.1,12.15,0,1.37,0,2.43,0,3.19,0,.33,0,.6,0,.81A1.21,1.21,0,0,1,99,446.17Z" style="fill:#e0e0e0"></path><path d="M405.72,447.2a2.47,2.47,0,0,1,0-.34c0-.24,0-.56,0-.94,0-.87,0-2.08-.05-3.64,0-3.19-.07-7.77-.12-13.54l.21.21-69.78.14.35-.35h0v9.37q0,4.62,0,9.08l-.34-.35,49.73.16,14.68.1,4,0,1,0a1.61,1.61,0,0,1,.37,0,1.7,1.7,0,0,1-.32,0l-1,0-3.89.05-14.6.1-50,.16h-.35v-.35c0-3,0-6,0-9.08v-9.37h0l.36-.36,69.78.14h.22v.22c-.05,5.83-.09,10.45-.12,13.67,0,1.53,0,2.73-.05,3.59q0,.56,0,.9A.92.92,0,0,1,405.72,447.2Z" style="fill:#e0e0e0"></path><path d="M201.18,284.44a1.25,1.25,0,0,1,0-.33c0-.25,0-.56,0-.95,0-.87,0-2.08,0-3.63,0-3.19-.07-7.77-.12-13.55l.22.22-69.78.14c.15-.16-.36.35.35-.36h0v9.36q0,4.63,0,9.08l-.35-.34,49.73.15,14.68.1,4,0,1,0,.37,0a1.15,1.15,0,0,1-.32,0l-1,0-3.89.05-14.6.09-50,.16h-.34V266h0c.71-.71.2-.19.36-.35l69.78.14h.22V266c-.06,5.83-.1,10.46-.12,13.68,0,1.53,0,2.73-.06,3.58,0,.38,0,.67,0,.91A1.38,1.38,0,0,1,201.18,284.44Z" style="fill:#e0e0e0"></path></g><g id="freepik--Character--inject-34"><path d="M284.28,205.38c4.93-11,9.81-22.18,12.77-33.91s3.9-24.17.9-35.89c-.45-1.77-4.65-13.81-6.49-13.82-1.31,0,.9,11,.12,12.09-7.39,10.09-10.46,22.83-10.77,35.33s1.09,23.92,3.47,36.2" style="fill:#263238"></path><path d="M209.78,264.9c.81-8.51,1.42-15.22,1.35-15.23s-28.83-6-27.68-35.11c.55-14,4.05-42.88,7.51-68.94a54.23,54.23,0,0,1,56.56-47l2.81.14c30.14,3.34,44.15,30.8,40,60.84L279.09,265.16,220.33,298Z" style="fill:#ffbf9d"></path><path d="M211.13,249.67s18.27,2,38.42-9.23c0,0-10.21,21.1-39.07,17Z" style="fill:#ff9a6c"></path><path d="M198.16,171.26a4.15,4.15,0,0,0,3.78,4.39,4,4,0,0,0,4.47-3.52,4.15,4.15,0,0,0-3.78-4.39A4,4,0,0,0,198.16,171.26Z" style="fill:#263238"></path><path d="M196.55,158c.49.57,3.75-1.6,8.22-1.35s7.62,2.64,8.13,2.12c.25-.23-.22-1.23-1.59-2.35a11.52,11.52,0,0,0-6.48-2.37,11,11,0,0,0-6.58,1.76C196.83,156.8,196.31,157.75,196.55,158Z" style="fill:#263238"></path><path d="M238,175.59a4.15,4.15,0,0,0,3.78,4.4,4,4,0,0,0,4.47-3.52,4.16,4.16,0,0,0-3.78-4.4A4,4,0,0,0,238,175.59Z" style="fill:#263238"></path><path d="M240.2,162.08c.49.57,3.76-1.59,8.22-1.35s7.62,2.65,8.14,2.12c.25-.23-.22-1.23-1.6-2.34a11.38,11.38,0,0,0-6.48-2.37,10.92,10.92,0,0,0-6.57,1.75C240.48,160.87,240,161.83,240.2,162.08Z" style="fill:#263238"></path><path d="M222.4,195.57c0-.25-2.71-.88-7.18-1.69-1.14-.17-2.2-.45-2.36-1.24s.32-2,.94-3.34l3.82-8.51c5.33-12.12,9.24-22.11,8.76-22.32s-5.21,9.44-10.53,21.56q-1.93,4.49-3.69,8.57c-.49,1.27-1.31,2.7-.82,4.44a2.88,2.88,0,0,0,1.79,1.77,7.66,7.66,0,0,0,1.92.37C219.57,195.66,222.37,195.82,222.4,195.57Z" style="fill:#263238"></path><path d="M242.13,145.42c.38,1.23,4.87.89,10.07,1.79s9.37,2.55,10.13,1.5c.33-.51-.34-1.69-2-3A17.81,17.81,0,0,0,245,143.25C243,143.93,242,144.83,242.13,145.42Z" style="fill:#263238"></path><path d="M197.15,145c.74,1.06,3.87.16,7.57.31s6.8,1,7.57,0c.34-.5-.1-1.54-1.42-2.57a11,11,0,0,0-12.19-.26C197.32,143.46,196.83,144.48,197.15,145Z" style="fill:#263238"></path><path d="M286.83,181c.5-.19,20.27-4.87,18.61,15s-21.24,14.07-21.23,13.5S286.83,181,286.83,181Z" style="fill:#ffbf9d"></path><path d="M290.9,202.48c.1-.06.33.27.89.58a3.46,3.46,0,0,0,2.58.27c2.16-.59,4.2-3.77,4.6-7.34a11.44,11.44,0,0,0-.55-5A4,4,0,0,0,296,188.1a1.76,1.76,0,0,0-2.12.77c-.31.53-.22.94-.33,1s-.39-.37-.17-1.18a2.26,2.26,0,0,1,.89-1.18,2.65,2.65,0,0,1,1.95-.34c1.52.23,2.78,1.76,3.35,3.38a11.66,11.66,0,0,1,.74,5.63c-.46,4-2.82,7.55-5.76,8.14a3.7,3.7,0,0,1-3.12-.79C290.9,203,290.83,202.51,290.9,202.48Z" style="fill:#ff9a6c"></path><path d="M206.83,114c-3-2.07,7.55-11.56,15.77-14.41,12.41-4.3,30.91-5.94,41.61-1.8,12.88,5,23.25,12.57,28.78,25.23s6.71,26.91,5.05,40.61c-.5,4.18-1.34,8.51-3.91,11.85-3.18,4.13-8.75,6.4-9.07,12.46a8.34,8.34,0,0,1-2.62,5.86c-4,3.52-8.09-.51-9.79-4.34C269,181.28,269.39,172,269.83,163c.31-6.34.66-12.82,3-18.73,1.28-3.21,3.12-6.19,4.22-9.47s1.35-7.09-.48-10a12.69,12.69,0,0,0-1.46-1.77A20.76,20.76,0,0,0,255,117.22c-11.53,2.91-31.13,7-35.76,2.79-6.66-6.11-8-9.82-8-9.82Z" style="fill:#263238"></path><path d="M261.63,83.19c1.34.26,33.7,9.55,40.5,34.44s4,32.26,4,32.26a15.67,15.67,0,0,1,3.25,3.14c1.28,1.68-1.16,9.26-5.39,8.15-31.21-16-62.39-22.71-106.47-22.2l-31.23.79c-10.13,0-6.91-5.42-3-7.47,3-1.57,24.54-9.73,24.54-9.73h0l13.26-20s-1.5-2.67,1.89-4.62S235.1,77.93,261.63,83.19Z" style="fill:#FF8B2D"></path><g style="opacity:0.30000000000000004"><path d="M290.74,99.3c-12.43-9.77-33.85-10.53-42.18-8.27-15.09,4.08-27.72,14.25-27.72,14.25,2.37,1.42,3.81.55,6.29-.67,6-3,9.13-5.26,14.24-7.17,0,0,11.06-5.12,21-4.43s28.4,6.29,28.4,6.29"></path></g><path d="M291.25,99.52a25.65,25.65,0,0,0-3.05-2.26,44.12,44.12,0,0,0-9.26-4.59,52.16,52.16,0,0,0-15-3,44.09,44.09,0,0,0-18.54,2.53,79.65,79.65,0,0,0-8.82,4.13c-2.76,1.5-5.48,2.8-8,4.3a46.85,46.85,0,0,1-7.11,4,15.24,15.24,0,0,1-6.9,1c-8.69-.38-13.92-2.48-13.5-3a1.44,1.44,0,0,0,.66.73,11,11,0,0,0,2.61,1,47.9,47.9,0,0,0,10.21,1.62,15.73,15.73,0,0,0,7.09-1,48.11,48.11,0,0,0,7.2-4c2.45-1.47,5.2-2.77,7.95-4.26a81.18,81.18,0,0,1,8.77-4.09,44.15,44.15,0,0,1,18.32-2.54A52.93,52.93,0,0,1,278.81,93a46.36,46.36,0,0,1,9.27,4.41c1,.64,1.82,1.17,2.34,1.54S291.25,99.52,291.25,99.52Z" style="fill:#263238"></path><g style="opacity:0.30000000000000004"><path d="M304.62,128c-6.33-.41-11-2.33-17.25-4.06-6.62-1.85-13.19-3.39-19.71-5.55-5-1.64-10.83-3.19-13.9-7a7.38,7.38,0,0,0,1.85,7c1.82,1.95,8.78,3.35,11.32,4.2,14.44,4.84,23.41,6.61,38.78,11.19a43.38,43.38,0,0,0-1.09-5.75"></path></g><path d="M187.83,122.57a1.94,1.94,0,0,1,.32,0l.94.09,3.58.36,13.16,1.48c11.11,1.32,26.47,3.18,43.22,6.5,8.38,1.68,16.28,3.64,23.4,5.68,3.54,1.06,6.92,2.06,10,3.16s6,2.12,8.61,3.11,4.93,2,7,2.86,3.79,1.66,5.2,2.33l3.25,1.55.84.41c.19.1.29.15.28.16l-.3-.11-.86-.37-3.29-1.45c-1.43-.65-3.17-1.44-5.23-2.25s-4.38-1.86-7-2.78-5.49-2.06-8.62-3.05-6.47-2.06-10-3.11c-7.11-2-15-4-23.37-5.63-16.73-3.31-32.07-5.24-43.16-6.65l-13.14-1.64-3.57-.46-.93-.13A1.76,1.76,0,0,1,187.83,122.57Z" style="fill:#263238"></path><path d="M301.26,114.91c3.91,2,6.31,3.28,6.23,6.71-.07,2.85-.84,6.29-3.67,6.63a7,7,0,0,1-2.57-.34L258,116.6c-1.46-.38-3-.85-3.91-2.09-1.33-1.9-.13-4.73,1.86-5.92s4.46-1.2,6.78-1.11c13.2.52,25.92,3.43,38.51,7.43" style="fill:#FF8B2D"></path><path d="M301.26,114.91l-.31-.07-.9-.26-3.44-1c-3-.85-7.35-2-12.79-3.18a126.83,126.83,0,0,0-19.33-2.6,29.85,29.85,0,0,0-5.59,0,5.76,5.76,0,0,0-4.59,2.91,3.72,3.72,0,0,0-.38,2.74,3.32,3.32,0,0,0,1.86,2.06,15,15,0,0,0,2.91,1l3.07.8,23.17,6.08,10.1,2.67,4.58,1.22c1.47.34,2.88.93,4.2.78a3.51,3.51,0,0,0,2.75-2.33,10.89,10.89,0,0,0,.74-3.4,6.06,6.06,0,0,0-.36-3,5.56,5.56,0,0,0-1.58-2,21.41,21.41,0,0,0-3-1.9l-.82-.45-.27-.16a1.38,1.38,0,0,1,.3.12l.84.4a18.36,18.36,0,0,1,3.09,1.83,5.64,5.64,0,0,1,1.68,2,6.11,6.11,0,0,1,.43,3.08,11,11,0,0,1-.73,3.51,5,5,0,0,1-1.09,1.66,3.39,3.39,0,0,1-1.91.91,6,6,0,0,1-2.18-.21l-2.17-.55-4.59-1.19-10.12-2.62-23.18-6-3.06-.8a14.94,14.94,0,0,1-3-1,3.81,3.81,0,0,1-2.13-2.38,4.37,4.37,0,0,1,.42-3.12A5.3,5.3,0,0,1,256,108.3a8,8,0,0,1,2.84-.94,30.2,30.2,0,0,1,5.7,0,123.45,123.45,0,0,1,19.38,2.72c5.44,1.2,9.78,2.44,12.76,3.35,1.49.46,2.65.82,3.42,1.08l.89.31Z" style="fill:#263238"></path><path d="M234.58,203.67a.56.56,0,0,0-.85-.52c-4.78,1.35-10.51,3-15.29,4.36.59,1.61,1.42,4.73,2.34,6.18a8.08,8.08,0,0,0,3.78,3.35c3.18,1.24,7-.56,8.78-3.46S235.26,207,234.58,203.67Z" style="fill:#ff9a6c"></path><path d="M223.7,216.79a12.51,12.51,0,0,1,1.47.3,7.55,7.55,0,0,0,3.89-.43,8.08,8.08,0,0,0,4.17-3.85,10.93,10.93,0,0,0,1-6.94,13.48,13.48,0,0,0-.73-2.53l.62.31c-4.48,1.25-8.42,2.48-11.3,3.2a19.58,19.58,0,0,1-4.68.89c0-.14,1.69-.65,4.49-1.55s6.71-2.24,11.21-3.53l.44-.13.18.43a14.32,14.32,0,0,1,.79,2.72,11.52,11.52,0,0,1-1.16,7.59,8.56,8.56,0,0,1-4.76,4.08,7.16,7.16,0,0,1-4.23.13C224.11,217.2,223.68,216.84,223.7,216.79Z" style="fill:#263238"></path><path d="M162.13,337.72V475.49l187.87.75s-14.73-193.43-18.69-195.32c-3-1.41-39.25-13.31-39.25-13.31l-6.94-15-75.9,23.13L185,281Z" style="fill:#FF8B2D"></path><path d="M292.06,267.61a3.3,3.3,0,0,1-.27.73c-.2.5-.49,1.2-.85,2.08l-3.23,7.76c-1.36,3.32-3,7.33-4.73,11.9a144,144,0,0,0-5.12,15.37l-.16.62-.37-.51c-1.6-2.15-3.19-4.45-4.86-6.78A54.4,54.4,0,0,0,266.9,292a52.94,52.94,0,0,0-4.64-4.12l.42,0c-9.91,10.58-19.21,19.49-26.06,25.7-3.42,3.11-6.22,5.55-8.17,7.21l-2.25,1.9-.59.48-.22.15a1.24,1.24,0,0,1,.18-.2l.55-.52,2.18-2c1.9-1.71,4.66-4.2,8-7.35,6.76-6.28,16-15.23,25.88-25.81l.2-.21.22.17a47.88,47.88,0,0,1,10.33,11c1.67,2.35,3.25,4.64,4.84,6.79l-.53.11a141.28,141.28,0,0,1,5.22-15.42c1.78-4.57,3.45-8.56,4.87-11.87s2.57-5.91,3.38-7.69c.41-.87.72-1.55.95-2A4.89,4.89,0,0,1,292.06,267.61Z" style="fill:#263238"></path><path d="M210.37,261.64l-2.23,33.87,16.09,28.76,58.84-71.69S210.91,261.6,210.37,261.64Z" style="fill:#ffbf9d"></path><path d="M194.18,274.1c-.21,1.39-12.77,25.28-12.77,25.28s16-16.22,15.75-15.51S222,320.14,222,320.14l-13.64-31.5,2.31-35Z" style="fill:#FF8B2D"></path><path d="M194.18,274.1s.08-.13.26-.37l.83-1.06c.75-1,1.84-2.33,3.23-4.09l12-15,.35-.44,0,.57c-.63,9.69-1.39,21.61-2.25,35l0-.11L222,319.48l.24.55,1,2.33-1.46-2.07c-7.42-10.55-14.47-20.61-20.76-29.87l-2.3-3.45-1.09-1.71c-.18-.29-.36-.57-.52-.87l-.12-.24L197,284a.33.33,0,0,1,0-.2c0-.05,0,.07,0,.13a.27.27,0,0,0,.12.12.14.14,0,0,0,.14,0h0a3.89,3.89,0,0,0-.34.27c-1.94,1.78-3.76,3.61-5.53,5.35l-9.81,9.82-.87.87.58-1.09c4.08-7.74,7.36-14,9.59-18.37,1.11-2.18,2-3.87,2.53-5,.28-.58.48-1,.62-1.33s.19-.46.19-.46,0,.16-.14.48-.31.76-.57,1.35c-.53,1.18-1.36,2.89-2.45,5.08-2.17,4.39-5.4,10.69-9.45,18.46l-.29-.22,9.76-9.86c1.77-1.76,3.57-3.59,5.54-5.39a3.06,3.06,0,0,1,.44-.35l0,0a.37.37,0,0,1,.18,0,.2.2,0,0,1,.13.14c.22.13-.26.11-.17.11a.41.41,0,0,0,.19,0s0,0,0,0l0,.09.11.2c.16.29.33.57.51.86l1.1,1.7,2.3,3.43c6.3,9.24,13.36,19.29,20.79,29.84l-.45.25-.24-.55c-4.74-10.94-9.26-21.41-13.39-30.95l0-.05v-.06c.9-13.38,1.71-25.3,2.37-35l.32.13-12.14,14.91-3.32,4-.87,1Z" style="fill:#263238"></path><g style="opacity:0.30000000000000004"><path d="M348.18,452l-99.7-156.57L239.87,302a16.67,16.67,0,0,1,.85,2.45c1.53,5.22,4.47,17.74,9.93,36,6.73,22.59,27,71.44,44.53,95.41s25.35,30.15,38.25,30.75,15.82-.15,15.82-.15Z"></path></g><path d="M210.5,254.77a6.43,6.43,0,0,1-.6,1.11l-1.74,3c-1.45,2.5-3.37,6-5.27,10s-3.4,7.69-4.42,10.39l-1.2,3.21a6.76,6.76,0,0,1-.48,1.17,5.39,5.39,0,0,1,.29-1.23c.22-.78.57-1.9,1-3.27a103.45,103.45,0,0,1,4.3-10.5,100.61,100.61,0,0,1,5.43-10c.77-1.23,1.41-2.21,1.88-2.88A5.56,5.56,0,0,1,210.5,254.77Z" style="fill:#263238"></path><path d="M331.31,280.92S358.79,286.53,365,313c4.79,20.52,12.31,61.74,12.31,61.74l-45.36-3.16-14.17-20.45Z" style="fill:#FF8B2D"></path><path d="M245.1,310.06s43.13,96.69,57.64,117.49c15,21.52,29.22,35,47.68,29.37S376,437.71,376.6,424.57c.54-12.71-4.77-51.52-4.77-51.52l-39.91-1.49L277.74,293.4Z" style="fill:#ffbf9d"></path><path d="M223.65,263.64,241,214.86s2.19-4,7.19-2c1.84.73,23.37,8.48,23.37,8.48s2.08,1.34,1.14,4.71c-.6,2.15-18.49,52.21-18.49,52.21l-28.45-10.14A3.49,3.49,0,0,1,223.65,263.64Z" style="fill:#455a64"></path><rect x="248.02" y="208.09" width="10.97" height="6.92" transform="translate(84.83 -72.29) rotate(19.43)" style="fill:#455a64"></rect><path d="M288.7,141.51c-1,1-26.35,76.57-26.35,76.57l5.41,1.86,23.91-77.19Z" style="fill:#455a64"></path><path d="M245.83,311.92s-10.46-14.7-12.38-27.81-4.91-19.39-4.91-19.39-8.47-10.1-7.1-15.84,4.64-4.64,4.64-4.64a7,7,0,0,1,.55-8.74c3.82-4.37,9.55-.27,9.55-.27s-7.85-7-3.27-11.2c3.51-3.25,7.92,0,7.92,0l10.1,5.73S239.68,217.53,239.68,214s3.72-6.76,7-4.57,18.18,18.17,18.18,18.17l5.51,6.08,1.46-4.21a36.88,36.88,0,0,0,5.59,6.32c2,1.89,3.71,3.71,4.93,5a6.88,6.88,0,0,1,1.85,4.67c0,5.18-.07,16.35-1.31,19.26-1.64,3.83-8.24,24.21-8.24,24.21l6,8.72" style="fill:#ffbf9d"></path><path d="M280.68,297.65l-.41-.55-1.17-1.65L274.56,289l0,0v-.05c1-3,2.14-6.59,3.5-10.78s2.95-9,4.91-14.18a48.22,48.22,0,0,0,.89-8.64c.12-3,.16-6.2.14-9.48a6.74,6.74,0,0,0-1.49-4.52c-1.12-1.23-2.37-2.44-3.58-3.69-2.43-2.51-5.17-4.91-7.29-8l.42,0-1.46,4.2-.13.38-.27-.3c-5.67-6.33-11.85-12.89-18.5-19.51a52,52,0,0,0-5.24-4.73,4,4,0,0,0-1.57-.58,3.5,3.5,0,0,0-1.66.18,4.87,4.87,0,0,0-2.55,2.21,5,5,0,0,0-.62,1.62,4.93,4.93,0,0,0-.1.86,2.35,2.35,0,0,0,.12.83,14.16,14.16,0,0,0,1.65,3.21,72.06,72.06,0,0,0,4.45,6c1.61,2,3.27,3.88,5,5.73l1.1,1.21L250.8,230l-10.1-5.74h0a7.21,7.21,0,0,0-5-1.32,4.73,4.73,0,0,0-2.32,1.13,6.6,6.6,0,0,0-.89.94l-.3.56c-.05.1-.1.19-.14.28l-.08.31c-.47,1.67.27,3.43,1.13,4.91a20,20,0,0,0,3.33,4l-.31.39a10,10,0,0,0-4.67-1.69,6,6,0,0,0-2.39.36,5.78,5.78,0,0,0-2,1.35,6.81,6.81,0,0,0-2,4.24,7.08,7.08,0,0,0,1.24,4.41l.35.52-.61-.16a2.84,2.84,0,0,0-2.77,1,7.58,7.58,0,0,0-1.41,2.84c-.69,2.05-.09,4.2.63,6.12a41.59,41.59,0,0,0,6.23,10.15l0,0h0c3,7.27,4.09,14.32,5.07,20.44a45.4,45.4,0,0,0,2.33,8.3c.95,2.49,1.92,4.73,2.9,6.69a100.1,100.1,0,0,0,4.91,8.86l1.42,2.24.48.76s-.19-.24-.53-.73-.84-1.22-1.47-2.2a93.89,93.89,0,0,1-5-8.82c-1-2-2-4.2-2.95-6.7a45.44,45.44,0,0,1-2.39-8.35c-.52-3.07-1-6.34-1.82-9.76a64.08,64.08,0,0,0-3.29-10.55l0,0a41.93,41.93,0,0,1-6.33-10.26l-.29-.74-.23-.77a12,12,0,0,1-.35-1.58,4.56,4.56,0,0,1-.08-.82,5.89,5.89,0,0,1,0-.84,9,9,0,0,1,1.81-4.67,3.27,3.27,0,0,1,3.25-1.15l-.26.36a7.55,7.55,0,0,1-1.33-4.72,7.24,7.24,0,0,1,2.11-4.54,6.23,6.23,0,0,1,2.13-1.48,6.77,6.77,0,0,1,2.6-.39,10.58,10.58,0,0,1,4.93,1.77l-.31.39a20.25,20.25,0,0,1-3.43-4.1,10.62,10.62,0,0,1-1.12-2.5,5,5,0,0,1-.07-2.8l.09-.35c0-.11.11-.22.16-.32l.34-.64a8.12,8.12,0,0,1,1-1,5.28,5.28,0,0,1,2.56-1.23,6.38,6.38,0,0,1,2.85.18,9.09,9.09,0,0,1,2.6,1.22h0l10.11,5.73-.32.4q-2.53-2.79-5-5.75a69.92,69.92,0,0,1-4.48-6,14.26,14.26,0,0,1-1.72-3.34,3,3,0,0,1-.14-1,6,6,0,0,1,.11-.95,5.57,5.57,0,0,1,.68-1.78,5.42,5.42,0,0,1,2.83-2.44,4.11,4.11,0,0,1,1.9-.2,4.51,4.51,0,0,1,1.78.66,51,51,0,0,1,5.31,4.79c6.66,6.64,12.84,13.22,18.5,19.57l-.4.08c.51-1.46,1-2.91,1.46-4.21l.16-.44.26.4a33.9,33.9,0,0,0,3.47,4.18c1.24,1.29,2.52,2.51,3.74,3.78s2.45,2.46,3.61,3.74a7.18,7.18,0,0,1,1.57,4.79c0,3.28,0,6.45-.17,9.49a48.62,48.62,0,0,1-.94,8.72c-2,5.23-3.56,10-5,14.17L274.74,289v-.09c1.94,2.84,3.44,5,4.45,6.51l1.14,1.68C280.57,297.45,280.68,297.65,280.68,297.65Z" style="fill:#ff9a6c"></path><path d="M277.57,244.44c-.15.06-1.22-2.68-3.26-5.64s-4.17-5-4.06-5.09a5.78,5.78,0,0,1,1.5,1.22A24,24,0,0,1,277,242.6,5.89,5.89,0,0,1,277.57,244.44Z" style="fill:#ff9a6c"></path><path d="M238.47,257.29a80.07,80.07,0,0,1-6.48-6.35,77.34,77.34,0,0,1-6.11-6.72,81.35,81.35,0,0,1,6.48,6.36A78.17,78.17,0,0,1,238.47,257.29Z" style="fill:#ff9a6c"></path><path d="M247.89,245.59a11.7,11.7,0,0,1-1.84-1.54l-4.29-3.87-4.34-3.82a11,11,0,0,1-1.74-1.65,10.61,10.61,0,0,1,2,1.37c1.18.91,2.76,2.21,4.45,3.71s3.17,2.93,4.2,4A10.48,10.48,0,0,1,247.89,245.59Z" style="fill:#ff9a6c"></path><path d="M260.53,241.44a59.39,59.39,0,0,0-4.2-6.33,63.18,63.18,0,0,0-5.35-5.39,7.83,7.83,0,0,1,1.88,1.24,25.4,25.4,0,0,1,6.84,8.38A7.34,7.34,0,0,1,260.53,241.44Z" style="fill:#ff9a6c"></path><rect x="262.8" y="202.44" width="8.53" height="17.6" transform="translate(85.5 -76.83) rotate(19.43)" style="fill:#455a64"></rect><path d="M313.42,328a9.87,9.87,0,0,1-.12-1.72,18.8,18.8,0,0,1,0-2c0-.79,0-1.68.14-2.67s.18-2.07.37-3.21.42-2.38.69-3.66a54.05,54.05,0,0,1,2.6-8.11A54.82,54.82,0,0,1,321,299c.73-1.09,1.4-2.14,2.12-3.06s1.38-1.78,2-2.53,1.26-1.4,1.8-2a16.76,16.76,0,0,1,1.44-1.41,11,11,0,0,1,1.3-1.13,10.79,10.79,0,0,1-1.16,1.27c-.39.39-.86.87-1.37,1.47s-1.13,1.23-1.73,2-1.29,1.6-1.95,2.55-1.35,2-2.06,3a58.25,58.25,0,0,0-3.86,7.5,56.85,56.85,0,0,0-2.61,8c-.28,1.27-.57,2.47-.73,3.61s-.33,2.21-.44,3.19-.15,1.86-.21,2.64-.08,1.45-.08,2A12.65,12.65,0,0,1,313.42,328Z" style="fill:#263238"></path><path d="M359,411.86a2.42,2.42,0,0,1-.31-.43l-.82-1.29c-.7-1.13-1.71-2.76-3-4.76-2.54-4-6.16-9.47-10.25-15.44S336.73,378.6,334,374.7l-3.2-4.62c-.35-.51-.63-.93-.85-1.27a1.84,1.84,0,0,1-.27-.46,2.72,2.72,0,0,1,.35.4L331,370l3.34,4.53c2.79,3.84,6.6,9.18,10.7,15.16s7.66,11.48,10.13,15.54c1.25,2,2.21,3.68,2.86,4.84.29.55.53,1,.73,1.35A1.83,1.83,0,0,1,359,411.86Z" style="fill:#ff9a6c"></path><path d="M133.68,365.37l-11,44L98,385.49,72.18,399.92l41.25,51.89c8.36,11.88,20.1,16.58,29.33,14.23,11.75-3,20.16-14.52,20.16-14.52L167,378.4Z" style="fill:#ffbf9d"></path><path d="M147.26,440a12.86,12.86,0,0,1-.59-1.69c-.33-1.1-.87-2.68-1.58-4.61s-1.64-4.19-2.77-6.66-2.53-5.11-4.13-7.81-3.31-5.16-4.92-7.34-3.18-4.07-4.55-5.6-2.5-2.76-3.31-3.58a11.54,11.54,0,0,1-1.21-1.32,11.51,11.51,0,0,1,1.35,1.18c.86.77,2,1.95,3.44,3.47s3,3.39,4.66,5.56a83.19,83.19,0,0,1,5,7.36,87.7,87.7,0,0,1,4.13,7.88c1.11,2.49,2,4.78,2.68,6.74s1.15,3.55,1.43,4.67A11.62,11.62,0,0,1,147.26,440Z" style="fill:#ff9a6c"></path><path d="M172.77,314.7c0-.36,17.55-34.85,17.55-34.85-17.19,1.81-32.54,7.88-42.52,21a85.56,85.56,0,0,0-10.71,19.69c-7,17.22-19.39,57.29-19.39,57.29l50,26Z" style="fill:#FF8B2D"></path><path d="M165.22,328.23c.14,0-.43,32.75-1.29,73.13s-1.66,73.14-1.8,73.14.43-32.75,1.28-73.15S165.07,328.22,165.22,328.23Z" style="fill:#263238"></path><path d="M130.25,323.28s63,57.07,75.81,67.41c6.11,4.94,18.63,11.16,18.63,11.16l-17.59,3.69Z" style="fill:#fff"></path><g style="opacity:0.30000000000000004"><path d="M121.41,417.92s24,3.33,40.14,2.76,58-4.68,58-4.68l-8.9-6.33Z"></path></g><polygon points="125.58 315.6 22.54 322.45 121.41 417.92 216.54 411.86 125.58 315.6" style="fill:#263238"></polygon><path d="M84.79,358.13a4.79,4.79,0,0,0-5.61-4.31c-1.5.24-3.47.61-5.86,1.16-6.2,1.42-23.68,12.88-23.72,16.64-.05,5.51,2.95,7.26,2.95,7.26s-3,5.27-1.19,9.08c1.57,3.27,7.18,3.77,7.18,3.77s-3.46,5.22,1.14,8c1.6,1,4.79,2.86,5.56,3.53a13.27,13.27,0,0,0,1.5,2.76,11.16,11.16,0,0,0,8.57,3.59l1,0a8.13,8.13,0,0,0,5.43-2.33c6.58-6.47,25.14-25.13,25-29.65,0,0,3.54-3.54,1.59-6.55s-7.61-.89-7.61-.89a4.84,4.84,0,0,0,.78-5.69c-1.77-3.19-12.11-1.6-16.75-.4-3.7,1-14,4-14,4s13.34-6.52,13.87-9A3.82,3.82,0,0,0,84.79,358.13Z" style="fill:#ffbf9d"></path><path d="M106.79,377.65a10.81,10.81,0,0,1-1.3,1c-.86.64-2.12,1.52-3.71,2.57-3.18,2.1-7.69,4.81-12.82,7.55s-9.86,5-13.31,6.62c-1.73.8-3.14,1.43-4.12,1.85a10.86,10.86,0,0,1-1.54.6,11.62,11.62,0,0,1,1.46-.79l4-2c3.41-1.67,8.11-4,13.23-6.75s9.64-5.38,12.86-7.4c1.61-1,2.9-1.84,3.79-2.42A10,10,0,0,1,106.79,377.65Z" style="fill:#ff9a6c"></path><path d="M101.39,370a9.47,9.47,0,0,1-1.48.52c-1,.31-2.36.75-4,1.37-3.41,1.19-8,3.11-13,5.4-2.5,1.15-4.92,2.19-7,3.26s-4,2.1-5.57,3-2.79,1.69-3.64,2.23a9.53,9.53,0,0,1-1.34.82,1.65,1.65,0,0,1,.3-.28c.21-.17.52-.41.93-.7.82-.6,2-1.43,3.56-2.39s3.41-2,5.55-3.12,4.54-2.15,7-3.3a129.83,129.83,0,0,1,13.11-5.28c1.72-.58,3.13-1,4.11-1.22A8.29,8.29,0,0,1,101.39,370Z" style="fill:#ff9a6c"></path><path d="M70.84,368.09a12.5,12.5,0,0,1-2.1,1.47c-1.33.84-3.23,1.92-5.32,3.11s-3.94,2.31-5.27,3.15A15.55,15.55,0,0,1,56,377.13a11.12,11.12,0,0,1,2-1.62c1.29-.92,3.13-2.1,5.23-3.29s4-2.22,5.39-3A13.36,13.36,0,0,1,70.84,368.09Z" style="fill:#ff9a6c"></path><path d="M101.25,386.62a7.54,7.54,0,0,1-.83,1.21c-.57.76-1.42,1.83-2.52,3.11-2.18,2.58-5.42,5.94-8.88,9.73-.87.94-1.67,1.91-2.54,2.79a31.33,31.33,0,0,1-2.6,2.37,19.4,19.4,0,0,1-5.13,3,11.8,11.8,0,0,1-3.93.85,7.45,7.45,0,0,1-1.09,0c-.25,0-.38,0-.38-.06s.53,0,1.46-.13a13.11,13.11,0,0,0,3.81-1,20.26,20.26,0,0,0,5-3.07,34.35,34.35,0,0,0,2.54-2.36c.84-.86,1.64-1.82,2.51-2.78,3.48-3.8,6.75-7.11,9-9.62,1.12-1.25,2-2.28,2.63-3A8.2,8.2,0,0,1,101.25,386.62Z" style="fill:#ff9a6c"></path><path d="M95.78,314.71l-45.17,3.54a1.08,1.08,0,0,0-.68,1.86l10.88,10.61,44.66-2.7a1.09,1.09,0,0,0,.73-1.8l-9.5-11.14A1.1,1.1,0,0,0,95.78,314.71Z" style="fill:#e0e0e0"></path><path d="M60.62,331.24l-11-10.77a1.59,1.59,0,0,1,1-2.72l45.17-3.54a1.56,1.56,0,0,1,1.34.55l9.51,11.14a1.61,1.61,0,0,1,.26,1.63,1.57,1.57,0,0,1-1.33,1Zm35.25-16h-.05l-45.17,3.55a.56.56,0,0,0-.51.38.59.59,0,0,0,.14.63L61,330.21l44.44-2.69a.58.58,0,0,0,.48-.37.56.56,0,0,0-.1-.6l-9.5-11.14A.6.6,0,0,0,95.87,315.2Z" style="fill:#263238"></path></g><g id="freepik--Table--inject-34"><path d="M475.47,475.41c0,.15-100.94.26-225.44.26s-225.46-.11-225.46-.26,100.93-.26,225.46-.26S475.47,475.27,475.47,475.41Z" style="fill:#263238"></path></g><g id="freepik--walkie-talkie--inject-34"><rect x="369.4" y="113.27" width="22.49" height="44.35" transform="translate(-13.6 47.08) rotate(-6.95)" style="fill:#455a64"></rect><path d="M373.43,38.63H374a6.11,6.11,0,0,1,6.11,6.11v75.54a0,0,0,0,1,0,0H367.32a0,0,0,0,1,0,0V44.73a6.11,6.11,0,0,1,6.11-6.11Z" transform="translate(-6.87 45.83) rotate(-6.95)" style="fill:#455a64"></path><path d="M388.94,112.09c0,.14-4.87.86-10.93,1.59s-11,1.23-11,1.08,4.88-.85,10.93-1.59S388.92,112,388.94,112.09Z" style="fill:#263238"></path><path d="M455.2,162.12h1.51a0,0,0,0,1,0,0v23.39a0,0,0,0,1,0,0H455.2a5.14,5.14,0,0,1-5.14-5.14V167.26A5.14,5.14,0,0,1,455.2,162.12Z" transform="translate(924.47 291.47) rotate(173.05)" style="fill:#263238"></path><rect x="413.34" y="140.22" width="23.04" height="12.15" transform="translate(-14.59 52.51) rotate(-6.95)" style="fill:#455a64"></rect><rect x="415.77" y="130.37" width="15.62" height="10.88" transform="translate(-13.33 52.28) rotate(-6.95)" style="fill:#455a64"></rect><path d="M435.58,139c0,.14-5.1.88-11.41,1.65s-11.46,1.28-11.48,1.14,5.09-.89,11.41-1.66S435.56,138.84,435.58,139Z" style="fill:#263238"></path><path d="M417.79,141a22.07,22.07,0,0,1-.85-4.82,23.4,23.4,0,0,1-.34-4.88,22.07,22.07,0,0,1,.85,4.82A23.42,23.42,0,0,1,417.79,141Z" style="fill:#263238"></path><path d="M419.79,140.76a23.59,23.59,0,0,1-.85-4.82,22.21,22.21,0,0,1-.33-4.88,23.59,23.59,0,0,1,.85,4.82A23.77,23.77,0,0,1,419.79,140.76Z" style="fill:#263238"></path><path d="M421.79,140.51a23.59,23.59,0,0,1-.85-4.82,23.75,23.75,0,0,1-.33-4.88,23.59,23.59,0,0,1,.85,4.82A22.21,22.21,0,0,1,421.79,140.51Z" style="fill:#263238"></path><path d="M423.8,140.27a22.07,22.07,0,0,1-.85-4.82,23.42,23.42,0,0,1-.34-4.88,22.8,22.8,0,0,1,.85,4.82A23.4,23.4,0,0,1,423.8,140.27Z" style="fill:#263238"></path><path d="M425.8,140a23.77,23.77,0,0,1-.85-4.82,22.27,22.27,0,0,1-.33-4.89,23.77,23.77,0,0,1,.85,4.82A23.86,23.86,0,0,1,425.8,140Z" style="fill:#263238"></path><path d="M427.8,139.78A23.59,23.59,0,0,1,427,135a23,23,0,0,1-.33-4.88,23.59,23.59,0,0,1,.85,4.82A23,23,0,0,1,427.8,139.78Z" style="fill:#263238"></path><path d="M429.81,139.54a22.58,22.58,0,0,1-.86-4.82,23.86,23.86,0,0,1-.33-4.89,23.77,23.77,0,0,1,.85,4.82A23.48,23.48,0,0,1,429.81,139.54Z" style="fill:#263238"></path><path d="M431.88,139.35a3.22,3.22,0,0,1-.16-.71l-.31-2c-.25-1.85-.58-4.28-1-7.13l.26.2-7.79,1-7.71.91.2-.26c.32,2.89.59,5.35.79,7.21.07.81.13,1.49.18,2.05a3,3,0,0,1,0,.74,2.65,2.65,0,0,1-.16-.72c-.09-.55-.19-1.23-.32-2-.25-1.86-.58-4.32-1-7.19l0-.23.23,0,7.71-1,7.8-.92.23,0,0,.23c.31,2.86.58,5.31.78,7.15.07.8.13,1.48.18,2A2.58,2.58,0,0,1,431.88,139.35Z" style="fill:#263238"></path><path d="M375.63,223.08H456.2a0,0,0,0,1,0,0v59.59a9.1,9.1,0,0,1-9.1,9.1H384.72a9.1,9.1,0,0,1-9.1-9.1V223.08a0,0,0,0,1,0,0Z" transform="translate(-28.11 52.25) rotate(-6.95)" style="fill:#455a64"></path><path d="M361,167.16l4.32,35.41,6.5,25.64L414.88,223l-8.34-68.33L367,159.44A6.94,6.94,0,0,0,361,167.16Z" style="fill:#455a64"></path><path d="M447.93,156.55,452.25,192l-.14,26.45L409,223.67l-8.33-68.33,39.55-4.83A6.93,6.93,0,0,1,447.93,156.55Z" style="fill:#455a64"></path><path d="M363.32,187.78h1.51a0,0,0,0,1,0,0v14.3a0,0,0,0,1,0,0h-1.51a5.14,5.14,0,0,1-5.14-5.14v-4A5.14,5.14,0,0,1,363.32,187.78Z" transform="translate(-20.94 45.2) rotate(-6.95)" style="fill:#455a64"></path><path d="M360.67,167.83h1.51a0,0,0,0,1,0,0v14.3a0,0,0,0,1,0,0h-1.51a5.14,5.14,0,0,1-5.14-5.14v-4a5.14,5.14,0,0,1,5.14-5.14Z" transform="translate(-18.55 44.75) rotate(-6.96)" style="fill:#455a64"></path><rect x="374.02" y="208.03" width="21.1" height="11.11" rx="5.32" transform="translate(-23.03 48.13) rotate(-6.95)" style="fill:#FF8B2D"></rect><rect x="398.9" y="204.99" width="21.1" height="11.11" rx="5.32" transform="translate(-22.48 51.12) rotate(-6.95)" style="fill:#263238"></rect><rect x="423.78" y="201.96" width="21.1" height="11.11" rx="5.32" transform="translate(-21.93 54.11) rotate(-6.95)" style="fill:#263238"></rect><rect x="371.85" y="164.15" width="69.6" height="33.43" rx="5.39" transform="translate(-18.91 50.56) rotate(-6.95)" style="fill:#e0e0e0"></rect><path d="M437.87,193.91a6.78,6.78,0,0,0,1.87-.66,5.18,5.18,0,0,0,1.77-1.58,5.27,5.27,0,0,0,1-3c-.53-4.92-1.51-12.08-2.58-20.92l-.21-1.67a8.26,8.26,0,0,0-.32-1.66,5.18,5.18,0,0,0-5.49-3.46l-3.83.47-16.59,2.05-38,4.66a5.12,5.12,0,0,0-3.85,2.59A4.92,4.92,0,0,0,371,173a18.75,18.75,0,0,0,.22,2.43q.6,4.94,1.18,9.7c.39,3.18.77,6.31,1.14,9.37.1.75.16,1.55.29,2.26a5.12,5.12,0,0,0,4.44,4.07,8.54,8.54,0,0,0,2.13-.11l2.15-.26,4.21-.51,8.06-1,14.46-1.73,20.94-2.47,5.7-.64,1.48-.16.51,0-.5.08-1.48.21-5.68.74-20.93,2.64-14.45,1.79-8.05,1-4.22.52-2.14.26a8.73,8.73,0,0,1-2.24.11,5.62,5.62,0,0,1-3.92-2.28,5.52,5.52,0,0,1-.95-2.16c-.14-.79-.2-1.53-.31-2.3-.37-3.06-.76-6.18-1.15-9.36s-.78-6.42-1.18-9.7a20.34,20.34,0,0,1-.23-2.52,5.43,5.43,0,0,1,.72-2.51,5.64,5.64,0,0,1,4.24-2.85l38-4.62,16.6-2,3.83-.45a5.57,5.57,0,0,1,5.9,3.75,7.75,7.75,0,0,1,.33,1.73c.07.57.14,1.13.2,1.68,1,8.85,2,16,2.42,21a5.36,5.36,0,0,1-4.32,5.21Z" style="fill:#263238"></path><path d="M392.47,246.75a5.51,5.51,0,1,1-6.13-4.81A5.5,5.5,0,0,1,392.47,246.75Z" style="fill:#e0e0e0"></path><circle cx="388.99" cy="263.67" r="5.51" transform="translate(-48.89 93.09) rotate(-12.85)" style="fill:#e0e0e0"></circle><path d="M405.85,248.19a2.93,2.93,0,1,1-3.26-2.56A2.94,2.94,0,0,1,405.85,248.19Z" style="fill:#263238"></path><path d="M411.79,241.79a2.94,2.94,0,1,1-3.27-2.55A2.94,2.94,0,0,1,411.79,241.79Z" style="fill:#263238"></path><path d="M417.6,234.37a2.94,2.94,0,1,1-3.27-2.56A2.94,2.94,0,0,1,417.6,234.37Z" style="fill:#263238"></path><path d="M407,261.19a2.93,2.93,0,1,1-3.27-2.56A2.92,2.92,0,0,1,407,261.19Z" style="fill:#263238"></path><path d="M412.93,254.79a2.93,2.93,0,1,1-3.26-2.56A2.94,2.94,0,0,1,412.93,254.79Z" style="fill:#263238"></path><path d="M418.74,247.37a2.93,2.93,0,1,1-3.27-2.56A2.94,2.94,0,0,1,418.74,247.37Z" style="fill:#263238"></path><path d="M424.48,240a2.93,2.93,0,1,1-3.26-2.55A2.92,2.92,0,0,1,424.48,240Z" style="fill:#263238"></path><path d="M430.29,232.53A2.93,2.93,0,1,1,427,230,2.94,2.94,0,0,1,430.29,232.53Z" style="fill:#263238"></path><path d="M414.29,266.89a2.94,2.94,0,1,1-3.27-2.56A2.94,2.94,0,0,1,414.29,266.89Z" style="fill:#263238"></path><path d="M420.22,260.5a2.93,2.93,0,1,1-3.26-2.56A2.93,2.93,0,0,1,420.22,260.5Z" style="fill:#263238"></path><path d="M426,253.07a2.93,2.93,0,1,1-3.27-2.55A2.94,2.94,0,0,1,426,253.07Z" style="fill:#263238"></path><path d="M431.77,245.66a2.93,2.93,0,1,1-3.26-2.56A2.93,2.93,0,0,1,431.77,245.66Z" style="fill:#263238"></path><path d="M437.58,238.24a2.93,2.93,0,1,1-3.26-2.56A2.93,2.93,0,0,1,437.58,238.24Z" style="fill:#263238"></path><path d="M421.58,272.6a2.94,2.94,0,1,1-3.27-2.56A2.93,2.93,0,0,1,421.58,272.6Z" style="fill:#263238"></path><path d="M427.51,266.2a2.93,2.93,0,1,1-3.26-2.56A2.94,2.94,0,0,1,427.51,266.2Z" style="fill:#263238"></path><path d="M433.32,258.78a2.93,2.93,0,1,1-3.27-2.56A2.92,2.92,0,0,1,433.32,258.78Z" style="fill:#263238"></path><path d="M439.06,251.36a2.93,2.93,0,1,1-3.26-2.55A2.93,2.93,0,0,1,439.06,251.36Z" style="fill:#263238"></path><path d="M444.87,243.94a2.93,2.93,0,1,1-3.26-2.56A2.94,2.94,0,0,1,444.87,243.94Z" style="fill:#263238"></path><path d="M434.8,271.9a2.93,2.93,0,1,1-3.27-2.55A2.93,2.93,0,0,1,434.8,271.9Z" style="fill:#263238"></path><path d="M440.61,264.48a2.93,2.93,0,1,1-3.27-2.55A2.94,2.94,0,0,1,440.61,264.48Z" style="fill:#263238"></path><path d="M446.35,257.07a2.93,2.93,0,1,1-3.26-2.56A2.94,2.94,0,0,1,446.35,257.07Z" style="fill:#263238"></path><path d="M440.51,150.37c0,.14-16.63,2.29-37.17,4.79s-37.22,4.43-37.23,4.28,16.62-2.29,37.17-4.79S440.49,150.23,440.51,150.37Z" style="fill:#263238"></path><path d="M365.27,202.54c-.14,0-1.22-7.9-2.41-17.68s-2.05-17.73-1.91-17.74,1.23,7.89,2.42,17.68S365.42,202.52,365.27,202.54Z" style="fill:#263238"></path><path d="M451.94,219.57c0,.15-17.63,2.42-39.41,5.07s-39.46,4.7-39.47,4.56,17.62-2.42,39.41-5.07S451.92,219.43,451.94,219.57Z" style="fill:#263238"></path></g></svg>