<svg width="483" height="284" viewBox="0 0 483 284" fill="none" xmlns="http://www.w3.org/2000/svg">
<rect y="73" width="113" height="211" rx="15" fill="#BAC3D7"/>
<path d="M113 258H134C139.523 258 144 253.523 144 248V109C144 103.477 139.523 99 134 99H113" stroke="#BAC3D7" stroke-width="5"/>
<path d="M145.528 228.612C154.314 223.125 185.256 216.746 238.737 235.119C292.217 253.492 329.017 252.216 340.732 249.282C352.956 246.22 376.258 236.267 388.482 228.229L471.377 178.468C479.399 173.109 484.06 156.344 475.197 144.401C466.335 132.459 451.131 136.618 444.637 140.191L370.91 174.258M370.91 174.258C361.36 178.468 338.211 192.554 297.565 192.248M370.91 174.258C368.618 145.167 356.012 140.956 318.958 140.573C289.314 140.267 267.132 134.832 259.747 132.152C245.231 125.518 211.156 112.861 190.986 115.31C170.817 117.76 151.258 120.159 144 121.052" stroke="#BAC3D7" stroke-width="5" stroke-linecap="round"/>
<path d="M240.5 123V19.5M240.5 19.5L361.062 3L412 29.9937M240.5 19.5L299.011 47.6792M412 29.9937L299.011 47.6792M412 29.9937V154L369 162M299.011 47.6792V139.212M367.545 58.8491L392.551 55.1258V79.327" stroke="#BAC3D7" stroke-width="5" stroke-linecap="round"/>
</svg>
