<svg width="356" height="420" viewBox="0 0 356 420" fill="none" xmlns="http://www.w3.org/2000/svg">
<circle cx="106.982" cy="109.501" r="14.5" transform="rotate(-45 106.982 109.501)" stroke="#BAC3D7" stroke-width="5"/>
<path d="M272.327 297.709L348.105 221.931C352.01 218.026 352.01 211.694 348.105 207.789L204.773 64.4573C202.898 62.582 200.355 61.5284 197.702 61.5284L83.8268 61.5282M59.009 90.8465L59.009 200.222C59.009 202.874 60.0625 205.418 61.9379 207.293L115.327 260.682" stroke="#BAC3D7" stroke-width="5" stroke-linecap="round"/>
<path d="M134.173 279.693L190.673 336.693" stroke="#BAC3D7" stroke-width="5" stroke-linecap="round"/>
<circle r="13" transform="matrix(-1 0 0 1 230.327 388.847)" stroke="#BAC3D7" stroke-width="5"/>
<path d="M217.827 363.227C221.601 361.382 225.843 360.347 230.327 360.347C246.067 360.347 258.827 373.107 258.827 388.847C258.827 404.587 246.067 417.347 230.327 417.347C214.587 417.347 201.827 404.587 201.827 388.847C201.827 384.267 202.907 379.939 204.827 376.105" stroke="#BAC3D7" stroke-width="5" stroke-linecap="round"/>
<circle r="13" transform="matrix(-1 0 0 1 152.327 388.847)" stroke="#BAC3D7" stroke-width="5"/>
<path d="M164.827 363.227C161.053 361.382 156.811 360.347 152.327 360.347C136.587 360.347 123.827 373.107 123.827 388.847C123.827 404.587 136.587 417.347 152.327 417.347C168.067 417.347 180.827 404.587 180.827 388.847C180.827 384.164 179.698 379.745 177.696 375.847" stroke="#BAC3D7" stroke-width="5" stroke-linecap="round"/>
<path d="M177.827 375.847L227.327 327.847C232.327 321.847 242.927 304.547 245.327 283.347" stroke="#BAC3D7" stroke-width="5" stroke-linecap="round"/>
<path d="M177.173 349.193L152.173 324.193C147.173 318.193 136.573 300.893 134.173 279.693" stroke="#BAC3D7" stroke-width="5" stroke-linecap="round"/>
<path d="M165.327 362.847L245.327 283.347" stroke="#BAC3D7" stroke-width="5" stroke-linecap="round"/>
<path d="M204.827 375.847L191.827 362.847" stroke="#BAC3D7" stroke-width="5" stroke-linecap="round"/>
<path d="M217.327 362.847L204.827 350.347" stroke="#BAC3D7" stroke-width="5" stroke-linecap="round"/>
<circle r="3" transform="matrix(-1 0 0 1 191.173 349.693)" stroke="#BAC3D7" stroke-width="2"/>
<path d="M187.827 138.347L187.827 308.347" stroke="#BAC3D7" stroke-opacity="0.6" stroke-width="5" stroke-linecap="round" stroke-dasharray="10 10"/>
<path d="M187.981 0L199.691 11.1944L215.099 6.18945L220.792 21.3561L236.845 23.5319L235.394 39.6669L248.914 48.5924L240.606 62.5L248.914 76.4076L235.394 85.3331L236.845 101.468L220.792 103.644L215.099 118.811L199.691 113.806L187.981 125L176.271 113.806L160.863 118.811L155.17 103.644L139.116 101.468L140.567 85.3331L127.048 76.4076L135.356 62.5L127.048 48.5924L140.567 39.6669L139.116 23.5319L155.17 21.3561L160.863 6.18945L176.271 11.1944L187.981 0Z" fill="#BAC3D7"/>
<circle cx="173.981" cy="47.5" r="7" stroke="#21325B" stroke-width="5"/>
<circle cx="202.981" cy="77.5" r="7" stroke="#21325B" stroke-width="5"/>
<path d="M198.344 40.8296L178.618 84.1706" stroke="#21325B" stroke-width="5" stroke-linecap="round"/>
<path d="M95.8247 112.347C102.1 111.715 112.767 107.419 105.237 95.2898C95.8247 80.1282 44.1538 54.3551 31.9184 77.7592C23.4967 93.8684 42.3217 106.661 56.1928 112.347" stroke="#BAC3D7" stroke-width="5" stroke-linecap="round"/>
</svg>
