<svg width="301" height="249" viewBox="0 0 301 249" fill="none" xmlns="http://www.w3.org/2000/svg">
<path d="M183.077 221.502C175.986 228.6 169.874 234.718 165.664 238.933C154.687 249.921 143.16 243.511 138.769 238.933L68.7405 171.48C58.4021 161.87 49.6636 152.384 10.5867 115.115C6.58668 111.111 0.24822 100.885 6.89437 92.0148C13.5405 83.1443 50.8944 36.5741 68.7405 14.3977C74.1538 6.55772 85.9176 -2.76995 100.923 11.1778C113.846 23.19 158.154 64.7706 196 96.384" stroke="#BAC3D7" stroke-width="7" stroke-linecap="round"/>
<path d="M68 16C70.2041 56.4274 85.0773 121.507 162 146" stroke="#BAC3D7" stroke-width="7" stroke-linecap="round"/>
<path d="M265.673 137.027C264.878 141.692 264.068 143.655 263.427 149.46M297 195.08C293.995 204.139 274.455 223.485 238.392 222.991C202.33 222.497 191.277 190.841 190.127 176.101C189.076 162.627 194.324 136.653 213.511 120.432C232.846 104.085 257.407 103.629 279.197 120.432C297.244 134.349 297.228 155.636 294.008 166.753C292.093 173.365 284.863 179.847 271.469 187.753C264.795 191.692 262.426 183.527 262.182 171.694M263.427 149.46C259.893 140.525 232.769 130.124 222.526 149.46C211.962 169.403 220.032 186.204 226.901 189.498C235.674 193.705 248.57 195.905 262.182 171.694M263.427 149.46C262.592 157.022 262.042 164.954 262.182 171.694" stroke="#BAC3D7" stroke-width="7" stroke-linecap="round"/>
</svg>
