<svg width="726" height="784" viewBox="0 0 726 784" fill="none" xmlns="http://www.w3.org/2000/svg">
<path d="M323.351 108.5C339.184 121.167 364.051 149 336.851 159C342.184 175 343.351 213.3 305.351 238.5L297.851 262.5M258.851 214.5C257.018 220.5 255.651 240 262.851 256M253.851 260.5C269.518 254.833 299.351 247.9 299.351 267.5V272.5C326.351 250 384.051 199.7 398.851 178.5" stroke="#BAC3D7" stroke-width="5" stroke-linecap="round"/>
<path d="M308.851 198.5C308.351 201.5 309.651 207.7 318.851 208.5" stroke="#BAC3D7" stroke-width="5" stroke-linecap="round"/>
<path d="M335.851 137C335.851 142.604 334.195 147.576 331.643 151.086C329.088 154.598 325.772 156.5 322.351 156.5C318.93 156.5 315.613 154.598 313.059 151.086C310.507 147.576 308.851 142.604 308.851 137C308.851 131.396 310.507 126.424 313.059 122.914C315.613 119.402 318.93 117.5 322.351 117.5C325.772 117.5 329.088 119.402 331.643 122.914C334.195 126.424 335.851 131.396 335.851 137Z" stroke="#BAC3D7" stroke-width="5" stroke-linecap="round"/>
<path d="M277.351 152L308.351 142" stroke="#BAC3D7" stroke-width="5" stroke-linecap="round"/>
<path d="M300.851 131.5C301.684 128.167 304.751 120.5 310.351 116.5" stroke="#BAC3D7" stroke-width="5" stroke-linecap="round"/>
<circle cx="323.851" cy="136.5" r="3.5" fill="#BAC3D7"/>
<path d="M254.104 260.266L138.076 396.407M138.076 396.407C136.395 401.412 134.726 413.085 148.851 427.5M138.076 396.407C146.652 395.239 168.95 395.806 189.532 407.418C215.26 421.933 242.501 447.46 310.1 469.983M310.1 469.983L287.399 486M310.1 469.983C308.25 450.129 306.771 406.317 315.649 389.9C324.528 373.483 334.819 347.69 338.855 336.845C357.688 322.497 402.62 275.381 431.677 201.705" stroke="#BAC3D7" stroke-width="5" stroke-linecap="round"/>
<path d="M394.351 184C391.851 184 386.551 181.6 385.351 172C384.151 162.4 379.851 156.333 377.851 154.5C376.684 151.667 375.451 145.8 379.851 145C382.442 144.529 385.506 147.039 388.065 150M392.351 156C391.391 154.355 389.851 152.068 388.065 150M388.065 150C387.66 145.5 385.951 135.1 382.351 129.5C377.851 122.5 377.351 104.5 386.851 106.5M394.351 137C394.684 132.333 394.351 121.7 390.351 116.5C385.351 110 384.351 97.5 394.351 98.5C397.525 98.8175 399.545 101.455 400.785 105M402.351 122.5C402.753 117.876 402.67 110.389 400.785 105M400.785 105C403.974 103.167 410.551 102.5 411.351 114.5" stroke="#BAC3D7" stroke-width="5" stroke-linecap="round"/>
<path d="M417.351 139.5C418.518 137.333 419.651 131.8 414.851 127C408.851 121 410.351 115.5 413.851 114C417.351 112.5 422.351 113.5 427.351 128.5C432.351 141.5 439.751 174.5 431.351 202.5" stroke="#BAC3D7" stroke-width="5" stroke-linecap="round"/>
<path d="M221.351 297.5C202.684 313 155.351 345.7 115.351 352.5C106.018 356.333 89.951 367.1 100.351 379.5C110.751 391.9 117.684 407 119.851 413C121.518 418.5 127.351 425.1 137.351 407.5" stroke="#BAC3D7" stroke-width="5" stroke-linecap="round"/>
<path d="M107.351 388C99.5176 392.5 81.251 401.1 70.851 399.5C60.451 397.9 53.5176 402.167 51.351 404.5C50.1843 406.333 49.451 410.1 55.851 410.5C62.251 410.9 69.8509 410.667 72.8509 410.5M81.3509 404.5C77.8509 408.167 65.9509 416.5 46.3509 420.5C42.5176 421.167 37.3509 425 44.3509 429.5C50.3509 433 66.9509 429.8 75.3509 425C68.8509 428.167 57.1509 436.6 62.3509 445C64.0176 446.667 71.0509 446.8 85.8509 434M85.8509 434L96.8509 425M85.8509 434C82.6843 442.167 77.851 462 90.851 451C100.351 441.5 98.3509 433.4 102.351 431C106.351 428.6 115.351 419.333 119.351 415M96.8509 408.5C95.6843 412.833 94.7509 422.9 100.351 428.5" stroke="#BAC3D7" stroke-width="5" stroke-linecap="round"/>
<path d="M164.851 399C158.518 417 128.851 454 102.351 500.5C84.6843 529.667 42.551 594.8 15.351 622C11.6843 627.167 8.25096 638.9 23.851 644.5C35.851 649.5 41.251 661.1 42.851 673.5C44.851 689 70.351 700.5 87.351 689C100.901 679.834 139.863 613.808 169.297 576.5M189.351 555C183.669 559.363 176.792 567.001 169.297 576.5M169.297 576.5L135.851 751M135.851 751C139.315 756.333 150.854 766.4 169.297 764M135.851 751C152.851 746.5 199.551 738 228.351 738" stroke="#BAC3D7" stroke-width="5" stroke-linecap="round"/>
<path d="M217.351 745C223.684 743.333 236.451 734.9 236.851 714.5C237.251 694.1 245.684 659 249.851 644L290.851 464" stroke="#BAC3D7" stroke-width="5" stroke-linecap="round"/>
<circle cx="304.851" cy="168.5" r="1.5" fill="#BAC3D7"/>
<circle cx="310.851" cy="176.5" r="1.5" fill="#BAC3D7"/>
<circle cx="295.851" cy="179.5" r="1.5" fill="#BAC3D7"/>
<path d="M440.192 61.2633L448.038 47" stroke="#BAC3D7" stroke-width="6" stroke-linecap="round"/>
<path d="M372.351 68L386.351 77" stroke="#BAC3D7" stroke-width="6" stroke-linecap="round"/>
<path d="M397.753 31.7545L411.449 63.2455" stroke="#BAC3D7" stroke-width="6" stroke-linecap="round"/>
<path d="M148.851 156C173.251 110.4 209.684 104.667 224.851 107.5C256.351 59 299.851 43 326.351 57.5C347.551 69.1 330.184 98.3333 318.851 111.5L307.851 95.5C300.251 110.3 278.518 104.833 267.851 101.5C277.018 120.833 291.651 170.8 260.851 216C230.051 261.2 191.351 262 171.851 249C153.851 236.167 124.451 201.6 148.851 156Z" fill="#BAC3D7"/>
<path d="M10.6548 733.077C-13.149 685.5 8.91686 653.84 20.851 646C39.351 652 39.851 672 42.851 681.5L35.927 701.049C31.2937 709.456 33.9964 725.904 35.927 733.077C43.9298 766.306 31.851 769.5 25.9234 760.601L10.6548 733.077Z" fill="#BAC3D7"/>
<path d="M237.351 777.5C174.551 785.9 161.518 761.667 162.851 747.5C173.651 743.1 203.351 741.5 217.351 740.5C213.351 749.7 218.351 748.5 221.851 751C226.351 754 238.851 757.667 245.851 758C277.351 759.5 252.684 775.333 237.351 777.5Z" fill="#BAC3D7"/>
<path d="M420.346 114.192C418.718 108.406 417.904 97.6262 427.672 100.801M427.672 100.801L438.417 122.624M427.672 100.801C426.858 94.3526 431.091 83.9368 441.348 92.3686L446.232 104.52M451.116 116.672L446.232 104.52M446.232 104.52C446.232 94.0219 448.674 76.4969 461.373 92.3686C469.187 103.776 472.118 126.493 466.257 138" stroke="#BAC3D7" stroke-width="5" stroke-linecap="round"/>
<path d="M451.351 153.5C448.684 159.333 445.851 172.6 455.851 179M463.851 145C466.184 138.333 473.251 125.1 482.851 125.5C492.451 125.9 484.851 138.5 482.851 143L468.851 170.5C465.851 178 461.351 191.5 471.851 207C482.351 221 521.951 264.7 578.351 249.5" stroke="#BAC3D7" stroke-width="5" stroke-linecap="round"/>
<path d="M519.351 454.5L558.851 466M556.851 486C561.184 471.833 566.751 436.7 554.351 409.5C538.851 375.5 529.351 332 536.851 303C542.851 279.8 564.684 276.333 574.851 277.5C590.851 279.336 618.451 298.5 616.851 350.5C614.851 415.5 599.851 471 578.351 514M550.351 472C553.351 482.667 564.351 507.4 584.351 521" stroke="#BAC3D7" stroke-width="5" stroke-linecap="round"/>
<path d="M540.851 509.5C540.851 484 540.684 466 537.851 459C576.251 473.4 622.851 469.667 641.351 466C641.851 467.167 645.951 478.3 658.351 513.5C673.851 557.5 662.851 704.5 658.351 721C653.851 737.5 641.851 738 624.351 736C610.351 734.4 591.851 696 584.351 677C549.351 611.5 540.851 539.421 540.851 509.5Z" fill="#BAC3D7"/>
<path d="M615.351 228C611.684 232.667 600.351 241.8 584.351 241" stroke="#BAC3D7" stroke-width="5" stroke-linecap="round"/>
<path d="M653.351 730C646.551 735.6 633.518 737 627.851 737C631.351 744 628.851 750.5 619.351 752.5C611.094 754.238 598.851 755.167 593.851 757C585.684 759.333 571.551 766.4 580.351 776C589.151 785.6 628.351 780 646.851 776C665.351 770 657.518 741 653.351 730Z" stroke="#BAC3D7" stroke-width="5" stroke-linecap="round"/>
<path d="M511.701 82.8C519.744 93.1458 530.525 96.5143 533.69 94.1143L549.682 84.8571C554.346 81.9429 564.374 78.1714 567.173 86.4C570.671 96.6857 569.671 102.343 577.667 105.943C584.064 108.823 584.664 116.057 584.164 119.314V130.114C583.997 133.2 585.163 138.446 591.16 134.743C597.157 131.04 597.99 125.657 597.657 123.429C597.99 119.829 601.255 113.143 611.65 115.2C622.044 117.257 620.978 128.4 619.146 133.714L613.149 147.6C610.65 152.057 607.852 162.206 616.647 167.143C625.442 172.08 628.641 177.771 629.14 180C645.532 167.246 655.627 133.2 658.625 117.771C665.422 55.6457 631.351 40 610.351 29.5C589.216 18.9327 563.851 21 549.682 25.5C536.489 1.63714 498.208 1.71429 493.211 0C489.613 8.22857 491.212 32.9143 498.208 55.0286C502.373 65.3143 503.706 72.5143 511.701 82.8Z" fill="#BAC3D7"/>
<circle cx="574.851" cy="155.5" r="2.5" fill="#BAC3D7"/>
<circle cx="567.851" cy="138.5" r="2.5" fill="#BAC3D7"/>
<circle cx="558.851" cy="152.5" r="2.5" fill="#BAC3D7"/>
<ellipse cx="531.851" cy="130" rx="3.5" ry="5" fill="#BAC3D7"/>
<path d="M526.351 92.5C524.018 94.3333 520.051 99.5 522.851 105.5V127C523.184 129.333 521.251 135.2 510.851 140C500.451 144.8 506.351 154 512.351 155L519.351 156C519.851 178 532.451 223 578.851 227L584.351 241.5" stroke="#BAC3D7" stroke-width="5" stroke-linecap="round"/>
<path d="M530.351 118.5C533.184 116 540.251 112.8 545.851 120" stroke="#BAC3D7" stroke-width="5" stroke-linecap="round"/>
<path d="M535.851 182.5C540.351 183.833 548.951 182.6 547.351 167" stroke="#BAC3D7" stroke-width="5" stroke-linecap="round"/>
<path d="M630.351 174.5C622.018 184.667 607.651 209.5 616.851 227.5" stroke="#BAC3D7" stroke-width="6" stroke-linecap="round"/>
<path d="M608.851 123.5C609.018 127 608.051 134.2 602.851 135" stroke="#BAC3D7" stroke-width="3" stroke-linecap="round"/>
<path d="M680.731 741.955C692.361 740.458 691.945 727.65 690.699 722.493C705.32 730.477 715.344 723.491 718.529 719C726.005 743.951 721.298 754.43 714.79 761.416C709.114 765.575 692.278 773.193 670.347 770.398C642.933 766.905 669.549 743.394 680.731 741.955Z" stroke="#BAC3D7" stroke-width="5" stroke-linecap="round"/>
<path d="M672.351 420C672.137 416.79 678.062 393.433 676.62 376.535M676.62 376.535C675.816 367.112 674.788 355.355 673.499 341.035C669.899 301.035 655.665 270.369 648.999 260.035C642.199 229.635 623.832 226.369 615.499 228.535C606.299 240.135 591.665 242.369 585.499 242.035C587.099 246.435 579.165 253.535 574.999 256.535L552.851 282C541.251 288.4 535.999 302.869 535.999 308.035C515.999 365.235 516.351 429.333 519.351 454.5L595.351 469.5C643.351 475.5 683.665 456.202 697.999 446.035C692.799 419.635 681.58 388.702 676.62 376.535Z" stroke="#BAC3D7" stroke-width="5" stroke-linecap="round"/>
<path d="M662.753 687.955C667.063 594.175 647.948 505.566 637.351 471C664.076 467.393 685.128 455.841 692.851 452C700.61 481.256 711.964 556.369 716.634 590.768C728.273 628.441 725.794 682.612 723.1 704.988C724.824 718.614 713.761 724.024 708.013 725.026C677.409 735.046 665.088 704.487 662.753 687.955Z" fill="#BAC3D7"/>
<path d="M419.351 112.5C427.851 126.167 440.451 159.3 430.851 206.5C431.684 216.667 446.521 250.286 457.851 265.5C475.351 289 511.851 315.5 534.351 323" stroke="#BAC3D7" stroke-width="5" stroke-linecap="round"/>
</svg>
