<svg width="729" height="398" viewBox="0 0 729 398" fill="none" xmlns="http://www.w3.org/2000/svg">
<path d="M65.6095 139.545C64.0864 134.947 69.3368 131.087 73.2716 133.911L102.086 154.595C103.846 155.858 106.219 155.845 107.964 154.561L136.539 133.549C140.442 130.68 145.736 134.48 144.265 139.095L133.498 172.891C132.841 174.955 133.587 177.207 135.346 178.47L164.161 199.154C168.096 201.979 166.117 208.188 161.274 208.216L125.805 208.419C123.639 208.432 121.727 209.837 121.069 211.901L110.302 245.697C108.832 250.312 102.315 250.349 100.792 245.751L89.6379 212.081C88.9567 210.025 87.029 208.641 84.8629 208.654L49.3939 208.857C44.5503 208.884 42.501 202.698 46.4032 199.829L74.9789 178.816C76.724 177.533 77.4443 175.272 76.7632 173.216L65.6095 139.545Z" fill="#BAC3D7"/>
<path d="M208.57 56.9904C208.508 52.1472 214.679 50.0534 217.577 53.9348L238.794 82.3584C240.09 84.0942 242.356 84.7983 244.407 84.1024L277.997 72.7065C282.583 71.1503 286.482 76.3728 283.686 80.3278L263.21 109.29C261.959 111.059 261.99 113.432 263.286 115.168L284.504 143.591C287.401 147.473 283.639 152.794 279.013 151.357L245.141 140.833C243.072 140.191 240.825 140.953 239.575 142.722L219.099 171.685C216.303 175.64 210.079 173.706 210.017 168.863L209.558 133.396C209.53 131.23 208.111 129.329 206.042 128.686L172.169 118.162C167.544 116.725 167.46 110.209 172.047 108.652L205.636 97.2566C207.687 96.5606 209.057 94.623 209.029 92.457L208.57 56.9904Z" fill="#BAC3D7"/>
<path d="M368.721 19.9303C370.53 15.4374 377.032 15.8849 378.209 20.5833L386.828 54.9898C387.354 57.091 389.173 58.6143 391.334 58.7631L426.72 61.1983C431.552 61.5308 433.136 67.8526 429.031 70.4238L398.972 89.253C397.136 90.4029 396.25 92.604 396.776 94.7052L405.395 129.112C406.572 133.81 401.049 137.27 397.335 134.16L370.139 111.391C368.478 110 366.111 109.838 364.275 110.987L334.216 129.817C330.111 132.388 325.114 128.204 326.923 123.711L340.174 90.8099C340.983 88.8006 340.407 86.4988 338.746 85.1082L311.55 62.3388C307.836 59.2295 310.27 53.1843 315.103 53.5168L350.488 55.9521C352.65 56.1008 354.661 54.8411 355.47 52.8318L368.721 19.9303Z" fill="#BAC3D7"/>
<path d="M660.383 106.728L649.249 140.405C648.229 143.49 649.312 146.881 651.931 148.804L680.518 169.8C682.47 171.233 681.448 174.327 679.026 174.315L643.557 174.132C640.307 174.116 637.417 176.193 636.397 179.278L625.263 212.955C624.503 215.254 621.244 215.237 620.508 212.93L609.721 179.141C608.733 176.045 605.864 173.938 602.615 173.922L567.146 173.739C564.724 173.727 563.733 170.623 565.699 169.209L594.502 148.509C597.14 146.612 598.257 143.233 597.269 140.137L586.482 106.348C585.746 104.041 588.392 102.139 590.344 103.573L618.932 124.569C621.55 126.492 625.11 126.51 627.748 124.614L656.551 103.913C658.517 102.5 661.143 104.429 660.383 106.728Z" stroke="#BAC3D7" stroke-width="5"/>
<path d="M542.383 58.7281L531.249 92.4048C530.229 95.4898 531.312 98.8806 533.931 100.804L562.518 121.8C564.47 123.233 563.448 126.327 561.026 126.315L525.557 126.132C522.307 126.116 519.417 128.193 518.397 131.278L507.263 164.955C506.503 167.254 503.244 167.237 502.508 164.93L491.721 131.141C490.733 128.045 487.864 125.938 484.615 125.922L449.146 125.739C446.724 125.727 445.733 122.623 447.699 121.209L476.502 100.509C479.14 98.6123 480.257 95.2327 479.269 92.1374L468.482 58.348C467.746 56.0409 470.392 54.1391 472.344 55.5727L500.932 76.5685C503.55 78.4918 507.11 78.5101 509.748 76.6139L538.551 55.9132C540.517 54.4998 543.143 56.4287 542.383 58.7281Z" stroke="#BAC3D7" stroke-width="5"/>
<path d="M509.637 165.739L521.401 130.156C521.733 129.153 521.738 128.072 521.417 127.066L505.834 78.2515C505.512 77.2456 504.881 76.3672 504.03 75.7422L473.824 53.5577C469.92 50.6906 464.628 54.4941 466.101 59.1082L476.888 92.8977C477.547 94.9613 476.802 97.2143 475.043 98.4785L446.24 119.179C442.307 122.006 444.289 128.214 449.133 128.239L484.602 128.422C486.768 128.433 488.681 129.837 489.339 131.901L500.126 165.69C501.599 170.305 508.116 170.338 509.637 165.739Z" fill="#BAC3D7"/>
<path d="M352.287 394.031L369.36 349.242" stroke="#BAC3D7" stroke-width="7" stroke-linecap="round"/>
<path d="M369.359 349.244C355.274 339.642 313.722 319.692 259.234 315.058" stroke="#BAC3D7" stroke-width="7" stroke-linecap="round"/>
<path d="M259.125 315.866C255.539 332.653 245.164 370.404 232.347 387.119" stroke="#BAC3D7" stroke-width="7" stroke-linecap="round"/>
<path d="M356 338C369 322 392.5 297 402 279.5L417.5 253C428 236.131 432.494 222.378 436.507 214.921C438.29 211.607 439.4 209.09 441.87 204.164C444.112 199.693 446.084 195.178 444.519 191.474C443.321 188.638 438.323 183.674 427.914 186.508C417.504 189.342 410.406 198.132 408.157 202.174C405.906 205.522 396.129 217.655 393.452 220.318C387.23 226.505 356.579 252.162 337.462 237.131M333.743 212.285C349.611 203.895 380.435 188.771 391.173 178.386C402.201 176.252 429.435 179.82 426.686 165.197C426.114 162.15 416.525 154.593 402.271 152.029C392.014 150.183 384.576 149.463 376.055 154.042C371.224 156.638 369.307 157.56 363.07 161.703M333.153 184.014C341.382 176.25 347.264 171.811 351.325 169.02C355.279 166.302 358.228 163.836 363.07 161.703M363.07 161.703C360.482 160.295 349.298 160.386 336.113 166.916C321.711 174.05 319.25 176.751 313.673 180.43C308.096 184.11 296.942 191.47 292.575 195.02C284.849 201.303 277.808 208.383 275.028 211.955C270.134 219.513 272.862 225.231 280.218 239.304M284.628 265.433C284.628 274.802 282.5 297 276 315.5" stroke="#BAC3D7" stroke-width="7" stroke-linecap="round"/>
<path d="M413.57 195.025L288.125 263.566C272.968 269.495 262.426 248.72 278.328 241.706L333.656 212.208M431.019 185.253L454.218 172.71L443.232 155.143L427.527 163.076" stroke="#BAC3D7" stroke-width="7" stroke-linecap="round"/>
<path d="M457.348 171.007L470.428 151.649" stroke="#BAC3D7" stroke-width="7" stroke-linecap="round"/>
<path d="M446.348 153.507L470.428 151.649" stroke="#BAC3D7" stroke-width="7" stroke-linecap="round"/>
</svg>
