<svg width="413" height="427" viewBox="0 0 413 427" fill="none" xmlns="http://www.w3.org/2000/svg">
<path d="M9.72954 216.5C32.1295 206.5 43.0629 226.667 45.7295 238C76.9296 221.6 91.0629 150.833 94.2295 117.5C129.829 146.7 174.063 129.667 191.729 117.5C236.017 87 225.229 54.125 197.729 33.5C181.729 21.5 176.063 9.16667 173.229 0C165.396 12.1667 158.729 33.5 137.729 45.5C127.311 51.4537 95.2295 52.0711 78.2295 56C-11.7705 76.8 -4.93713 171.667 9.72954 216.5Z" fill="#BAC3D7"/>
<path d="M12.2295 212.5C5.89616 224.333 -0.47011 254.5 30.7299 264.5C33.3965 276.5 47.5298 302.9 82.7298 312.5C126.73 324.5 158.23 320.5 173.73 309C189.23 297.5 209.73 266.5 211.73 237" stroke="#BAC3D7" stroke-width="5" stroke-linecap="round"/>
<path d="M194.23 236.5L216.73 235C220.73 231.5 228.73 217.5 213.23 213.5C207.563 212.5 195.03 208.5 190.23 200.5" stroke="#BAC3D7" stroke-width="5" stroke-linecap="round"/>
<path d="M190.23 117C193.397 120.833 199.23 131 197.23 141" stroke="#BAC3D7" stroke-width="5" stroke-linecap="round"/>
<path d="M115.23 182C116.397 179.167 120.03 172.5 125.23 168.5" stroke="#BAC3D7" stroke-width="5" stroke-linecap="round"/>
<ellipse cx="153.73" cy="197" rx="4" ry="6" fill="#BAC3D7"/>
<ellipse cx="210.73" cy="171" rx="4" ry="6" fill="#BAC3D7"/>
<path d="M168.23 200.5C168.23 217.476 156.662 230.5 143.23 230.5C129.798 230.5 118.23 217.476 118.23 200.5C118.23 183.524 129.798 170.5 143.23 170.5C156.662 170.5 168.23 183.524 168.23 200.5Z" stroke="#BAC3D7" stroke-width="5"/>
<path d="M220.23 173C220.23 181.348 217.689 188.809 213.701 194.127C209.713 199.445 204.394 202.5 198.73 202.5C193.066 202.5 187.747 199.445 183.759 194.127C179.771 188.809 177.23 181.348 177.23 173C177.23 164.652 179.771 157.191 183.759 151.873C187.747 146.555 193.066 143.5 198.73 143.5C204.394 143.5 209.713 146.555 213.701 151.873C217.689 157.191 220.23 164.652 220.23 173Z" stroke="#BAC3D7" stroke-width="5"/>
<path d="M165.23 185L177.23 178.5" stroke="#BAC3D7" stroke-width="5" stroke-linecap="round"/>
<path d="M179.23 144C180.563 141.167 184.63 135.6 190.23 136" stroke="#BAC3D7" stroke-width="5" stroke-linecap="round"/>
<path d="M73.73 202L117.73 203.5" stroke="#BAC3D7" stroke-width="5" stroke-linecap="round"/>
<path d="M27.2298 231.5C25.3964 234.333 22.8298 241 27.2298 245" stroke="#BAC3D7" stroke-width="5" stroke-linecap="round"/>
<path d="M137.23 254.5C132.564 255.667 124.23 262 128.23 278" stroke="#BAC3D7" stroke-width="5" stroke-linecap="round"/>
<path d="M144.73 271C156.563 269.624 181.93 264.497 188.73 255" stroke="#BAC3D7" stroke-width="5" stroke-linecap="round"/>
<path d="M143.73 271.5C154.897 280.667 179.53 290.4 188.73 256" stroke="#BAC3D7" stroke-width="5" stroke-linecap="round"/>
<path d="M52.7298 297C48.8965 302.167 43.9298 314.3 54.7298 321.5C65.5298 328.7 84.2298 334.833 92.2297 337C100.73 339.5 118.03 337.5 113.23 319.5" stroke="#BAC3D7" stroke-width="5" stroke-linecap="round"/>
<path d="M200.73 303C208.063 299 222.13 286.3 219.73 267.5" stroke="#BAC3D7" stroke-width="5" stroke-linecap="round"/>
<path d="M243.23 347L237.23 316.5L258.23 338C278.23 318.4 345.068 319.103 375.73 328.5C406.73 338 417.23 364.5 405.23 389.5C393.23 414.5 323.23 433.5 267.73 420C223.33 409.2 232.897 366.833 243.23 347Z" stroke="#BAC3D7" stroke-width="5" stroke-linecap="round"/>
<path d="M278.23 358.5L300.73 353.5" stroke="#BAC3D7" stroke-width="5" stroke-linecap="round"/>
<path d="M276.73 379.5L371.73 367.5" stroke="#BAC3D7" stroke-width="5" stroke-linecap="round"/>
<path d="M277.73 398.987L337.16 391.985" stroke="#BAC3D7" stroke-width="5" stroke-linecap="round"/>
</svg>
