<svg width="345" height="638" viewBox="0 0 345 638" fill="none" xmlns="http://www.w3.org/2000/svg">
<path d="M206.869 245C197.035 254.667 175.169 296.6 164.369 377C153.569 457.4 150.869 434.5 144.369 476.5C142.869 483.833 137.569 492.7 128.369 469.5C119.169 446.3 106.535 401.333 103.369 381.5" stroke="#BAC3D7" stroke-width="5" stroke-linecap="round"/>
<path d="M206.288 249.289C161.088 192.889 177.788 149.123 191.788 134.289C198.188 181.889 236.121 200.789 254.288 204.289V221.289C248.688 217.289 219.954 238.289 206.288 249.289Z" fill="#BAC3D7"/>
<path d="M237.639 10.6434C284.139 -16.3566 316.849 31.7922 326.639 49.6434C332.855 46.9582 338.995 50.7623 341.288 53V114.789C343.086 121.981 342.548 127.615 341.288 131.585V171.5C341.288 193.5 316.369 206.57 303.869 209.5L301.788 185.289C315.788 170.889 323.621 148.289 325.788 138.789C330.588 141.589 335.788 139.289 337.788 137.789C338.883 136.767 340.305 134.682 341.288 131.585V114.789C338.088 101.989 329.288 107.123 325.288 111.289L302.788 117.789C299.988 96.1894 285.522 91.3588 278.639 91.6434C281.839 78.8434 271.472 75.3101 266.139 74.1434C260.539 84.1434 251.806 89.3101 248.139 91.6434C209.739 109.243 182.639 99.1435 168.139 83.1434C152.639 67.1434 147.139 24.1435 180.139 7.64343C190.756 1.26142 217.12 -7.07338 237.639 10.6434Z" fill="#BAC3D7"/>
<path d="M302.139 118.143C302.139 133.043 291.368 144.643 278.639 144.643C265.91 144.643 255.139 133.043 255.139 118.143C255.139 103.244 265.91 91.6434 278.639 91.6434C291.368 91.6434 302.139 103.244 302.139 118.143Z" stroke="#BAC3D7" stroke-width="5"/>
<path d="M239.139 127.143C239.139 142.043 228.368 153.643 215.639 153.643C202.91 153.643 192.139 142.043 192.139 127.143C192.139 112.244 202.91 100.643 215.639 100.643C228.368 100.643 239.139 112.244 239.139 127.143Z" stroke="#BAC3D7" stroke-width="5"/>
<path d="M239.283 121.528L254.995 119.759" stroke="#BAC3D7" stroke-width="5" stroke-linecap="round"/>
<path d="M250.639 135.143C248.139 147.643 240.539 159.043 252.139 164.643M253.139 185.643C259.869 187 268.369 180.5 268.369 173" stroke="#BAC3D7" stroke-width="5" stroke-linecap="round"/>
<circle cx="210.139" cy="145.289" r="7.5" fill="#BAC3D7"/>
<circle cx="272.139" cy="136.289" r="7.5" fill="#BAC3D7"/>
<path d="M332.639 119.143C333.806 121.143 335.439 125.943 332.639 129.143" stroke="#BAC3D7" stroke-width="5" stroke-linecap="round"/>
<path d="M193.139 99.7894C186.972 119.123 186.227 163.843 229.827 194.643C273.427 225.443 306.994 183.477 318.327 158.643L325.827 138.143C330.994 141.31 341.427 143.143 341.827 125.143C342.227 107.143 334.994 105.977 331.327 107.643C329.327 108.477 325.127 111.343 324.327 116.143" stroke="#BAC3D7" stroke-width="5" stroke-linecap="round"/>
<path d="M302.639 117.143L327.639 110.143" stroke="#BAC3D7" stroke-width="5" stroke-linecap="round"/>
<path d="M253.639 204.643V218.143M301.139 185.143L303.639 207.143" stroke="#BAC3D7" stroke-width="5" stroke-linecap="round"/>
<path d="M274.639 117.796C278.757 117.663 287.322 119.475 288.639 127.789" stroke="#BAC3D7" stroke-width="5" stroke-linecap="round"/>
<path d="M201.639 125.628C204.468 123.743 211.68 120.82 217.903 124.214" stroke="#BAC3D7" stroke-width="5" stroke-linecap="round"/>
<path d="M303.369 207C294.535 214.333 271.569 227.3 254.369 218.5" stroke="#BAC3D7" stroke-width="5" stroke-linecap="round"/>
<path d="M56.3687 384C50.702 393 46.3687 410.7 74.3687 409.5C102.369 408.3 104.702 383 102.369 370.5" stroke="#BAC3D7" stroke-width="5" stroke-linecap="round"/>
<path d="M52.4204 394C48.2538 450.833 75.3685 577 169.42 609.5C178.869 611.5 199.034 614.574 214.42 579C224.369 556 235.036 512.976 239.582 472.5M243.92 394C245.161 397.226 244.062 432.606 239.582 472.5M239.582 472.5C234.695 493 229.72 554.3 248.92 635.5" stroke="#BAC3D7" stroke-width="5" stroke-linecap="round"/>
<path d="M67.3686 409C66.2019 398.833 58.4686 377.1 36.8686 371.5C27.3686 369.333 9.36856 364 8.36857 355.5C7.48059 347.952 14.8686 346.677 19.3686 348.01M37.3686 361.5C20.3686 351.833 -3.33143 332.2 3.86857 291C4.03523 288.833 5.76856 284.6 11.3686 285M11.3686 300.5C13.2019 310.667 18.7016 332.296 25.8686 331.5C30.3686 331 29.8686 325.5 27.3686 321C18.3986 297.934 22.3686 290 27.3686 290.5C32.3686 291 33.3686 300.5 36.8686 315.5M34.7944 305C43.3686 305 45.4686 305.1 53.8686 327.5M49.8686 315.5C51.3686 312.167 56.1686 308.8 63.3686 322C68.3686 331.167 74.6686 351.8 87.8686 357C101.069 362.2 101.369 367 102.369 370" stroke="#BAC3D7" stroke-width="5" stroke-linecap="round"/>
<path d="M11.3687 300.5V269M11.3687 269L71.8687 259.5L99.3687 274M11.3687 269L38.3687 283.5M99.3687 274L38.3687 283.5M99.3687 274V334.5L72.8687 339M38.3687 283.5V304M75.3687 289.5L88.8687 287.5V300.5" stroke="#BAC3D7" stroke-width="5" stroke-linecap="round"/>
</svg>
