<svg width="823" height="701" viewBox="0 0 823 701" fill="none" xmlns="http://www.w3.org/2000/svg">
<rect x="137.643" y="301.059" width="478" height="330" transform="rotate(-14.3321 137.643 301.059)" fill="white"/>
<rect x="155.281" y="311.518" width="449" height="301" transform="rotate(-14.3321 155.281 311.518)" stroke="#2D374B" stroke-width="3"/>
<rect x="156.142" y="315.503" width="478" height="330" transform="rotate(-13.417 156.142 315.503)" fill="white"/>
<path d="M439.166 574.456L591.917 537.658M380.166 588.456L242.342 620.836L211.166 489.955M391.166 585.956L409.666 581.456M205.277 465.456L203.13 456.456M200.148 443.956L171.803 325.133L611.467 220.252L653.478 396.363" stroke="#2D374B" stroke-width="3" stroke-linecap="round"/>
<path d="M64.2093 271.241C59.8236 272.182 55.6378 273.561 51.6796 275.29L53.8046 285.196C48.5292 287.733 43.796 291.002 39.6679 294.928L31.1607 289.425C28.0804 292.575 25.3976 296.071 23.0141 299.756C20.6305 303.441 18.5427 307.322 16.9335 311.423L25.4408 316.925C23.5534 322.3 22.5132 327.957 22.3635 333.809L12.4568 335.934C12.5034 340.253 12.9626 344.636 13.9034 349.022C14.8441 353.407 16.2229 357.593 17.9517 361.551L27.8584 359.426C30.3949 364.702 33.664 369.435 37.5897 373.563L32.0875 382.07C35.2371 385.151 38.7327 387.833 42.4181 390.217C46.1034 392.6 49.9838 394.688 54.0849 396.297L59.5871 387.79C64.962 389.678 70.6197 390.718 76.4713 390.868L78.5963 400.774C82.9152 400.728 87.2983 400.268 91.684 399.328C96.0695 398.387 100.255 397.008 104.214 395.279L102.089 385.373C107.364 382.836 112.097 379.567 116.225 375.641L124.733 381.143C127.813 377.994 130.496 374.498 132.879 370.813C135.263 367.128 137.35 363.247 138.96 359.146L130.452 353.644C132.34 348.269 133.38 342.611 133.53 336.76L143.436 334.635C143.39 330.316 142.931 325.933 141.99 321.547C141.049 317.161 139.67 312.976 137.941 309.017L128.035 311.142C125.498 305.867 122.229 301.134 118.303 297.006L123.806 288.498C120.656 285.418 117.16 282.735 113.475 280.352C109.79 277.968 105.909 275.881 101.808 274.271L96.3061 282.779C90.9311 280.891 85.2735 279.851 79.4219 279.701L77.2969 269.795C72.978 269.841 68.5948 270.3 64.2093 271.241V271.241ZM71.0779 303.263C88.7538 299.471 106.177 310.74 109.968 328.416C113.76 346.092 102.491 363.515 84.8153 367.306C67.1393 371.098 49.7165 359.829 45.925 342.153C42.1335 324.477 53.402 307.054 71.0779 303.263Z" fill="#BAC3D7"/>
<path d="M319.25 355.204C314.887 356.245 310.734 357.719 306.817 359.538L309.168 369.393C303.952 372.05 299.294 375.426 295.257 379.445L286.626 374.139C283.619 377.358 281.017 380.914 278.718 384.653C276.419 388.392 274.421 392.319 272.906 396.456L281.537 401.762C279.773 407.179 278.862 412.859 278.846 418.712L268.991 421.063C269.136 425.38 269.696 429.752 270.736 434.115C271.777 438.478 273.251 442.631 275.07 446.548L284.926 444.197C287.582 449.413 290.959 454.071 294.978 458.108L289.672 466.739C292.891 469.746 296.447 472.348 300.186 474.647C303.925 476.946 307.852 478.944 311.989 480.459L317.295 471.828C322.712 473.592 328.392 474.503 334.245 474.519L336.596 484.374C340.913 484.229 345.284 483.669 349.647 482.629C354.01 481.588 358.163 480.114 362.081 478.295L359.73 468.439C364.946 465.783 369.603 462.406 373.64 458.387L382.271 463.693C385.279 460.474 387.881 456.918 390.179 453.179C392.478 449.44 394.477 445.513 395.992 441.376L387.361 436.07C389.125 430.653 390.035 424.974 390.051 419.12L399.907 416.769C399.761 412.452 399.202 408.081 398.161 403.718C397.12 399.355 395.646 395.202 393.827 391.284L383.972 393.635C381.315 388.419 377.939 383.762 373.92 379.725L379.226 371.094C376.007 368.086 372.451 365.484 368.712 363.186C364.973 360.887 361.046 358.888 356.909 357.373L351.603 366.004C346.186 364.24 340.506 363.33 334.653 363.314L332.302 353.458C327.985 353.604 323.613 354.163 319.25 355.204V355.204ZM326.85 387.06C344.434 382.865 362.11 393.732 366.305 411.317C370.5 428.902 359.633 446.578 342.048 450.772C324.463 454.967 306.787 444.1 302.593 426.515C298.398 408.931 309.265 391.255 326.85 387.06Z" stroke="#2D374B" stroke-width="5" stroke-linecap="round" stroke-linejoin="round"/>
<path d="M354.26 500.851C352.162 501.351 350.165 502.06 348.281 502.935L349.411 507.674C346.903 508.952 344.663 510.576 342.722 512.509L338.571 509.957C337.125 511.505 335.873 513.215 334.768 515.013C333.662 516.811 332.701 518.7 331.973 520.689L336.123 523.241C335.275 525.846 334.837 528.578 334.829 531.393L330.09 532.523C330.16 534.599 330.429 536.702 330.929 538.8C331.43 540.898 332.139 542.895 333.013 544.78L337.753 543.649C339.031 546.157 340.654 548.397 342.587 550.339L340.036 554.489C341.584 555.936 343.294 557.187 345.092 558.293C346.89 559.398 348.779 560.359 350.768 561.088L353.32 556.937C355.925 557.785 358.656 558.223 361.472 558.231L362.602 562.971C364.678 562.901 366.78 562.632 368.879 562.131C370.977 561.631 372.974 560.922 374.858 560.047L373.728 555.307C376.236 554.03 378.476 552.406 380.417 550.473L384.568 553.025C386.014 551.477 387.266 549.766 388.371 547.968C389.477 546.17 390.438 544.282 391.166 542.292L387.016 539.74C387.864 537.135 388.302 534.404 388.31 531.589L393.049 530.458C392.979 528.382 392.71 526.28 392.21 524.182C391.709 522.083 391 520.086 390.126 518.202L385.386 519.333C384.108 516.824 382.485 514.584 380.552 512.643L383.104 508.492C381.555 507.046 379.845 505.794 378.047 504.689C376.249 503.584 374.36 502.622 372.371 501.894L369.819 506.045C367.214 505.196 364.483 504.758 361.668 504.751L360.537 500.011C358.461 500.081 356.359 500.35 354.26 500.851V500.851ZM357.915 516.171C366.372 514.153 374.872 519.379 376.89 527.836C378.907 536.293 373.681 544.794 365.224 546.811C356.767 548.828 348.267 543.602 346.249 535.145C344.232 526.689 349.458 518.188 357.915 516.171Z" stroke="#2D374B" stroke-opacity="0.7" stroke-width="3" stroke-linecap="round" stroke-linejoin="round"/>
<path d="M595.643 487.511L617.438 436.851C637.727 389.693 695.134 371.517 738.867 398.403C782.676 425.337 792.313 484.91 759.23 524.283L723.752 566.506C699.506 595.362 657.785 602.111 625.678 582.371C593.505 562.592 580.717 522.203 595.643 487.511Z" stroke="#BAC3D7" stroke-width="5"/>
<path d="M609.011 461.418L617.698 439.743C636.779 392.131 694.138 373.174 737.834 400.038C781.618 426.956 790.524 486.86 756.466 525.352L740.992 542.84C715.658 571.471 673.411 577.753 640.842 557.73C608.196 537.659 594.755 496.99 609.011 461.418Z" fill="#BAC3D7"/>
<circle cx="334.394" cy="418.452" r="15.5" transform="rotate(-13.417 334.394 418.452)" stroke="#2D374B" stroke-width="2"/>
<circle cx="334.394" cy="418.452" r="22.5" transform="rotate(-13.417 334.394 418.452)" stroke="#2D374B" stroke-width="2"/>
<path d="M311.837 317.429C311.709 316.892 311.17 316.56 310.633 316.688C310.095 316.817 309.764 317.356 309.892 317.893L311.837 317.429ZM370.686 572.742C370.814 573.28 371.353 573.611 371.89 573.483C372.428 573.355 372.759 572.816 372.631 572.278L370.686 572.742ZM309.892 317.893L311.274 323.685L313.219 323.221L311.837 317.429L309.892 317.893ZM314.037 335.269L316.8 346.853L318.746 346.389L315.982 334.805L314.037 335.269ZM319.564 358.437L322.327 370.021L324.272 369.557L321.509 357.973L319.564 358.437ZM325.09 381.605L327.854 393.19L329.799 392.725L327.036 381.141L325.09 381.605ZM330.617 404.774L333.38 416.358L335.326 415.894L332.563 404.31L330.617 404.774ZM336.144 427.942L338.907 439.526L340.853 439.062L338.089 427.478L336.144 427.942ZM341.67 451.11L344.434 462.694L346.379 462.23L343.616 450.646L341.67 451.11ZM347.197 474.278L349.961 485.862L351.906 485.398L349.143 473.814L347.197 474.278ZM352.724 497.446L355.487 509.03L357.433 508.566L354.669 496.982L352.724 497.446ZM358.251 520.614L361.014 532.198L362.959 531.734L360.196 520.15L358.251 520.614ZM363.777 543.782L366.541 555.366L368.486 554.902L365.723 543.318L363.777 543.782ZM369.304 566.95L370.686 572.742L372.631 572.278L371.249 566.486L369.304 566.95Z" fill="#2D374B"/>
<path d="M421.334 285.141C421.206 284.603 420.667 284.272 420.129 284.4C419.592 284.528 419.26 285.067 419.389 285.605L421.334 285.141ZM462.547 466.528C462.676 467.065 463.215 467.397 463.752 467.269C464.289 467.141 464.621 466.601 464.493 466.064L462.547 466.528ZM419.389 285.605L420.737 291.258L422.683 290.794L421.334 285.141L419.389 285.605ZM423.435 302.566L426.132 313.874L428.078 313.41L425.38 302.102L423.435 302.566ZM428.83 325.182L431.527 336.489L433.472 336.025L430.775 324.718L428.83 325.182ZM434.224 347.797L436.922 359.105L438.867 358.641L436.17 347.333L434.224 347.797ZM439.619 370.412L442.317 381.72L444.262 381.256L441.565 369.948L439.619 370.412ZM445.014 393.028L447.712 404.336L449.657 403.872L446.96 392.564L445.014 393.028ZM450.409 415.643L453.106 426.951L455.052 426.487L452.354 415.179L450.409 415.643ZM455.804 438.259L458.501 449.567L460.447 449.102L457.749 437.795L455.804 438.259ZM461.199 460.874L462.547 466.528L464.493 466.064L463.144 460.41L461.199 460.874Z" fill="#2D374B"/>
<path d="M487.638 274.225C487.51 273.688 486.97 273.357 486.433 273.485C485.896 273.613 485.564 274.152 485.692 274.69L487.638 274.225ZM534.884 480.903C535.012 481.441 535.552 481.772 536.089 481.644C536.626 481.516 536.958 480.977 536.829 480.439L534.884 480.903ZM485.692 274.69L487.059 280.418L489.004 279.954L487.638 274.225L485.692 274.69ZM489.792 291.874L492.525 303.33L494.47 302.866L491.737 291.41L489.792 291.874ZM495.257 314.787L497.99 326.243L499.936 325.779L497.203 314.323L495.257 314.787ZM500.723 337.699L503.456 349.156L505.401 348.692L502.669 337.235L500.723 337.699ZM506.189 360.612L508.922 372.068L510.867 371.604L508.134 360.148L506.189 360.612ZM511.655 383.525L514.388 394.981L516.333 394.517L513.6 383.061L511.655 383.525ZM517.12 406.437L519.853 417.894L521.799 417.43L519.066 405.973L517.12 406.437ZM522.586 429.35L525.319 440.806L527.264 440.342L524.532 428.886L522.586 429.35ZM528.052 452.263L530.785 463.719L532.73 463.255L529.997 451.799L528.052 452.263ZM533.518 475.175L534.884 480.903L536.829 480.439L535.463 474.711L533.518 475.175Z" fill="#2D374B"/>
<path d="M559.655 278.874C559.527 278.337 558.987 278.005 558.45 278.133C557.913 278.261 557.581 278.801 557.709 279.338L559.655 278.874ZM596.924 443.725C597.052 444.263 597.591 444.594 598.128 444.466C598.666 444.338 598.997 443.799 598.869 443.261L596.924 443.725ZM557.709 279.338L559.11 285.209L561.055 284.745L559.655 278.874L557.709 279.338ZM561.911 296.951L564.712 308.693L566.657 308.229L563.856 296.487L561.911 296.951ZM567.513 320.435L570.314 332.177L572.259 331.713L569.458 319.971L567.513 320.435ZM573.115 343.919L575.916 355.661L577.861 355.197L575.06 343.455L573.115 343.919ZM578.717 367.403L581.518 379.145L583.463 378.681L580.662 366.939L578.717 367.403ZM584.319 390.887L587.12 402.629L589.065 402.165L586.264 390.423L584.319 390.887ZM589.921 414.371L592.722 426.113L594.667 425.648L591.866 413.906L589.921 414.371ZM595.523 437.854L596.924 443.725L598.869 443.261L597.468 437.39L595.523 437.854Z" fill="#2D374B"/>
<path d="M299.66 546.507C299.122 546.635 298.791 547.174 298.919 547.712C299.047 548.249 299.586 548.58 300.124 548.452L299.66 546.507ZM419.767 519.912C420.304 519.784 420.635 519.244 420.507 518.707C420.379 518.17 419.84 517.838 419.303 517.966L419.767 519.912ZM300.124 548.452L306.106 547.025L305.642 545.08L299.66 546.507L300.124 548.452ZM318.07 544.171L330.034 541.317L329.57 539.372L317.606 542.226L318.07 544.171ZM341.999 538.463L353.963 535.609L353.499 533.664L341.535 536.518L341.999 538.463ZM365.927 532.755L377.892 529.901L377.428 527.955L365.463 530.81L365.927 532.755ZM389.856 527.047L401.82 524.193L401.356 522.247L389.392 525.101L389.856 527.047ZM413.784 521.339L419.767 519.912L419.303 517.966L413.32 519.393L413.784 521.339Z" fill="#2D374B"/>
<path d="M237.494 441.054C236.957 441.182 236.625 441.721 236.753 442.258C236.882 442.796 237.421 443.127 237.958 442.999L237.494 441.054ZM605.641 355.289C606.179 355.161 606.51 354.622 606.382 354.085C606.254 353.547 605.715 353.216 605.177 353.344L605.641 355.289ZM237.958 442.999L243.703 441.629L243.239 439.683L237.494 441.054L237.958 442.999ZM255.193 438.888L266.683 436.147L266.219 434.201L254.729 436.942L255.193 438.888ZM278.173 433.406L289.664 430.665L289.199 428.719L277.709 431.46L278.173 433.406ZM301.154 427.924L312.644 425.183L312.18 423.238L300.69 425.979L301.154 427.924ZM324.134 422.442L335.624 419.701L335.16 417.756L323.67 420.497L324.134 422.442ZM347.114 416.96L358.604 414.219L358.14 412.274L346.65 415.015L347.114 416.96ZM370.094 411.478L381.584 408.737L381.12 406.792L369.63 409.533L370.094 411.478ZM393.074 405.997L404.565 403.256L404.101 401.31L392.61 404.051L393.074 405.997ZM416.055 400.515L427.545 397.774L427.081 395.828L415.591 398.569L416.055 400.515ZM439.035 395.033L450.525 392.292L450.061 390.346L438.571 393.087L439.035 395.033ZM462.015 389.551L473.505 386.81L473.041 384.865L461.551 387.606L462.015 389.551ZM484.995 384.069L496.485 381.328L496.021 379.383L484.531 382.124L484.995 384.069ZM507.976 378.587L519.466 375.846L519.002 373.901L507.511 376.642L507.976 378.587ZM530.956 373.105L542.446 370.364L541.982 368.419L530.492 371.16L530.956 373.105ZM553.936 367.623L565.426 364.883L564.962 362.937L553.472 365.678L553.936 367.623ZM576.916 362.142L588.406 359.401L587.942 357.455L576.452 360.196L576.916 362.142ZM599.896 356.66L605.641 355.289L605.177 353.344L599.432 354.714L599.896 356.66Z" fill="#2D374B"/>
<path d="M302.908 560.125L315.553 557.109" stroke="#2D374B" stroke-width="3" stroke-linecap="round"/>
<path d="M439.221 515.271L522.874 495.316" stroke="#2D374B" stroke-width="3" stroke-linecap="round"/>
<path d="M442.005 526.943L518.849 508.612" stroke="#2D374B" stroke-width="3" stroke-linecap="round"/>
<path d="M443.629 533.752L485.456 523.775" stroke="#2D374B" stroke-width="3" stroke-linecap="round"/>
<path d="M304.532 566.934L330.795 560.669" stroke="#2D374B" stroke-width="3" stroke-linecap="round"/>
<path d="M454.376 358.578L468.449 335.688" stroke="#2D374B" stroke-opacity="0.6" stroke-width="3" stroke-linecap="round"/>
<path d="M447.045 397.234L499.633 311.697" stroke="#2D374B" stroke-opacity="0.6" stroke-width="3" stroke-linecap="round"/>
<path d="M459.836 403.16L476.917 375.363M510.417 321.363L492.901 349.377" stroke="#2D374B" stroke-opacity="0.6" stroke-width="3" stroke-linecap="round"/>
<path d="M469.417 414.308L482.534 392.973M525.708 322.747L512.901 343.578" stroke="#2D374B" stroke-opacity="0.6" stroke-width="3" stroke-linecap="round"/>
<path d="M474.8 432.282L492.496 403.499M542.917 320.864L526.417 348.364" stroke="#2D374B" stroke-opacity="0.6" stroke-width="3" stroke-linecap="round"/>
<path d="M491.912 431.181L505.126 409.687M549.917 337.363L537.417 356.863" stroke="#2D374B" stroke-opacity="0.6" stroke-width="3" stroke-linecap="round"/>
<path d="M507.541 432.489L521.305 409.826M557.417 350.363L542.917 374.863" stroke="#2D374B" stroke-opacity="0.6" stroke-width="3" stroke-linecap="round"/>
<path d="M518.727 441.026L571.417 354.363" stroke="#2D374B" stroke-opacity="0.6" stroke-width="3" stroke-linecap="round"/>
<path d="M548.43 419.444L564.417 393.363" stroke="#2D374B" stroke-opacity="0.6" stroke-width="3" stroke-linecap="round"/>
<path d="M494.67 313.488C490.307 314.528 486.154 316.003 482.236 317.821L484.587 327.677C479.371 330.333 474.714 333.71 470.677 337.729L462.046 332.423C459.038 335.642 456.436 339.198 454.138 342.937C451.839 346.676 449.84 350.603 448.325 354.74L456.956 360.046C455.192 365.463 454.282 371.143 454.266 376.996L444.41 379.347C444.556 383.664 445.115 388.035 446.156 392.398C447.197 396.761 448.671 400.915 450.49 404.832L460.345 402.481C463.002 407.697 466.378 412.354 470.397 416.392L465.091 425.022C468.31 428.03 471.866 430.632 475.605 432.931C479.344 435.229 483.271 437.228 487.408 438.743L492.714 430.112C498.131 431.876 503.811 432.786 509.664 432.802L512.015 442.658C516.332 442.512 520.704 441.953 525.067 440.912C529.43 439.872 533.583 438.397 537.5 436.578L535.149 426.723C540.365 424.066 545.023 420.69 549.06 416.671L557.691 421.977C560.698 418.758 563.3 415.202 565.599 411.463C567.898 407.724 569.896 403.797 571.411 399.66L562.78 394.354C564.544 388.937 565.455 383.257 565.471 377.404L575.326 375.053C575.181 370.736 574.621 366.365 573.581 362.002C572.54 357.639 571.066 353.485 569.247 349.568L559.391 351.919C556.735 346.703 553.358 342.046 549.339 338.008L554.645 329.377C551.426 326.37 547.87 323.768 544.131 321.469C540.392 319.171 536.465 317.172 532.328 315.657L527.022 324.288C521.605 322.524 515.925 321.613 510.072 321.598L507.721 311.742C503.404 311.888 499.033 312.447 494.67 313.488V313.488ZM502.269 345.344C519.854 341.149 537.53 352.016 541.724 369.601C545.919 387.185 535.052 404.861 517.467 409.056C499.883 413.251 482.207 402.384 478.012 384.799C473.817 367.215 484.684 349.539 502.269 345.344Z" stroke="#2D374B" stroke-width="5" stroke-linecap="round" stroke-linejoin="round"/>
<path d="M218.405 378.269L364.797 343.348" stroke="#2D374B" stroke-width="3" stroke-linecap="round"/>
<path d="M303.875 493.07L394.337 471.491" stroke="#2D374B" stroke-width="3" stroke-linecap="round"/>
<path d="M422.059 464.878L569.424 429.724" stroke="#2D374B" stroke-width="3" stroke-linecap="round"/>
<path d="M451.97 323.067L541.459 301.72" stroke="#2D374B" stroke-width="3" stroke-linecap="round"/>
<path d="M456.642 601.689C452.642 597.189 448.141 590.689 447.141 583.689C446.453 578.872 441.308 575.522 438.141 575.689M438.642 583.689C438.642 580.022 438.941 572.789 430.141 573.189M432.142 580.189C430.808 576.356 427.032 569.089 420.232 572.689M426.641 584.689C424.475 583.356 421.642 577.889 419.642 570.689C417.642 563.489 407.142 557.356 402.142 555.189C399.475 554.022 394.142 553.389 394.142 560.189C394.141 566.189 408.842 571.389 409.642 580.189C410.442 588.989 409.975 592.856 409.642 593.689C408.808 595.356 405.842 597.389 400.642 592.189C395.442 586.989 388.641 585.689 385.142 586.689C382.142 587.689 377.942 591.089 385.142 596.689C390.491 600.85 408.041 608.589 423.641 628.189" stroke="#BAC3D7" stroke-width="5" stroke-linecap="round"/>
<path d="M594.5 679.5C553.7 640.7 496.5 605.455 471.908 605.455C426.962 605.455 428.061 627.538 434.302 638.766C434.373 638.894 434.453 639.004 434.551 639.112C447.139 653.024 477.593 684.109 499.908 698.455" stroke="#BAC3D7" stroke-width="5" stroke-linecap="round"/>
<path d="M46.1661 669.3C55.7661 655.7 80.8328 618.053 91.6661 599.8C99.0851 587.3 104.648 573.403 106.666 563.955C110.666 545.229 122.166 511.455 157.166 557.955C165.445 568.955 173.5 579 140 644" stroke="#BAC3D7" stroke-width="5" stroke-linecap="round"/>
<path d="M170.762 547.551C178.079 538.546 191.306 524.475 196.653 514.625L205.377 499.71C211.286 490.215 213.816 482.475 216.074 478.278C217.078 476.413 217.703 474.996 219.093 472.224C220.355 469.707 221.465 467.166 220.584 465.081C219.91 463.485 217.096 460.691 211.238 462.286C205.379 463.881 201.384 468.829 200.118 471.103C198.851 472.988 193.349 479.817 191.841 481.315C188.34 484.798 171.088 499.239 160.329 490.778M158.235 476.794C167.166 472.072 184.515 463.56 190.559 457.715C196.766 456.514 212.094 458.522 210.547 450.291C210.225 448.577 204.828 444.323 196.805 442.88C191.032 441.841 186.846 441.436 182.05 444.013C179.331 445.474 178.252 445.993 174.742 448.325M157.903 460.882C162.535 456.513 165.845 454.014 168.131 452.443C170.356 450.914 172.017 449.525 174.742 448.325M174.742 448.325C173.285 447.532 166.99 447.584 159.569 451.259C151.463 455.274 150.078 456.794 146.939 458.865C143.8 460.937 137.522 465.079 135.065 467.077C130.716 470.613 126.753 474.598 125.189 476.609C122.434 480.862 123.969 484.081 128.109 492.002M130.592 506.708C130.592 511.981 129.394 524.475 125.736 534.887" stroke="#BAC3D7" stroke-width="5" stroke-linecap="round"/>
<path d="M203.164 467.079L132.559 505.657C124.029 508.993 118.095 497.301 127.046 493.353L158.186 476.751M212.985 461.579L226.043 454.52L219.859 444.632L211.02 449.097" stroke="#BAC3D7" stroke-width="5" stroke-linecap="round"/>
<path d="M227.804 453.562L235.166 442.667" stroke="#BAC3D7" stroke-width="5" stroke-linecap="round"/>
<path d="M221.613 443.712L235.166 442.667" stroke="#BAC3D7" stroke-width="5" stroke-linecap="round"/>
<path d="M287.802 108.437C287.737 106.879 289.401 105.849 290.766 106.602L296.906 109.986C298.246 110.725 298.294 112.633 296.993 113.438L291.146 117.059C289.845 117.864 288.159 116.97 288.095 115.442L287.802 108.437Z" fill="#BAC3D7"/>
<path d="M465.915 118.051C467.561 117.952 468.612 119.774 467.704 121.149L463.683 127.24C462.864 128.481 461.025 128.426 460.282 127.138L457.018 121.485C456.275 120.197 457.146 118.577 458.63 118.488L465.915 118.051Z" fill="#BAC3D7"/>
<path d="M337.263 211.68C323.284 195.625 285.642 133.86 267.216 102.7C266.659 101.757 266.979 100.567 267.915 99.9987L426.781 3.62576C427.807 3.00335 429.141 3.40824 429.642 4.49877C448.712 46.0227 480.935 97.01 496.01 119.329C496.661 120.293 496.352 121.596 495.345 122.178L339.686 212.048C338.88 212.513 337.875 212.382 337.263 211.68Z" stroke="#BAC3D7" stroke-width="5" stroke-linecap="round"/>
<path d="M293.889 114.936L341.041 190.559C341.611 191.474 342.804 191.772 343.738 191.233L459.766 124.244" stroke="#BAC3D7" stroke-width="5" stroke-linecap="round"/>
<path d="M342.353 190.878L333.157 130.165C332.937 128.709 334.312 127.522 335.72 127.953L366.127 137.259C367.509 137.682 368.87 136.543 368.698 135.107L361.86 78.2485C361.765 77.4535 362.153 76.678 362.846 76.2777L382.851 64.7277C383.482 64.3637 384.26 64.371 384.884 64.7468L434.648 94.7381" stroke="#BAC3D7" stroke-width="5" stroke-linecap="round"/>
<ellipse cx="333.387" cy="127.35" rx="4" ry="4.5" transform="rotate(-30 333.387 127.35)" fill="#BAC3D7"/>
<ellipse cx="368.904" cy="136.866" rx="4" ry="4.5" transform="rotate(-30 368.904 136.866)" fill="#BAC3D7"/>
<ellipse cx="362.189" cy="77.235" rx="4" ry="4.5" transform="rotate(-30 362.189 77.235)" fill="#BAC3D7"/>
<ellipse cx="384.705" cy="64.235" rx="4" ry="4.5" transform="rotate(-30 384.705 64.235)" fill="#BAC3D7"/>
<ellipse cx="354.436" cy="160.808" rx="4.5" ry="4" transform="rotate(-30 354.436 160.808)" fill="#BAC3D7"/>
<ellipse cx="435.82" cy="94.7682" rx="4" ry="4.5" transform="rotate(-30 435.82 94.7682)" fill="#BAC3D7"/>
<circle cx="422.753" cy="71.1354" r="4.5" transform="rotate(-30 422.753 71.1354)" fill="#BAC3D7"/>
<ellipse cx="377.237" cy="100.301" rx="4.5" ry="4" transform="rotate(-30 377.237 100.301)" fill="#BAC3D7"/>
<ellipse cx="418.205" cy="122.258" rx="4" ry="4.5" transform="rotate(-30 418.205 122.258)" fill="#BAC3D7"/>
<path d="M342.853 191.744L354.01 162.558C354.29 161.826 354.971 161.325 355.753 161.276L382.705 159.583C383.879 159.51 384.736 158.444 384.556 157.282L376.022 102.108C375.764 100.437 377.568 99.2188 379.021 100.084L416.353 122.297C417.645 123.066 419.292 122.188 419.373 120.687L422.07 70.9526" stroke="#BAC3D7" stroke-width="5" stroke-linecap="round"/>
<circle cx="383.886" cy="158.816" r="4" transform="rotate(-30 383.886 158.816)" fill="#BAC3D7"/>
<path d="M253.929 236.371L251.835 100.87L251.09 64.4106C251.067 63.2903 251.969 62.3698 253.089 62.3698L271.048 62.3698L294.139 62.3698C295.208 62.3698 296.087 63.2097 296.137 64.2771L297.835 100.871L304.234 233.534C304.289 234.675 303.379 235.631 302.236 235.631L274.802 235.631C276.247 250.694 254.852 253.609 253.929 236.371Z" fill="white"/>
<path d="M274.802 235.631C276.247 250.694 254.852 253.609 253.929 236.371L251.835 100.87L251.09 64.4106C251.067 63.2903 251.969 62.3698 253.089 62.3698L271.048 62.3698M274.802 235.631L272.335 100.871L271.048 62.3698M274.802 235.631L302.236 235.631C303.379 235.631 304.289 234.675 304.234 233.534L297.835 100.871L296.137 64.2771C296.087 63.2097 295.208 62.3698 294.139 62.3698L271.048 62.3698" stroke="#BAC3D7" stroke-width="5" stroke-linecap="round"/>
</svg>
