<svg width="412" height="488" viewBox="0 0 412 488" fill="none" xmlns="http://www.w3.org/2000/svg">
<path d="M148.764 79.424L157.764 99.424L134.764 92.924C95.5639 123.724 54.7639 114.257 43.2639 107.424C16.9306 93.924 -10.7358 61.924 10.7639 27.924C35.2828 -10.8506 94.5972 4.75731 117.264 14.424C128.931 18.2573 153.364 29.324 157.764 42.924C162.164 56.524 153.597 72.924 148.764 79.424Z" stroke="#BAC3D7" stroke-width="5" stroke-linecap="round"/>
<path d="M49.2642 31.4241H78.7642" stroke="#BAC3D7" stroke-width="5" stroke-linecap="round"/>
<path d="M41.7642 53.4241H115.764" stroke="#BAC3D7" stroke-width="5" stroke-linecap="round"/>
<path d="M39.2642 71.9241L86.7642 74.9241" stroke="#BAC3D7" stroke-width="5" stroke-linecap="round"/>
<path d="M278.264 305.424C317.464 305.824 328.264 257.924 358.764 259.924C342.764 282.924 352.098 308.424 363.264 313.424C358.464 355.424 337.597 396.924 327.764 412.424C313.598 435.924 266.364 476.624 190.764 451.424C115.164 426.224 124.931 354.257 139.264 321.424C150.764 293.424 187.764 312.924 190.764 317.424C193.764 321.924 207.264 331.424 215.264 321.424C223.264 311.424 229.264 304.924 278.264 305.424Z" fill="#BAC3D7"/>
<path d="M239.764 391.424C248.097 393.757 266.164 394.424 271.764 378.424" stroke="#21325B" stroke-width="5" stroke-linecap="round"/>
<path d="M202.264 253.424C202.264 271.442 188.093 285.924 170.764 285.924C153.435 285.924 139.264 271.442 139.264 253.424C139.264 235.406 153.435 220.924 170.764 220.924C188.093 220.924 202.264 235.406 202.264 253.424Z" stroke="#BAC3D7" stroke-width="5"/>
<path d="M298.264 255.424C298.264 273.407 283.903 287.924 266.264 287.924C248.625 287.924 234.264 273.407 234.264 255.424C234.264 237.441 248.625 222.924 266.264 222.924C283.903 222.924 298.264 237.441 298.264 255.424Z" stroke="#BAC3D7" stroke-width="5"/>
<ellipse cx="177.264" cy="260.924" rx="6.5" ry="7.5" fill="#BAC3D7"/>
<ellipse cx="260.264" cy="260.924" rx="6.5" ry="7.5" fill="#BAC3D7"/>
<path d="M199.764 239.424C206.316 235.651 223.088 230.369 237.764 239.424" stroke="#BAC3D7" stroke-width="5" stroke-linecap="round"/>
<path d="M300.764 246.924L376.764 244.424" stroke="#BAC3D7" stroke-width="5" stroke-linecap="round"/>
<path d="M374.764 271.424C376.264 275.757 378.364 286.224 374.764 293.424" stroke="#BAC3D7" stroke-width="5" stroke-linecap="round"/>
<path d="M361.764 254.924C362.764 252.924 391.644 236.487 398.818 269.319C402.894 287.973 395.024 320.087 369.264 322.924" stroke="#BAC3D7" stroke-width="5" stroke-linecap="round"/>
<path d="M202.875 254.424C204.708 265.091 205.475 289.324 193.875 300.924C179.375 315.424 198.375 338.424 217.875 322.424" stroke="#BAC3D7" stroke-width="5" stroke-linecap="round"/>
<path d="M151.764 319.424C147.931 313.424 142.564 297.724 151.764 282.924C163.264 264.424 184.764 207.424 186.264 181.424" stroke="#BAC3D7" stroke-width="5" stroke-linecap="round"/>
<path d="M193.764 156.424C202.264 135.424 232.064 93.924 283.264 95.924C334.464 97.924 358.931 119.757 364.764 130.424M364.764 130.424C369.431 147.591 374.964 192.924 359.764 236.924L384.264 246.924C390.097 221.924 394.364 163.624 364.764 130.424Z" stroke="#BAC3D7" stroke-width="5" stroke-linecap="round"/>
<path d="M359.264 238.424C331.997 167.362 237.069 153.779 193.764 156.87L132.264 157.924" stroke="#BAC3D7" stroke-width="5" stroke-linecap="round"/>
<path d="M137.764 257.424C112.931 261.591 58.3643 258.824 56.7643 212.424C54.7643 154.424 151.264 141.924 187.764 180.424C224.264 218.924 349.264 245.924 365.764 241.424" stroke="#BAC3D7" stroke-width="5" stroke-linecap="round"/>
<path d="M111.264 361.924C111.431 372.091 113.864 394.724 122.264 403.924" stroke="#BAC3D7" stroke-width="5" stroke-linecap="round"/>
<path d="M179.764 238.529C181.597 233.696 188.164 224.329 199.764 225.529" stroke="#BAC3D7" stroke-width="5" stroke-linecap="round"/>
<path d="M255.764 238.841C259.931 235.508 270.764 230.841 280.764 238.841" stroke="#BAC3D7" stroke-width="5" stroke-linecap="round"/>
<path d="M338.264 391.424L348.264 425.424C354.764 448.424 244.764 505.924 239.764 477.424L235.264 450.924" stroke="#BAC3D7" stroke-width="5" stroke-linecap="round"/>
</svg>
