<svg width="1276" height="1091" viewBox="0 0 1276 1091" fill="none" xmlns="http://www.w3.org/2000/svg">
<path d="M984.884 94.2467C1040.63 76.7373 1078.39 113.453 1090.3 134C1120.68 41.0933 1055.46 2.23333 1000.52 16.08C942.896 28.14 916.392 14.5911 904.034 0C907.757 38.7111 929.138 111.756 984.884 94.2467Z" fill="#BAC3D7"/>
<path d="M955.191 94C943.472 131.195 935.431 210.584 997.025 230.58C1023.28 236.829 1061.11 222.546 1075.35 185.946L1086.03 162.29" stroke="#BAC3D7" stroke-width="5" stroke-linecap="round"/>
<path d="M1086.03 138.56C1088.69 134.147 1095.02 128.173 1099.14 139.578C1103.26 150.984 1092.12 159.945 1086.03 163" stroke="#BAC3D7" stroke-width="5" stroke-linecap="round"/>
<path d="M1091.03 142C1092.43 142.933 1094.49 145.64 1091.5 149" stroke="#BAC3D7" stroke-width="5" stroke-linecap="round"/>
<path d="M1001.03 121C1000.13 127.407 995.852 141.776 986.034 148" stroke="#BAC3D7" stroke-width="5" stroke-linecap="round"/>
<path d="M1000.03 156C998.83 153.333 992.537 148.711 986.034 148" stroke="#BAC3D7" stroke-width="5" stroke-linecap="round"/>
<path d="M1029.03 110.007C1033.72 109.861 1043.87 111.854 1047.03 121" stroke="#BAC3D7" stroke-width="5" stroke-linecap="round"/>
<path d="M960.034 119C960.909 114.85 964.934 106.643 974.034 107.012" stroke="#BAC3D7" stroke-width="5" stroke-linecap="round"/>
<ellipse cx="975.534" cy="123" rx="4.5" ry="6" fill="#BAC3D7"/>
<ellipse cx="1033.03" cy="131" rx="4" ry="5" fill="#BAC3D7"/>
<path d="M1072.03 226C1115.97 241.061 1212.25 284.605 1245.86 338.289C1279.46 391.974 1241.84 418.368 1210.56 428.211L1149.79 447" stroke="#BAC3D7" stroke-width="5" stroke-linecap="round"/>
<path d="M988.971 229.114L985.832 258.148M1077.76 184L1067.44 247.428M971.034 256.362C989.419 261.424 1037.76 265.116 1084.03 239.388" stroke="#BAC3D7" stroke-width="5" stroke-linecap="round"/>
<path d="M968.747 888.14C913.831 739.577 918.364 610.746 935.745 570.606C995.401 614.763 1109.59 578.618 1148.28 563C1200.02 617.76 1155.32 910.745 1126.5 1050.39C1115.41 1068.65 1091.51 1059.27 1080.95 1052.29L1067.75 955.323L1052.57 1040.25C1044.12 1054.45 1019.13 1051.66 1007.69 1048.49L968.747 888.14Z" fill="#BAC3D7"/>
<path d="M948.919 324C922.99 354.848 910.273 478.602 936.402 568.104C961.437 588.222 1015.53 607.447 1146.07 562.739C1152.77 557.374 1152.37 560.486 1151.66 531.575C1150.76 495.436 1151.21 414.7 1141.81 373.178" stroke="#BAC3D7" stroke-width="5" stroke-linecap="round"/>
<path d="M1255.91 394C1270.78 412.237 1285.54 469.607 1255.91 502.971C1226.28 536.335 1173.65 568.892 1151.03 581M1151.03 494.002L1189.86 451.4C1192.39 448.411 1196.55 440.548 1192.98 433.014" stroke="#BAC3D7" stroke-width="5" stroke-linecap="round"/>
<path d="M982.802 1060.58C993.562 1060.58 1004.77 1052.66 1008.36 1048.7C1028.26 1054.13 1043.1 1049.83 1048.03 1047V1064.54C1035.66 1077.22 996.924 1079.82 980.112 1074.16C970.024 1069.64 973.593 1060.58 982.802 1060.58Z" stroke="#BAC3D7" stroke-width="5"/>
<path d="M1066.16 1061.8C1073.16 1060.91 1081.2 1056.23 1084.34 1054C1098.89 1062.02 1114.2 1059.57 1120.03 1057.34V1067.37C1120.03 1074.05 1114.65 1075.72 1111.28 1076.84L1079.63 1086.31C1071.55 1088.35 1058.08 1090.21 1052.02 1081.3C1045.21 1071.29 1057.41 1062.91 1066.16 1061.8Z" stroke="#BAC3D7" stroke-width="5"/>
<path d="M238.034 798.591V839.978L276.205 861M238.034 798.591L276.205 819.613M238.034 798.591L276.205 771L315.034 792.679M276.205 861V819.613M276.205 861L315.034 834.723V792.679M276.205 819.613L315.034 792.679" stroke="#BAC3D7" stroke-width="5"/>
<path d="M296.792 738L275.034 771.393L313.276 793L335.034 759.607L296.792 738Z" stroke="#BAC3D7" stroke-width="5"/>
<path d="M238.034 733L246.034 751" stroke="#BAC3D7" stroke-width="5" stroke-linecap="round"/>
<path d="M210.034 743L236.034 765" stroke="#BAC3D7" stroke-width="5" stroke-linecap="round"/>
<path d="M209.034 772L225.034 781" stroke="#BAC3D7" stroke-width="5" stroke-linecap="round"/>
<path d="M276.534 773V799.429M276.534 799.429L261.034 810M276.534 799.429L292.034 808.018" stroke="#BAC3D7" stroke-width="5" stroke-linecap="round"/>
<path d="M449.88 996L393.347 975.331C392.559 975.042 392.034 974.292 392.034 973.452V919.255C392.034 917.952 393.259 916.997 394.522 917.315L394.664 917.351M449.88 996V938.5M449.88 996L485.523 956.254C485.852 955.887 486.034 955.411 486.034 954.918V903.471M449.88 938.5L394.664 917.351M449.88 938.5L486.034 903.471M394.664 917.351L429.879 881.944C430.447 881.372 431.304 881.198 432.051 881.502L486.034 903.471" stroke="#BAC3D7" stroke-width="5" stroke-linecap="round"/>
<path d="M986.034 230.5C957.867 228 905.034 235 852.534 262C829.201 274 772.834 286.4 734.034 240C730.034 235.5 725.534 229 724.534 222C723.846 217.183 718.701 213.833 715.534 214M716.034 222C716.034 218.333 716.334 211.1 707.534 211.5M709.534 218.5C708.201 214.667 704.424 207.4 697.624 211M704.034 223C701.867 221.667 699.034 216.2 697.034 209C695.034 201.8 684.534 195.667 679.534 193.5C676.867 192.333 671.534 191.7 671.534 198.5C671.534 204.5 686.234 209.7 687.034 218.5C687.834 227.3 687.367 231.167 687.034 232C686.201 233.667 683.234 235.7 678.034 230.5C672.834 225.3 666.034 224 662.534 225C659.534 226 655.334 229.4 662.534 235C667.883 239.161 685.434 246.9 701.034 266.5C716.634 286.1 736.201 307 744.034 315C760.201 329.167 804.534 354.4 852.534 342" stroke="#BAC3D7" stroke-width="5" stroke-linecap="round"/>
<path d="M986.034 186.906C990.953 191.103 1004.16 194.59 1012.03 184" stroke="#BAC3D7" stroke-width="5" stroke-linecap="round"/>
<path d="M859.755 270C860.502 285.061 860.203 323.147 853.034 355" stroke="#BAC3D7" stroke-width="5" stroke-linecap="round"/>
<path d="M853.034 354.902C870.978 357.741 918.343 357.054 966.034 328" stroke="#BAC3D7" stroke-width="5" stroke-linecap="round"/>
<path d="M841.534 345C843.368 348.5 847.534 353 852.534 353" stroke="#BAC3D7" stroke-width="5" stroke-linecap="round"/>
<path d="M528.034 163.5C529.634 165.9 558.368 218.167 572.534 244M577.034 256C595.201 239 638.434 203.2 666.034 196M622.534 110.5L662.534 189.5M530.534 158.5C543.534 144.167 577.734 116 610.534 118" stroke="#BAC3D7" stroke-width="5" stroke-linecap="round"/>
<path d="M577.534 184L609.034 199.5L614.034 137.5" stroke="#BAC3D7" stroke-width="5" stroke-linecap="round"/>
<path d="M575.534 183H601.034L613.534 139" stroke="#BAC3D7" stroke-width="5" stroke-linecap="round"/>
<path d="M287.034 329.155C288.17 330.837 308.575 367.478 318.636 385.588M321.831 394C334.732 382.082 365.434 356.986 385.034 351.938M354.143 292L382.549 347.381M288.81 325.649C298.041 315.601 322.328 295.856 345.621 297.258" stroke="#BAC3D7" stroke-width="5" stroke-linecap="round"/>
<path d="M322.034 343.25L344.473 354L348.034 311" stroke="#BAC3D7" stroke-width="4" stroke-linecap="round"/>
<path d="M321.034 343H339.153L348.034 312" stroke="#BAC3D7" stroke-width="4" stroke-linecap="round"/>
<path d="M192.534 426.5C198.201 418.333 247.534 379.9 257.534 375.5M223.034 435.5C228.034 427.833 247.034 409.5 265.034 402.5M411.534 272.5L478.034 216M427.034 298C432.534 288.667 460.634 264.3 483.034 257.5" stroke="#BAC3D7" stroke-opacity="0.3" stroke-width="5" stroke-linecap="round"/>
<path d="M3.03418 948.426V994.776C3.03418 995.258 3.20838 995.724 3.5247 996.088L29.7574 1026.27M3.03418 948.426L29.7574 974.591M3.03418 948.426L48.5443 941.158C49.1673 941.059 49.8007 941.259 50.2532 941.698L76.0342 966.742M29.7574 1026.27V974.591M29.7574 1026.27L74.4096 1017.74C75.3523 1017.56 76.0342 1016.73 76.0342 1015.77V966.742M29.7574 974.591L76.0342 966.742" stroke="#BAC3D7" stroke-width="5" stroke-linecap="round"/>
<path d="M102.034 465.041C102.776 466.13 116.102 489.838 122.672 501.557M124.759 507C133.184 499.289 153.234 483.049 166.034 479.784M145.86 441L164.411 476.835M103.194 462.773C109.223 456.271 125.083 443.495 140.295 444.402" stroke="#BAC3D7" stroke-width="5" stroke-linecap="round"/>
<path d="M125.034 474L139.705 481L142.034 453" stroke="#BAC3D7" stroke-width="3" stroke-linecap="round"/>
<path d="M124.034 474H136.113L142.034 454" stroke="#BAC3D7" stroke-width="3" stroke-linecap="round"/>
</svg>
