<svg width="100" height="96" viewBox="0 0 100 96" fill="none" xmlns="http://www.w3.org/2000/svg">
<g clip-path="url(#clip0_134:416)">
<path d="M52.0957 1.19838L65.8681 29.342C66.4669 29.9409 67.0657 30.5397 67.6645 30.5397L98.2035 34.7313C99.9999 34.7313 100.599 37.1265 99.4011 38.3241L77.2454 59.881C76.6466 60.4798 76.6466 61.0786 76.6466 61.6774L82.0358 92.2163C82.6346 94.0127 80.2394 95.2103 79.0418 94.6115L50.8981 80.839C50.2993 80.839 49.7005 80.839 49.1017 80.839L21.5568 95.2103C19.7603 95.8091 17.9639 94.6115 18.5627 92.8151L23.952 62.2762C23.952 61.6774 23.952 61.0786 23.3532 60.4798L0.598651 38.3241C-0.598954 37.1265 -0.000151753 35.3301 1.79626 35.3301L32.3352 31.1385C32.934 31.1385 33.5328 30.5397 34.1316 29.9409L47.9041 1.19838C49.1017 -0.598028 51.4969 -0.598028 52.0957 1.19838Z" fill="#4B5055"/>
</g>
<defs>
<clipPath id="clip0_134:416">
<rect width="100" height="96" fill="white"/>
</clipPath>
</defs>
</svg>
