<svg width="100" height="96" viewBox="0 0 100 96" fill="none" xmlns="http://www.w3.org/2000/svg">
<g clip-path="url(#clip0_134:419)">
<path d="M99.4006 37.7246C100.598 36.5269 99.9994 34.1317 98.203 34.1317L67.664 29.9401C67.0652 29.9401 66.4664 29.9401 65.8676 28.7425L52.0952 0.598802C51.4964 0 50.8976 0 50.2988 0V80.2395C50.2988 80.2395 50.8976 80.2395 51.4964 80.2395L79.6401 94.012C80.8377 94.6108 83.2329 93.4132 82.6341 91.6168L77.2449 61.0778C77.2449 60.479 77.2449 59.8802 77.8437 59.2814L99.4006 37.7246Z" fill="#4B5055"/>
<path d="M50.2993 0C49.1017 0 48.5029 0.598802 47.9041 0.598802L34.1316 29.9401C33.5328 29.9401 32.934 30.5389 32.3352 30.5389L1.79626 34.7305C-0.000151753 34.7305 -0.598954 37.7245 0.598651 38.9222L23.3532 59.8802C23.952 60.479 23.952 61.6766 23.952 61.6766L18.5627 92.2156C17.9639 94.6108 19.7603 95.8084 21.5568 94.6108L49.1017 80.2395H49.7005V0H50.2993Z" fill="#F5CA99"/>
</g>
<defs>
<clipPath id="clip0_134:419">
<rect width="100" height="96" fill="white"/>
</clipPath>
</defs>
</svg>
